# MagicaVoxel @ Ephtracy

# group
o 

# material
mtllib Minions_01.mtl
usemtl palette

# normals
vn -1 0 0
vn 1 0 0
vn 0 0 1
vn 0 0 -1
vn 0 -1 0
vn 0 1 0

# texcoords
vt 0.0332031 0.5
vt 0.470703 0.5
vt 0.791016 0.5
vt 0.794922 0.5
vt 0.818359 0.5
vt 0.869141 0.5
vt 0.912109 0.5

# verts
v -0.8 0.5 0.2
v -0.8 0.5 0
v -0.8 1 0.2
v -0.8 1 0
v -0.7 1 0.2
v -0.7 1 0
v -0.7 1.1 0.2
v -0.7 1.1 0
v -0.6 0 0.2
v -0.6 0 0
v -0.6 0.1 0.2
v -0.6 0.1 0
v -0.6 0.5 0.2
v -0.6 0.5 0
v -0.6 0.7 0.2
v -0.6 0.7 0
v -0.6 0.8 0.2
v -0.6 0.8 0
v -0.6 1 0.2
v -0.6 1 0
v -0.5 1.1 0.3
v -0.5 1.1 0.2
v -0.5 1.1 0
v -0.5 1.1 -0.1
v -0.5 1.2 0
v -0.5 1.2 -0.1
v -0.5 1.3 0.3
v -0.5 1.3 0
v -0.5 1.4 0.3
v -0.5 1.4 -0.1
v -0.1 0 0.2
v -0.1 0 0
v -0.1 0.1 0.2
v -0.1 0.1 0
v -0.1 0.4 0.2
v -0.1 0.4 0
v 0.2 0.5 0.2
v 0.2 0.5 0
v 0.2 1 0.2
v 0.2 1 0
v -0.7 0.5 0.2
v -0.7 0.5 0
v -0.7 1 0.2
v -0.7 1 0
v -0.4 0 0.2
v -0.4 0 0
v -0.4 0.1 0.2
v -0.4 0.1 0
v -0.4 0.4 0.2
v -0.4 0.4 0
v 0 1.1 0.3
v 0 1.1 0.2
v 0 1.1 0
v 0 1.1 -0.1
v 0 1.2 0
v 0 1.2 -0.1
v 0 1.3 0.3
v 0 1.3 0
v 0 1.4 0.3
v 0 1.4 -0.1
v 0.1 0 0.2
v 0.1 0 0
v 0.1 0.1 0.2
v 0.1 0.1 0
v 0.1 0.5 0.2
v 0.1 0.5 0
v 0.1 1 0.2
v 0.1 1 0
v 0.2 1 0.2
v 0.2 1 0
v 0.2 1.1 0.2
v 0.2 1.1 0
v 0.3 0.5 0.2
v 0.3 0.5 0
v 0.3 1 0.2
v 0.3 1 0
v -0.5 1.1 0.3
v -0.5 1.3 0.3
v -0.5 1.4 0.3
v -0.4 1.2 0.3
v -0.4 1.3 0.3
v -0.3 1.2 0.3
v -0.3 1.3 0.3
v -0.2 1.2 0.3
v -0.2 1.3 0.3
v -0.1 1.2 0.3
v -0.1 1.3 0.3
v 0 1.1 0.3
v 0 1.3 0.3
v 0 1.4 0.3
v -0.8 0.5 0.2
v -0.8 1 0.2
v -0.7 0.5 0.2
v -0.7 1 0.2
v -0.7 1.1 0.2
v -0.6 0 0.2
v -0.6 0.1 0.2
v -0.6 0.5 0.2
v -0.6 0.7 0.2
v -0.6 0.8 0.2
v -0.6 1 0.2
v -0.5 1.1 0.2
v -0.4 0 0.2
v -0.4 0.1 0.2
v -0.4 0.4 0.2
v -0.4 0.6 0.2
v -0.4 0.7 0.2
v -0.4 0.8 0.2
v -0.4 0.9 0.2
v -0.4 1 0.2
v -0.4 1.1 0.2
v -0.3 0.6 0.2
v -0.3 0.7 0.2
v -0.3 0.8 0.2
v -0.3 0.9 0.2
v -0.3 1 0.2
v -0.3 1.1 0.2
v -0.1 0 0.2
v -0.1 0.1 0.2
v -0.1 0.4 0.2
v -0.1 0.5 0.2
v -0.1 0.7 0.2
v -0.1 0.8 0.2
v -0.1 1.1 0.2
v 0 0.5 0.2
v 0 1.1 0.2
v 0.1 0 0.2
v 0.1 0.1 0.2
v 0.1 0.5 0.2
v 0.1 1 0.2
v 0.2 0.5 0.2
v 0.2 1 0.2
v 0.2 1.1 0.2
v 0.3 0.5 0.2
v 0.3 1 0.2
v -0.8 0.5 0
v -0.8 1 0
v -0.7 0.5 0
v -0.7 1 0
v -0.7 1.1 0
v -0.6 0 0
v -0.6 0.1 0
v -0.6 0.5 0
v -0.6 0.7 0
v -0.6 0.8 0
v -0.6 1 0
v -0.5 1.1 0
v -0.4 0 0
v -0.4 0.1 0
v -0.4 0.4 0
v -0.1 0 0
v -0.1 0.1 0
v -0.1 0.4 0
v -0.1 0.5 0
v -0.1 0.7 0
v -0.1 0.8 0
v -0.1 1.1 0
v 0 0.5 0
v 0 1.1 0
v 0.1 0 0
v 0.1 0.1 0
v 0.1 0.5 0
v 0.1 1 0
v 0.2 0.5 0
v 0.2 1 0
v 0.2 1.1 0
v 0.3 0.5 0
v 0.3 1 0
v -0.5 1.1 -0.1
v -0.5 1.2 -0.1
v -0.5 1.4 -0.1
v 0 1.1 -0.1
v 0 1.2 -0.1
v 0 1.4 -0.1
v -0.6 0 0.2
v -0.4 0 0.2
v -0.1 0 0.2
v 0.1 0 0.2
v -0.6 0 0
v -0.4 0 0
v -0.1 0 0
v 0.1 0 0
v -0.4 0.4 0.2
v -0.1 0.4 0.2
v -0.4 0.4 0
v -0.1 0.4 0
v -0.8 0.5 0.2
v -0.7 0.5 0.2
v 0.2 0.5 0.2
v 0.3 0.5 0.2
v -0.8 0.5 0
v -0.7 0.5 0
v 0.2 0.5 0
v 0.3 0.5 0
v -0.7 1 0.2
v -0.6 1 0.2
v 0.1 1 0.2
v 0.2 1 0.2
v -0.7 1 0
v -0.6 1 0
v 0.1 1 0
v 0.2 1 0
v -0.5 1.1 0.3
v 0 1.1 0.3
v -0.5 1.1 0.2
v -0.4 1.1 0.2
v -0.3 1.1 0.2
v -0.1 1.1 0.2
v 0 1.1 0.2
v -0.5 1.1 0
v -0.1 1.1 0
v 0 1.1 0
v -0.5 1.1 -0.1
v 0 1.1 -0.1
v -0.8 1 0.2
v -0.7 1 0.2
v 0.2 1 0.2
v 0.3 1 0.2
v -0.8 1 0
v -0.7 1 0
v 0.2 1 0
v 0.3 1 0
v -0.7 1.1 0.2
v -0.5 1.1 0.2
v 0 1.1 0.2
v 0.2 1.1 0.2
v -0.7 1.1 0
v -0.5 1.1 0
v 0 1.1 0
v 0.2 1.1 0
v -0.5 1.4 0.3
v 0 1.4 0.3
v -0.5 1.4 -0.1
v 0 1.4 -0.1

# faces
f 3/1/1 2/1/1 1/1/1
f 4/1/1 2/1/1 3/1/1
f 7/4/1 6/4/1 5/4/1
f 8/4/1 6/4/1 7/4/1
f 11/7/1 10/7/1 9/7/1
f 12/7/1 10/7/1 11/7/1
f 13/5/1 12/5/1 11/5/1
f 14/5/1 12/5/1 13/5/1
f 15/4/1 14/4/1 13/4/1
f 16/4/1 14/4/1 15/4/1
f 17/3/1 16/3/1 15/3/1
f 18/3/1 16/3/1 17/3/1
f 19/4/1 18/4/1 17/4/1
f 20/4/1 18/4/1 19/4/1
f 25/1/1 22/1/1 21/1/1
f 25/1/1 24/1/1 23/1/1
f 25/1/1 23/1/1 22/1/1
f 26/1/1 24/1/1 25/1/1
f 27/1/1 25/1/1 21/1/1
f 28/6/1 26/6/1 25/6/1
f 28/1/1 25/1/1 27/1/1
f 29/6/1 28/6/1 27/6/1
f 30/6/1 26/6/1 28/6/1
f 30/6/1 28/6/1 29/6/1
f 33/7/1 32/7/1 31/7/1
f 34/7/1 32/7/1 33/7/1
f 35/5/1 34/5/1 33/5/1
f 36/5/1 34/5/1 35/5/1
f 39/1/1 38/1/1 37/1/1
f 40/1/1 38/1/1 39/1/1
f 41/1/2 42/1/2 43/1/2
f 43/1/2 42/1/2 44/1/2
f 45/7/2 46/7/2 47/7/2
f 47/7/2 46/7/2 48/7/2
f 47/5/2 48/5/2 49/5/2
f 49/5/2 48/5/2 50/5/2
f 51/1/2 52/1/2 55/1/2
f 53/1/2 54/1/2 55/1/2
f 52/1/2 53/1/2 55/1/2
f 55/1/2 54/1/2 56/1/2
f 51/1/2 55/1/2 57/1/2
f 55/6/2 56/6/2 58/6/2
f 57/1/2 55/1/2 58/1/2
f 57/6/2 58/6/2 59/6/2
f 58/6/2 56/6/2 60/6/2
f 59/6/2 58/6/2 60/6/2
f 61/7/2 62/7/2 63/7/2
f 63/7/2 62/7/2 64/7/2
f 63/5/2 64/5/2 65/5/2
f 65/5/2 64/5/2 66/5/2
f 65/4/2 66/4/2 67/4/2
f 67/4/2 66/4/2 68/4/2
f 69/4/2 70/4/2 71/4/2
f 71/4/2 70/4/2 72/4/2
f 73/1/2 74/1/2 75/1/2
f 75/1/2 74/1/2 76/1/2
f 80/1/3 78/1/3 77/1/3
f 81/6/3 79/6/3 78/6/3
f 81/1/3 78/1/3 80/1/3
f 82/1/3 80/1/3 77/1/3
f 82/2/3 81/2/3 80/2/3
f 83/6/3 79/6/3 81/6/3
f 83/2/3 81/2/3 82/2/3
f 84/1/3 82/1/3 77/1/3
f 84/1/3 83/1/3 82/1/3
f 85/6/3 79/6/3 83/6/3
f 85/1/3 83/1/3 84/1/3
f 86/1/3 84/1/3 77/1/3
f 86/2/3 85/2/3 84/2/3
f 87/6/3 79/6/3 85/6/3
f 87/2/3 85/2/3 86/2/3
f 88/1/3 86/1/3 77/1/3
f 88/1/3 87/1/3 86/1/3
f 89/6/3 79/6/3 87/6/3
f 89/1/3 87/1/3 88/1/3
f 90/6/3 79/6/3 89/6/3
f 93/1/3 92/1/3 91/1/3
f 94/1/3 92/1/3 93/1/3
f 101/4/3 95/4/3 94/4/3
f 102/4/3 95/4/3 101/4/3
f 102/4/3 101/4/3 100/4/3
f 103/7/3 97/7/3 96/7/3
f 104/5/3 98/5/3 97/5/3
f 104/7/3 97/7/3 103/7/3
f 105/5/3 98/5/3 104/5/3
f 106/4/3 99/4/3 98/4/3
f 107/3/3 100/3/3 99/3/3
f 107/4/3 99/4/3 106/4/3
f 108/4/3 102/4/3 100/4/3
f 108/3/3 100/3/3 107/3/3
f 109/4/3 102/4/3 108/4/3
f 110/4/3 102/4/3 109/4/3
f 111/4/3 102/4/3 110/4/3
f 112/4/3 106/4/3 98/4/3
f 112/5/3 107/5/3 106/5/3
f 113/3/3 108/3/3 107/3/3
f 113/5/3 107/5/3 112/5/3
f 114/5/3 109/5/3 108/5/3
f 114/3/3 108/3/3 113/3/3
f 115/4/3 110/4/3 109/4/3
f 115/5/3 109/5/3 114/5/3
f 116/5/3 111/5/3 110/5/3
f 116/4/3 110/4/3 115/4/3
f 117/5/3 111/5/3 116/5/3
f 120/5/3 98/5/3 105/5/3
f 121/4/3 113/4/3 112/4/3
f 121/4/3 112/4/3 98/4/3
f 121/5/3 98/5/3 120/5/3
f 122/3/3 114/3/3 113/3/3
f 122/4/3 113/4/3 121/4/3
f 123/4/3 115/4/3 114/4/3
f 123/3/3 114/3/3 122/3/3
f 123/4/3 116/4/3 115/4/3
f 123/4/3 117/4/3 116/4/3
f 124/4/3 117/4/3 123/4/3
f 125/3/3 122/3/3 121/3/3
f 125/5/3 121/5/3 120/5/3
f 125/3/3 124/3/3 123/3/3
f 125/3/3 123/3/3 122/3/3
f 125/5/3 120/5/3 119/5/3
f 126/3/3 124/3/3 125/3/3
f 127/7/3 119/7/3 118/7/3
f 128/5/3 125/5/3 119/5/3
f 128/7/3 119/7/3 127/7/3
f 129/4/3 126/4/3 125/4/3
f 129/5/3 125/5/3 128/5/3
f 130/4/3 126/4/3 129/4/3
f 132/4/3 126/4/3 130/4/3
f 133/4/3 126/4/3 132/4/3
f 134/1/3 132/1/3 131/1/3
f 135/1/3 132/1/3 134/1/3
f 136/1/4 137/1/4 138/1/4
f 138/1/4 137/1/4 139/1/4
f 139/4/4 140/4/4 146/4/4
f 146/4/4 140/4/4 147/4/4
f 145/4/4 146/4/4 147/4/4
f 141/7/4 142/7/4 148/7/4
f 142/5/4 143/5/4 149/5/4
f 148/7/4 142/7/4 149/7/4
f 149/5/4 143/5/4 150/5/4
f 150/5/4 143/5/4 153/5/4
f 143/4/4 144/4/4 154/4/4
f 153/5/4 143/5/4 154/5/4
f 144/3/4 145/3/4 155/3/4
f 154/4/4 144/4/4 155/4/4
f 145/4/4 147/4/4 156/4/4
f 155/3/4 145/3/4 156/3/4
f 156/4/4 147/4/4 157/4/4
f 153/5/4 154/5/4 158/5/4
f 152/5/4 153/5/4 158/5/4
f 156/3/4 157/3/4 158/3/4
f 155/3/4 156/3/4 158/3/4
f 154/3/4 155/3/4 158/3/4
f 158/3/4 157/3/4 159/3/4
f 151/7/4 152/7/4 160/7/4
f 152/5/4 158/5/4 161/5/4
f 160/7/4 152/7/4 161/7/4
f 158/4/4 159/4/4 162/4/4
f 161/5/4 158/5/4 162/5/4
f 162/4/4 159/4/4 163/4/4
f 163/4/4 159/4/4 165/4/4
f 165/4/4 159/4/4 166/4/4
f 164/1/4 165/1/4 167/1/4
f 167/1/4 165/1/4 168/1/4
f 169/1/4 170/1/4 172/1/4
f 170/6/4 171/6/4 173/6/4
f 172/1/4 170/1/4 173/1/4
f 173/6/4 171/6/4 174/6/4
f 179/7/5 176/7/5 175/7/5
f 180/7/5 176/7/5 179/7/5
f 181/7/5 178/7/5 177/7/5
f 182/7/5 178/7/5 181/7/5
f 185/5/5 184/5/5 183/5/5
f 186/5/5 184/5/5 185/5/5
f 191/1/5 188/1/5 187/1/5
f 192/1/5 188/1/5 191/1/5
f 193/1/5 190/1/5 189/1/5
f 194/1/5 190/1/5 193/1/5
f 199/4/5 196/4/5 195/4/5
f 200/4/5 196/4/5 199/4/5
f 201/4/5 198/4/5 197/4/5
f 202/4/5 198/4/5 201/4/5
f 205/1/5 204/1/5 203/1/5
f 206/1/5 204/1/5 205/1/5
f 207/1/5 204/1/5 206/1/5
f 208/1/5 204/1/5 207/1/5
f 209/1/5 204/1/5 208/1/5
f 213/1/5 211/1/5 210/1/5
f 213/1/5 212/1/5 211/1/5
f 214/1/5 212/1/5 213/1/5
f 215/1/6 216/1/6 219/1/6
f 219/1/6 216/1/6 220/1/6
f 217/1/6 218/1/6 221/1/6
f 221/1/6 218/1/6 222/1/6
f 223/4/6 224/4/6 227/4/6
f 227/4/6 224/4/6 228/4/6
f 225/4/6 226/4/6 229/4/6
f 229/4/6 226/4/6 230/4/6
f 231/6/6 232/6/6 233/6/6
f 233/6/6 232/6/6 234/6/6
