# MagicaVoxel @ Ephtracy

# group
o 

# material
mtllib Minions_03.mtl
usemtl palette

# normals
vn -1 0 0
vn 1 0 0
vn 0 0 1
vn 0 0 -1
vn 0 -1 0
vn 0 1 0

# texcoords
vt 0.00585938 0.5
vt 0.0332031 0.5
vt 0.0410156 0.5
vt 0.673828 0.5
vt 0.720703 0.5
vt 0.958984 0.5
vt 0.966797 0.5
vt 0.978516 0.5

# verts
v -0.8 0.5 0.2
v -0.8 0.5 0
v -0.8 1 0.2
v -0.8 1 0
v -0.7 1 0.2
v -0.7 1 0
v -0.7 1.1 0.2
v -0.7 1.1 0
v -0.6 0 0.2
v -0.6 0 0
v -0.6 0.1 0.2
v -0.6 0.1 0
v -0.6 0.5 0.2
v -0.6 0.5 0
v -0.6 0.7 0.2
v -0.6 0.7 0
v -0.6 0.8 0.2
v -0.6 0.8 0
v -0.6 1 0.2
v -0.6 1 0
v -0.5 1.1 0.3
v -0.5 1.1 0.2
v -0.5 1.1 0
v -0.5 1.1 -0.1
v -0.5 1.2 0
v -0.5 1.2 -0.1
v -0.5 1.3 0.3
v -0.5 1.3 0
v -0.5 1.4 0.3
v -0.5 1.4 -0.1
v -0.1 0 0.2
v -0.1 0 0
v -0.1 0.1 0.2
v -0.1 0.1 0
v -0.1 0.4 0.2
v -0.1 0.4 0
v 0.2 0.5 0.2
v 0.2 0.5 0
v 0.2 1 0.2
v 0.2 1 0
v -0.7 0.5 0.2
v -0.7 0.5 0
v -0.7 1 0.2
v -0.7 1 0
v -0.4 0 0.2
v -0.4 0 0
v -0.4 0.1 0.2
v -0.4 0.1 0
v -0.4 0.4 0.2
v -0.4 0.4 0
v 0 1.1 0.3
v 0 1.1 0.2
v 0 1.1 0
v 0 1.1 -0.1
v 0 1.2 0
v 0 1.2 -0.1
v 0 1.3 0.3
v 0 1.3 0
v 0 1.4 0.3
v 0 1.4 -0.1
v 0.1 0 0.2
v 0.1 0 0
v 0.1 0.1 0.2
v 0.1 0.1 0
v 0.1 0.5 0.2
v 0.1 0.5 0
v 0.1 1 0.2
v 0.1 1 0
v 0.2 1 0.2
v 0.2 1 0
v 0.2 1.1 0.2
v 0.2 1.1 0
v 0.3 0.5 0.2
v 0.3 0.5 0
v 0.3 1 0.2
v 0.3 1 0
v -0.5 1.1 0.3
v -0.5 1.3 0.3
v -0.5 1.4 0.3
v -0.4 1.2 0.3
v -0.4 1.3 0.3
v -0.3 1.2 0.3
v -0.3 1.3 0.3
v -0.2 1.2 0.3
v -0.2 1.3 0.3
v -0.1 1.2 0.3
v -0.1 1.3 0.3
v 0 1.1 0.3
v 0 1.3 0.3
v 0 1.4 0.3
v -0.8 0.5 0.2
v -0.8 1 0.2
v -0.7 0.5 0.2
v -0.7 1 0.2
v -0.7 1.1 0.2
v -0.6 0 0.2
v -0.6 0.1 0.2
v -0.6 0.5 0.2
v -0.6 0.7 0.2
v -0.6 0.8 0.2
v -0.6 1 0.2
v -0.5 1.1 0.2
v -0.4 0 0.2
v -0.4 0.1 0.2
v -0.4 0.4 0.2
v -0.4 0.6 0.2
v -0.4 0.7 0.2
v -0.4 0.8 0.2
v -0.4 0.9 0.2
v -0.4 1 0.2
v -0.4 1.1 0.2
v -0.3 0.6 0.2
v -0.3 0.7 0.2
v -0.3 0.8 0.2
v -0.3 0.9 0.2
v -0.3 1 0.2
v -0.3 1.1 0.2
v -0.1 0 0.2
v -0.1 0.1 0.2
v -0.1 0.4 0.2
v -0.1 0.5 0.2
v -0.1 0.7 0.2
v -0.1 0.8 0.2
v -0.1 1.1 0.2
v 0 0.5 0.2
v 0 1.1 0.2
v 0.1 0 0.2
v 0.1 0.1 0.2
v 0.1 0.5 0.2
v 0.1 1 0.2
v 0.2 0.5 0.2
v 0.2 1 0.2
v 0.2 1.1 0.2
v 0.3 0.5 0.2
v 0.3 1 0.2
v -0.8 0.5 0
v -0.8 1 0
v -0.7 0.5 0
v -0.7 1 0
v -0.7 1.1 0
v -0.6 0 0
v -0.6 0.1 0
v -0.6 0.5 0
v -0.6 0.7 0
v -0.6 0.8 0
v -0.6 1 0
v -0.5 1.1 0
v -0.4 0 0
v -0.4 0.1 0
v -0.4 0.4 0
v -0.1 0 0
v -0.1 0.1 0
v -0.1 0.4 0
v -0.1 0.5 0
v -0.1 0.7 0
v -0.1 0.8 0
v -0.1 1.1 0
v 0 0.5 0
v 0 1.1 0
v 0.1 0 0
v 0.1 0.1 0
v 0.1 0.5 0
v 0.1 1 0
v 0.2 0.5 0
v 0.2 1 0
v 0.2 1.1 0
v 0.3 0.5 0
v 0.3 1 0
v -0.5 1.1 -0.1
v -0.5 1.2 -0.1
v -0.5 1.4 -0.1
v 0 1.1 -0.1
v 0 1.2 -0.1
v 0 1.4 -0.1
v -0.6 0 0.2
v -0.4 0 0.2
v -0.1 0 0.2
v 0.1 0 0.2
v -0.6 0 0
v -0.4 0 0
v -0.1 0 0
v 0.1 0 0
v -0.4 0.4 0.2
v -0.1 0.4 0.2
v -0.4 0.4 0
v -0.1 0.4 0
v -0.8 0.5 0.2
v -0.7 0.5 0.2
v 0.2 0.5 0.2
v 0.3 0.5 0.2
v -0.8 0.5 0
v -0.7 0.5 0
v 0.2 0.5 0
v 0.3 0.5 0
v -0.7 1 0.2
v -0.6 1 0.2
v 0.1 1 0.2
v 0.2 1 0.2
v -0.7 1 0
v -0.6 1 0
v 0.1 1 0
v 0.2 1 0
v -0.5 1.1 0.3
v 0 1.1 0.3
v -0.5 1.1 0.2
v -0.4 1.1 0.2
v -0.3 1.1 0.2
v -0.1 1.1 0.2
v 0 1.1 0.2
v -0.5 1.1 0
v -0.1 1.1 0
v 0 1.1 0
v -0.5 1.1 -0.1
v 0 1.1 -0.1
v -0.8 1 0.2
v -0.7 1 0.2
v 0.2 1 0.2
v 0.3 1 0.2
v -0.8 1 0
v -0.7 1 0
v 0.2 1 0
v 0.3 1 0
v -0.7 1.1 0.2
v -0.5 1.1 0.2
v 0 1.1 0.2
v 0.2 1.1 0.2
v -0.7 1.1 0
v -0.5 1.1 0
v 0 1.1 0
v 0.2 1.1 0
v -0.5 1.4 0.3
v 0 1.4 0.3
v -0.5 1.4 -0.1
v 0 1.4 -0.1

# faces
f 3/1/1 2/1/1 1/1/1
f 4/1/1 2/1/1 3/1/1
f 7/6/1 6/6/1 5/6/1
f 8/6/1 6/6/1 7/6/1
f 11/8/1 10/8/1 9/8/1
f 12/8/1 10/8/1 11/8/1
f 13/4/1 12/4/1 11/4/1
f 14/4/1 12/4/1 13/4/1
f 15/6/1 14/6/1 13/6/1
f 16/6/1 14/6/1 15/6/1
f 17/7/1 16/7/1 15/7/1
f 18/7/1 16/7/1 17/7/1
f 19/6/1 18/6/1 17/6/1
f 20/6/1 18/6/1 19/6/1
f 25/1/1 22/1/1 21/1/1
f 25/1/1 24/1/1 23/1/1
f 25/1/1 23/1/1 22/1/1
f 26/1/1 24/1/1 25/1/1
f 27/1/1 25/1/1 21/1/1
f 28/3/1 26/3/1 25/3/1
f 28/1/1 25/1/1 27/1/1
f 29/3/1 28/3/1 27/3/1
f 30/3/1 26/3/1 28/3/1
f 30/3/1 28/3/1 29/3/1
f 33/8/1 32/8/1 31/8/1
f 34/8/1 32/8/1 33/8/1
f 35/4/1 34/4/1 33/4/1
f 36/4/1 34/4/1 35/4/1
f 39/1/1 38/1/1 37/1/1
f 40/1/1 38/1/1 39/1/1
f 41/1/2 42/1/2 43/1/2
f 43/1/2 42/1/2 44/1/2
f 45/8/2 46/8/2 47/8/2
f 47/8/2 46/8/2 48/8/2
f 47/4/2 48/4/2 49/4/2
f 49/4/2 48/4/2 50/4/2
f 51/1/2 52/1/2 55/1/2
f 53/1/2 54/1/2 55/1/2
f 52/1/2 53/1/2 55/1/2
f 55/1/2 54/1/2 56/1/2
f 51/1/2 55/1/2 57/1/2
f 55/3/2 56/3/2 58/3/2
f 57/1/2 55/1/2 58/1/2
f 57/3/2 58/3/2 59/3/2
f 58/3/2 56/3/2 60/3/2
f 59/3/2 58/3/2 60/3/2
f 61/8/2 62/8/2 63/8/2
f 63/8/2 62/8/2 64/8/2
f 63/4/2 64/4/2 65/4/2
f 65/4/2 64/4/2 66/4/2
f 65/6/2 66/6/2 67/6/2
f 67/6/2 66/6/2 68/6/2
f 69/6/2 70/6/2 71/6/2
f 71/6/2 70/6/2 72/6/2
f 73/1/2 74/1/2 75/1/2
f 75/1/2 74/1/2 76/1/2
f 80/1/3 78/1/3 77/1/3
f 81/3/3 79/3/3 78/3/3
f 81/1/3 78/1/3 80/1/3
f 82/1/3 80/1/3 77/1/3
f 82/5/3 81/5/3 80/5/3
f 83/3/3 79/3/3 81/3/3
f 83/5/3 81/5/3 82/5/3
f 84/1/3 82/1/3 77/1/3
f 84/1/3 83/1/3 82/1/3
f 85/3/3 79/3/3 83/3/3
f 85/1/3 83/1/3 84/1/3
f 86/1/3 84/1/3 77/1/3
f 86/5/3 85/5/3 84/5/3
f 87/3/3 79/3/3 85/3/3
f 87/5/3 85/5/3 86/5/3
f 88/1/3 86/1/3 77/1/3
f 88/1/3 87/1/3 86/1/3
f 89/3/3 79/3/3 87/3/3
f 89/1/3 87/1/3 88/1/3
f 90/3/3 79/3/3 89/3/3
f 93/1/3 92/1/3 91/1/3
f 94/1/3 92/1/3 93/1/3
f 101/6/3 95/6/3 94/6/3
f 102/6/3 95/6/3 101/6/3
f 102/6/3 101/6/3 100/6/3
f 103/8/3 97/8/3 96/8/3
f 104/4/3 98/4/3 97/4/3
f 104/8/3 97/8/3 103/8/3
f 105/4/3 98/4/3 104/4/3
f 106/6/3 99/6/3 98/6/3
f 107/7/3 100/7/3 99/7/3
f 107/6/3 99/6/3 106/6/3
f 108/6/3 102/6/3 100/6/3
f 108/7/3 100/7/3 107/7/3
f 109/6/3 102/6/3 108/6/3
f 110/6/3 102/6/3 109/6/3
f 111/6/3 102/6/3 110/6/3
f 112/6/3 106/6/3 98/6/3
f 112/8/3 107/8/3 106/8/3
f 113/7/3 108/7/3 107/7/3
f 113/8/3 107/8/3 112/8/3
f 114/8/3 109/8/3 108/8/3
f 114/7/3 108/7/3 113/7/3
f 115/6/3 110/6/3 109/6/3
f 115/8/3 109/8/3 114/8/3
f 116/8/3 111/8/3 110/8/3
f 116/6/3 110/6/3 115/6/3
f 117/8/3 111/8/3 116/8/3
f 120/4/3 98/4/3 105/4/3
f 121/6/3 113/6/3 112/6/3
f 121/6/3 112/6/3 98/6/3
f 121/4/3 98/4/3 120/4/3
f 122/7/3 114/7/3 113/7/3
f 122/6/3 113/6/3 121/6/3
f 123/6/3 115/6/3 114/6/3
f 123/7/3 114/7/3 122/7/3
f 123/6/3 116/6/3 115/6/3
f 123/6/3 117/6/3 116/6/3
f 124/6/3 117/6/3 123/6/3
f 125/7/3 122/7/3 121/7/3
f 125/4/3 121/4/3 120/4/3
f 125/7/3 124/7/3 123/7/3
f 125/7/3 123/7/3 122/7/3
f 125/4/3 120/4/3 119/4/3
f 126/7/3 124/7/3 125/7/3
f 127/8/3 119/8/3 118/8/3
f 128/4/3 125/4/3 119/4/3
f 128/8/3 119/8/3 127/8/3
f 129/6/3 126/6/3 125/6/3
f 129/4/3 125/4/3 128/4/3
f 130/6/3 126/6/3 129/6/3
f 132/6/3 126/6/3 130/6/3
f 133/6/3 126/6/3 132/6/3
f 134/1/3 132/1/3 131/1/3
f 135/1/3 132/1/3 134/1/3
f 136/1/4 137/1/4 138/1/4
f 138/1/4 137/1/4 139/1/4
f 139/6/4 140/6/4 146/6/4
f 146/6/4 140/6/4 147/6/4
f 145/6/4 146/6/4 147/6/4
f 141/8/4 142/8/4 148/8/4
f 142/4/4 143/4/4 149/4/4
f 148/8/4 142/8/4 149/8/4
f 149/4/4 143/4/4 150/4/4
f 150/4/4 143/4/4 153/4/4
f 143/6/4 144/6/4 154/6/4
f 153/4/4 143/4/4 154/4/4
f 144/7/4 145/7/4 155/7/4
f 154/6/4 144/6/4 155/6/4
f 145/6/4 147/6/4 156/6/4
f 155/7/4 145/7/4 156/7/4
f 156/6/4 147/6/4 157/6/4
f 153/4/4 154/4/4 158/4/4
f 152/4/4 153/4/4 158/4/4
f 156/7/4 157/7/4 158/7/4
f 155/7/4 156/7/4 158/7/4
f 154/7/4 155/7/4 158/7/4
f 158/7/4 157/7/4 159/7/4
f 151/8/4 152/8/4 160/8/4
f 152/4/4 158/4/4 161/4/4
f 160/8/4 152/8/4 161/8/4
f 158/6/4 159/6/4 162/6/4
f 161/4/4 158/4/4 162/4/4
f 162/6/4 159/6/4 163/6/4
f 163/6/4 159/6/4 165/6/4
f 165/6/4 159/6/4 166/6/4
f 164/1/4 165/1/4 167/1/4
f 167/1/4 165/1/4 168/1/4
f 169/1/4 170/1/4 172/1/4
f 170/3/4 171/3/4 173/3/4
f 172/1/4 170/1/4 173/1/4
f 173/3/4 171/3/4 174/3/4
f 179/8/5 176/8/5 175/8/5
f 180/8/5 176/8/5 179/8/5
f 181/8/5 178/8/5 177/8/5
f 182/8/5 178/8/5 181/8/5
f 185/4/5 184/4/5 183/4/5
f 186/4/5 184/4/5 185/4/5
f 191/1/5 188/1/5 187/1/5
f 192/1/5 188/1/5 191/1/5
f 193/1/5 190/1/5 189/1/5
f 194/1/5 190/1/5 193/1/5
f 199/6/5 196/6/5 195/6/5
f 200/6/5 196/6/5 199/6/5
f 201/6/5 198/6/5 197/6/5
f 202/6/5 198/6/5 201/6/5
f 205/1/5 204/1/5 203/1/5
f 206/1/5 204/1/5 205/1/5
f 207/1/5 204/1/5 206/1/5
f 208/1/5 204/1/5 207/1/5
f 209/1/5 204/1/5 208/1/5
f 213/1/5 211/1/5 210/1/5
f 213/1/5 212/1/5 211/1/5
f 214/1/5 212/1/5 213/1/5
f 215/1/6 216/1/6 219/1/6
f 219/1/6 216/1/6 220/1/6
f 217/1/6 218/1/6 221/1/6
f 221/1/6 218/1/6 222/1/6
f 223/6/6 224/6/6 227/6/6
f 227/6/6 224/6/6 228/6/6
f 225/6/6 226/6/6 229/6/6
f 229/6/6 226/6/6 230/6/6
f 231/3/6 232/3/6 233/3/6
f 233/3/6 232/3/6 234/3/6
