# MagicaVoxel @ Ephtracy

# group
o 

# material
mtllib Minions_02.mtl
usemtl palette

# normals
vn -1 0 0
vn 1 0 0
vn 0 0 1
vn 0 0 -1
vn 0 -1 0
vn 0 1 0

# texcoords
vt 0.0332031 0.5
vt 0.0371094 0.5
vt 0.0410156 0.5
vt 0.0605469 0.5
vt 0.208984 0.5
vt 0.373047 0.5
vt 0.865234 0.5
vt 0.873047 0.5

# verts
v -0.8 0.5 0.2
v -0.8 0.5 0
v -0.8 1 0.2
v -0.8 1 0
v -0.7 1 0.2
v -0.7 1 0
v -0.7 1.1 0.2
v -0.7 1.1 0
v -0.6 0 0.2
v -0.6 0 0
v -0.6 0.1 0.2
v -0.6 0.1 0
v -0.6 0.5 0.2
v -0.6 0.5 0
v -0.6 0.7 0.2
v -0.6 0.7 0
v -0.6 0.8 0.2
v -0.6 0.8 0
v -0.6 1 0.2
v -0.6 1 0
v -0.5 1.1 0.3
v -0.5 1.1 0.2
v -0.5 1.1 0
v -0.5 1.1 -0.1
v -0.5 1.2 0
v -0.5 1.2 -0.1
v -0.5 1.3 0.3
v -0.5 1.3 0
v -0.5 1.4 0.3
v -0.5 1.4 -0.1
v -0.1 0 0.2
v -0.1 0 0
v -0.1 0.1 0.2
v -0.1 0.1 0
v -0.1 0.4 0.2
v -0.1 0.4 0
v 0.2 0.5 0.2
v 0.2 0.5 0
v 0.2 1 0.2
v 0.2 1 0
v -0.7 0.5 0.2
v -0.7 0.5 0
v -0.7 1 0.2
v -0.7 1 0
v -0.4 0 0.2
v -0.4 0 0
v -0.4 0.1 0.2
v -0.4 0.1 0
v -0.4 0.4 0.2
v -0.4 0.4 0
v 0 1.1 0.3
v 0 1.1 0.2
v 0 1.1 0
v 0 1.1 -0.1
v 0 1.2 0
v 0 1.2 -0.1
v 0 1.3 0.3
v 0 1.3 0
v 0 1.4 0.3
v 0 1.4 -0.1
v 0.1 0 0.2
v 0.1 0 0
v 0.1 0.1 0.2
v 0.1 0.1 0
v 0.1 0.5 0.2
v 0.1 0.5 0
v 0.1 1 0.2
v 0.1 1 0
v 0.2 1 0.2
v 0.2 1 0
v 0.2 1.1 0.2
v 0.2 1.1 0
v 0.3 0.5 0.2
v 0.3 0.5 0
v 0.3 1 0.2
v 0.3 1 0
v -0.5 1.1 0.3
v -0.5 1.3 0.3
v -0.5 1.4 0.3
v -0.4 1.2 0.3
v -0.4 1.3 0.3
v -0.3 1.2 0.3
v -0.3 1.3 0.3
v -0.2 1.2 0.3
v -0.2 1.3 0.3
v -0.1 1.2 0.3
v -0.1 1.3 0.3
v 0 1.1 0.3
v 0 1.3 0.3
v 0 1.4 0.3
v -0.8 0.5 0.2
v -0.8 1 0.2
v -0.7 0.5 0.2
v -0.7 1 0.2
v -0.7 1.1 0.2
v -0.6 0 0.2
v -0.6 0.1 0.2
v -0.6 0.5 0.2
v -0.6 0.7 0.2
v -0.6 0.8 0.2
v -0.6 1 0.2
v -0.5 1.1 0.2
v -0.4 0 0.2
v -0.4 0.1 0.2
v -0.4 0.4 0.2
v -0.4 0.6 0.2
v -0.4 0.7 0.2
v -0.4 0.8 0.2
v -0.4 0.9 0.2
v -0.4 1 0.2
v -0.4 1.1 0.2
v -0.3 0.6 0.2
v -0.3 0.7 0.2
v -0.3 0.8 0.2
v -0.3 0.9 0.2
v -0.3 1 0.2
v -0.3 1.1 0.2
v -0.1 0 0.2
v -0.1 0.1 0.2
v -0.1 0.4 0.2
v -0.1 0.5 0.2
v -0.1 0.7 0.2
v -0.1 0.8 0.2
v -0.1 1.1 0.2
v 0 0.5 0.2
v 0 1.1 0.2
v 0.1 0 0.2
v 0.1 0.1 0.2
v 0.1 0.5 0.2
v 0.1 1 0.2
v 0.2 0.5 0.2
v 0.2 1 0.2
v 0.2 1.1 0.2
v 0.3 0.5 0.2
v 0.3 1 0.2
v -0.8 0.5 0
v -0.8 1 0
v -0.7 0.5 0
v -0.7 1 0
v -0.7 1.1 0
v -0.6 0 0
v -0.6 0.1 0
v -0.6 0.5 0
v -0.6 0.7 0
v -0.6 0.8 0
v -0.6 1 0
v -0.5 1.1 0
v -0.4 0 0
v -0.4 0.1 0
v -0.4 0.4 0
v -0.1 0 0
v -0.1 0.1 0
v -0.1 0.4 0
v -0.1 0.5 0
v -0.1 0.7 0
v -0.1 0.8 0
v -0.1 1.1 0
v 0 0.5 0
v 0 1.1 0
v 0.1 0 0
v 0.1 0.1 0
v 0.1 0.5 0
v 0.1 1 0
v 0.2 0.5 0
v 0.2 1 0
v 0.2 1.1 0
v 0.3 0.5 0
v 0.3 1 0
v -0.5 1.1 -0.1
v -0.5 1.2 -0.1
v -0.5 1.4 -0.1
v 0 1.1 -0.1
v 0 1.2 -0.1
v 0 1.4 -0.1
v -0.6 0 0.2
v -0.4 0 0.2
v -0.1 0 0.2
v 0.1 0 0.2
v -0.6 0 0
v -0.4 0 0
v -0.1 0 0
v 0.1 0 0
v -0.4 0.4 0.2
v -0.1 0.4 0.2
v -0.4 0.4 0
v -0.1 0.4 0
v -0.8 0.5 0.2
v -0.7 0.5 0.2
v 0.2 0.5 0.2
v 0.3 0.5 0.2
v -0.8 0.5 0
v -0.7 0.5 0
v 0.2 0.5 0
v 0.3 0.5 0
v -0.7 1 0.2
v -0.6 1 0.2
v 0.1 1 0.2
v 0.2 1 0.2
v -0.7 1 0
v -0.6 1 0
v 0.1 1 0
v 0.2 1 0
v -0.5 1.1 0.3
v 0 1.1 0.3
v -0.5 1.1 0.2
v -0.4 1.1 0.2
v -0.3 1.1 0.2
v -0.1 1.1 0.2
v 0 1.1 0.2
v -0.5 1.1 0
v -0.1 1.1 0
v 0 1.1 0
v -0.5 1.1 -0.1
v 0 1.1 -0.1
v -0.8 1 0.2
v -0.7 1 0.2
v 0.2 1 0.2
v 0.3 1 0.2
v -0.8 1 0
v -0.7 1 0
v 0.2 1 0
v 0.3 1 0
v -0.7 1.1 0.2
v -0.5 1.1 0.2
v 0 1.1 0.2
v 0.2 1.1 0.2
v -0.7 1.1 0
v -0.5 1.1 0
v 0 1.1 0
v 0.2 1.1 0
v -0.5 1.4 0.3
v 0 1.4 0.3
v -0.5 1.4 -0.1
v 0 1.4 -0.1

# faces
f 3/4/1 2/4/1 1/4/1
f 4/4/1 2/4/1 3/4/1
f 7/5/1 6/5/1 5/5/1
f 8/5/1 6/5/1 7/5/1
f 11/6/1 10/6/1 9/6/1
f 12/6/1 10/6/1 11/6/1
f 13/2/1 12/2/1 11/2/1
f 14/2/1 12/2/1 13/2/1
f 15/5/1 14/5/1 13/5/1
f 16/5/1 14/5/1 15/5/1
f 17/3/1 16/3/1 15/3/1
f 18/3/1 16/3/1 17/3/1
f 19/5/1 18/5/1 17/5/1
f 20/5/1 18/5/1 19/5/1
f 25/4/1 22/4/1 21/4/1
f 25/4/1 24/4/1 23/4/1
f 25/4/1 23/4/1 22/4/1
f 26/4/1 24/4/1 25/4/1
f 27/4/1 25/4/1 21/4/1
f 28/8/1 26/8/1 25/8/1
f 28/4/1 25/4/1 27/4/1
f 29/8/1 28/8/1 27/8/1
f 30/8/1 26/8/1 28/8/1
f 30/8/1 28/8/1 29/8/1
f 33/6/1 32/6/1 31/6/1
f 34/6/1 32/6/1 33/6/1
f 35/2/1 34/2/1 33/2/1
f 36/2/1 34/2/1 35/2/1
f 39/4/1 38/4/1 37/4/1
f 40/4/1 38/4/1 39/4/1
f 41/4/2 42/4/2 43/4/2
f 43/4/2 42/4/2 44/4/2
f 45/6/2 46/6/2 47/6/2
f 47/6/2 46/6/2 48/6/2
f 47/2/2 48/2/2 49/2/2
f 49/2/2 48/2/2 50/2/2
f 51/4/2 52/4/2 55/4/2
f 53/4/2 54/4/2 55/4/2
f 52/4/2 53/4/2 55/4/2
f 55/4/2 54/4/2 56/4/2
f 51/4/2 55/4/2 57/4/2
f 55/8/2 56/8/2 58/8/2
f 57/4/2 55/4/2 58/4/2
f 57/8/2 58/8/2 59/8/2
f 58/8/2 56/8/2 60/8/2
f 59/8/2 58/8/2 60/8/2
f 61/6/2 62/6/2 63/6/2
f 63/6/2 62/6/2 64/6/2
f 63/2/2 64/2/2 65/2/2
f 65/2/2 64/2/2 66/2/2
f 65/5/2 66/5/2 67/5/2
f 67/5/2 66/5/2 68/5/2
f 69/5/2 70/5/2 71/5/2
f 71/5/2 70/5/2 72/5/2
f 73/4/2 74/4/2 75/4/2
f 75/4/2 74/4/2 76/4/2
f 80/4/3 78/4/3 77/4/3
f 81/8/3 79/8/3 78/8/3
f 81/4/3 78/4/3 80/4/3
f 82/4/3 80/4/3 77/4/3
f 82/7/3 81/7/3 80/7/3
f 83/8/3 79/8/3 81/8/3
f 83/7/3 81/7/3 82/7/3
f 84/4/3 82/4/3 77/4/3
f 84/4/3 83/4/3 82/4/3
f 85/8/3 79/8/3 83/8/3
f 85/4/3 83/4/3 84/4/3
f 86/4/3 84/4/3 77/4/3
f 86/7/3 85/7/3 84/7/3
f 87/8/3 79/8/3 85/8/3
f 87/7/3 85/7/3 86/7/3
f 88/4/3 86/4/3 77/4/3
f 88/4/3 87/4/3 86/4/3
f 89/8/3 79/8/3 87/8/3
f 89/4/3 87/4/3 88/4/3
f 90/8/3 79/8/3 89/8/3
f 93/4/3 92/4/3 91/4/3
f 94/4/3 92/4/3 93/4/3
f 101/5/3 95/5/3 94/5/3
f 102/5/3 95/5/3 101/5/3
f 102/5/3 101/5/3 100/5/3
f 103/6/3 97/6/3 96/6/3
f 104/2/3 98/2/3 97/2/3
f 104/6/3 97/6/3 103/6/3
f 105/2/3 98/2/3 104/2/3
f 106/5/3 99/5/3 98/5/3
f 107/3/3 100/3/3 99/3/3
f 107/5/3 99/5/3 106/5/3
f 108/5/3 102/5/3 100/5/3
f 108/3/3 100/3/3 107/3/3
f 109/5/3 102/5/3 108/5/3
f 110/5/3 102/5/3 109/5/3
f 111/5/3 102/5/3 110/5/3
f 112/5/3 106/5/3 98/5/3
f 112/6/3 107/6/3 106/6/3
f 113/3/3 108/3/3 107/3/3
f 113/6/3 107/6/3 112/6/3
f 114/6/3 109/6/3 108/6/3
f 114/3/3 108/3/3 113/3/3
f 115/5/3 110/5/3 109/5/3
f 115/6/3 109/6/3 114/6/3
f 116/6/3 111/6/3 110/6/3
f 116/5/3 110/5/3 115/5/3
f 117/6/3 111/6/3 116/6/3
f 120/2/3 98/2/3 105/2/3
f 121/5/3 113/5/3 112/5/3
f 121/5/3 112/5/3 98/5/3
f 121/2/3 98/2/3 120/2/3
f 122/3/3 114/3/3 113/3/3
f 122/5/3 113/5/3 121/5/3
f 123/5/3 115/5/3 114/5/3
f 123/3/3 114/3/3 122/3/3
f 123/5/3 116/5/3 115/5/3
f 123/5/3 117/5/3 116/5/3
f 124/5/3 117/5/3 123/5/3
f 125/3/3 122/3/3 121/3/3
f 125/2/3 121/2/3 120/2/3
f 125/3/3 124/3/3 123/3/3
f 125/3/3 123/3/3 122/3/3
f 125/2/3 120/2/3 119/2/3
f 126/3/3 124/3/3 125/3/3
f 127/6/3 119/6/3 118/6/3
f 128/2/3 125/2/3 119/2/3
f 128/6/3 119/6/3 127/6/3
f 129/5/3 126/5/3 125/5/3
f 129/2/3 125/2/3 128/2/3
f 130/5/3 126/5/3 129/5/3
f 132/5/3 126/5/3 130/5/3
f 133/5/3 126/5/3 132/5/3
f 134/4/3 132/4/3 131/4/3
f 135/4/3 132/4/3 134/4/3
f 136/4/4 137/4/4 138/4/4
f 138/4/4 137/4/4 139/4/4
f 139/5/4 140/5/4 146/5/4
f 146/5/4 140/5/4 147/5/4
f 145/5/4 146/5/4 147/5/4
f 141/6/4 142/6/4 148/6/4
f 142/2/4 143/2/4 149/2/4
f 148/6/4 142/6/4 149/6/4
f 149/2/4 143/2/4 150/2/4
f 150/2/4 143/2/4 153/2/4
f 143/5/4 144/5/4 154/5/4
f 153/2/4 143/2/4 154/2/4
f 144/3/4 145/3/4 155/3/4
f 154/5/4 144/5/4 155/5/4
f 145/5/4 147/5/4 156/5/4
f 155/3/4 145/3/4 156/3/4
f 156/5/4 147/5/4 157/5/4
f 153/2/4 154/2/4 158/2/4
f 152/2/4 153/2/4 158/2/4
f 156/3/4 157/3/4 158/3/4
f 155/3/4 156/3/4 158/3/4
f 154/3/4 155/3/4 158/3/4
f 158/3/4 157/3/4 159/3/4
f 151/6/4 152/6/4 160/6/4
f 152/2/4 158/2/4 161/2/4
f 160/6/4 152/6/4 161/6/4
f 158/5/4 159/5/4 162/5/4
f 161/2/4 158/2/4 162/2/4
f 162/5/4 159/5/4 163/5/4
f 163/5/4 159/5/4 165/5/4
f 165/5/4 159/5/4 166/5/4
f 164/4/4 165/4/4 167/4/4
f 167/4/4 165/4/4 168/4/4
f 169/4/4 170/4/4 172/4/4
f 170/8/4 171/8/4 173/8/4
f 172/4/4 170/4/4 173/4/4
f 173/8/4 171/8/4 174/8/4
f 179/6/5 176/6/5 175/6/5
f 180/6/5 176/6/5 179/6/5
f 181/6/5 178/6/5 177/6/5
f 182/6/5 178/6/5 181/6/5
f 185/2/5 184/2/5 183/2/5
f 186/2/5 184/2/5 185/2/5
f 191/4/5 188/4/5 187/4/5
f 192/4/5 188/4/5 191/4/5
f 193/4/5 190/4/5 189/4/5
f 194/4/5 190/4/5 193/4/5
f 199/5/5 196/5/5 195/5/5
f 200/5/5 196/5/5 199/5/5
f 201/5/5 198/5/5 197/5/5
f 202/5/5 198/5/5 201/5/5
f 205/4/5 204/4/5 203/4/5
f 206/4/5 204/4/5 205/4/5
f 207/4/5 204/4/5 206/4/5
f 208/4/5 204/4/5 207/4/5
f 209/4/5 204/4/5 208/4/5
f 213/4/5 211/4/5 210/4/5
f 213/4/5 212/4/5 211/4/5
f 214/4/5 212/4/5 213/4/5
f 215/4/6 216/4/6 219/4/6
f 219/4/6 216/4/6 220/4/6
f 217/4/6 218/4/6 221/4/6
f 221/4/6 218/4/6 222/4/6
f 223/5/6 224/5/6 227/5/6
f 227/5/6 224/5/6 228/5/6
f 225/5/6 226/5/6 229/5/6
f 229/5/6 226/5/6 230/5/6
f 231/8/6 232/8/6 233/8/6
f 233/8/6 232/8/6 234/8/6
