# MagicaVoxel @ Ephtracy

# group
o 

# material
mtllib Projectile_Moto_Passado.mtl
usemtl palette

# normals
vn -1 0 0
vn 1 0 0
vn 0 0 1
vn 0 0 -1
vn 0 -1 0
vn 0 1 0

# texcoords
vt 0.369141 0.5
vt 0.373047 0.5
vt 0.537109 0.5
vt 0.982422 0.5
vt 0.986328 0.5

# verts
v 0.3 3.1 -0.4
v 0.3 3.1 -0.5
v 0.3 3.1 -0.6
v 0.3 3.2 -0.4
v 0.3 3.2 -0.5
v 0.3 3.2 -0.6
v 0.4 1.9 -0.5
v 0.4 1.9 -0.6
v 0.4 2 -0.5
v 0.4 2 -0.6
v 0.4 2.5 -0.4
v 0.4 2.5 -0.6
v 0.4 2.6 -0.4
v 0.4 2.6 -0.6
v 0.4 3.1 -0.3
v 0.4 3.1 -0.4
v 0.4 3.1 -0.6
v 0.4 3.1 -0.7
v 0.4 3.2 -0.3
v 0.4 3.2 -0.4
v 0.4 3.2 -0.5
v 0.4 3.2 -0.6
v 0.4 3.2 -0.7
v 0.4 3.3 -0.5
v 0.4 3.3 -0.6
v 0.5 1.9 -0.4
v 0.5 1.9 -0.5
v 0.5 2 -0.5
v 0.5 2 -0.6
v 0.5 2 -0.7
v 0.5 2.1 -0.5
v 0.5 2.1 -0.6
v 0.5 2.1 -0.7
v 0.5 2.2 -0.4
v 0.5 2.2 -0.5
v 0.5 2.3 -0.4
v 0.5 2.3 -0.5
v 0.5 2.4 -0.3
v 0.5 2.4 -0.4
v 0.5 2.4 -0.5
v 0.5 2.4 -0.6
v 0.5 2.5 -0.3
v 0.5 2.5 -0.4
v 0.5 2.5 -0.5
v 0.5 2.5 -0.6
v 0.5 2.6 -0.4
v 0.5 2.6 -0.5
v 0.5 2.6 -0.6
v 0.5 2.6 -0.7
v 0.5 2.7 -0.4
v 0.5 2.7 -0.5
v 0.5 2.7 -0.6
v 0.5 2.7 -0.7
v 0.5 2.8 -0.5
v 0.5 2.8 -0.6
v 0.5 2.9 -0.5
v 0.5 2.9 -0.6
v 0.5 3 -0.4
v 0.5 3 -0.5
v 0.5 3.1 -0.2
v 0.5 3.1 -0.3
v 0.5 3.1 -0.4
v 0.5 3.1 -0.5
v 0.5 3.1 -0.6
v 0.5 3.1 -0.7
v 0.5 3.1 -0.8
v 0.5 3.2 -0.2
v 0.5 3.2 -0.3
v 0.5 3.2 -0.5
v 0.5 3.2 -0.6
v 0.5 3.2 -0.7
v 0.5 3.2 -0.8
v 0.5 3.3 -0.3
v 0.5 3.3 -0.4
v 0.5 3.3 -0.5
v 0.5 3.3 -0.6
v 0.5 3.3 -0.7
v 0.5 3.5 -0.4
v 0.5 3.5 -0.5
v 0.5 3.5 -0.6
v 0.5 3.6 -0.4
v 0.5 3.6 -0.5
v 0.6 2.3 -0.3
v 0.6 2.3 -0.4
v 0.6 2.4 -0.3
v 0.6 2.4 -0.4
v 0.6 2.7 -0.6
v 0.6 2.7 -0.7
v 0.6 2.8 -0.6
v 0.6 2.8 -0.7
v 0.6 3.5 -0.5
v 0.6 3.5 -0.6
v 0.6 3.6 -0.5
v 0.6 3.6 -0.6
v 0.6 2.4 -0.3
v 0.6 2.4 -0.4
v 0.6 2.5 -0.3
v 0.6 2.5 -0.4
v 0.6 2.6 -0.6
v 0.6 2.6 -0.7
v 0.6 2.7 -0.6
v 0.6 2.7 -0.7
v 0.6 3.1 -0.7
v 0.6 3.1 -0.8
v 0.6 3.2 -0.7
v 0.6 3.2 -0.8
v 0.6 3.5 -0.4
v 0.6 3.5 -0.5
v 0.6 3.6 -0.4
v 0.6 3.6 -0.5
v 0.7 1.9 -0.4
v 0.7 1.9 -0.6
v 0.7 2 -0.4
v 0.7 2 -0.5
v 0.7 2 -0.6
v 0.7 2 -0.7
v 0.7 2.1 -0.4
v 0.7 2.1 -0.5
v 0.7 2.1 -0.6
v 0.7 2.1 -0.7
v 0.7 2.2 -0.4
v 0.7 2.2 -0.5
v 0.7 2.2 -0.6
v 0.7 2.3 -0.3
v 0.7 2.3 -0.4
v 0.7 2.3 -0.5
v 0.7 2.3 -0.6
v 0.7 2.4 -0.3
v 0.7 2.4 -0.4
v 0.7 2.4 -0.5
v 0.7 2.5 -0.4
v 0.7 2.5 -0.5
v 0.7 2.6 -0.5
v 0.7 2.6 -0.6
v 0.7 2.7 -0.5
v 0.7 2.7 -0.6
v 0.7 2.7 -0.7
v 0.7 2.8 -0.4
v 0.7 2.8 -0.5
v 0.7 2.8 -0.6
v 0.7 2.8 -0.7
v 0.7 2.9 -0.4
v 0.7 2.9 -0.5
v 0.7 2.9 -0.6
v 0.7 3 -0.4
v 0.7 3 -0.5
v 0.7 3.1 -0.2
v 0.7 3.1 -0.4
v 0.7 3.1 -0.6
v 0.7 3.2 -0.2
v 0.7 3.2 -0.3
v 0.7 3.2 -0.4
v 0.7 3.2 -0.6
v 0.7 3.2 -0.7
v 0.7 3.3 -0.3
v 0.7 3.3 -0.4
v 0.7 3.3 -0.6
v 0.7 3.3 -0.7
v 0.7 3.5 -0.4
v 0.7 3.5 -0.5
v 0.7 3.5 -0.6
v 0.7 3.6 -0.5
v 0.7 3.6 -0.6
v 0.8 2.1 -0.5
v 0.8 2.1 -0.6
v 0.8 2.2 -0.4
v 0.8 2.2 -0.5
v 0.8 2.2 -0.6
v 0.8 2.3 -0.4
v 0.8 2.3 -0.5
v 0.8 2.8 -0.5
v 0.8 2.8 -0.6
v 0.8 2.9 -0.4
v 0.8 2.9 -0.5
v 0.8 2.9 -0.6
v 0.8 3 -0.4
v 0.8 3 -0.5
v 0.8 3.1 -0.6
v 0.8 3.1 -0.7
v 0.8 3.2 -0.4
v 0.8 3.2 -0.6
v 0.8 3.2 -0.7
v 0.8 3.3 -0.4
v 0.8 3.3 -0.6
v 0.9 3.1 -0.4
v 0.9 3.1 -0.6
v 0.9 3.2 -0.4
v 0.9 3.2 -0.6
v 0.5 3.1 -0.2
v 0.5 3.2 -0.2
v 0.7 3.1 -0.2
v 0.7 3.2 -0.2
v 0.4 3.1 -0.3
v 0.4 3.2 -0.3
v 0.5 2.4 -0.3
v 0.5 2.5 -0.3
v 0.5 3.1 -0.3
v 0.5 3.2 -0.3
v 0.5 3.3 -0.3
v 0.6 2.3 -0.3
v 0.6 2.4 -0.3
v 0.6 2.5 -0.3
v 0.6 3.2 -0.3
v 0.6 3.3 -0.3
v 0.7 2.3 -0.3
v 0.7 2.4 -0.3
v 0.7 3.2 -0.3
v 0.7 3.3 -0.3
v 0.3 3.1 -0.4
v 0.3 3.2 -0.4
v 0.4 2.5 -0.4
v 0.4 2.6 -0.4
v 0.4 3.1 -0.4
v 0.4 3.2 -0.4
v 0.5 1.9 -0.4
v 0.5 2.2 -0.4
v 0.5 2.3 -0.4
v 0.5 2.4 -0.4
v 0.5 2.5 -0.4
v 0.5 2.6 -0.4
v 0.5 2.7 -0.4
v 0.5 3 -0.4
v 0.5 3.1 -0.4
v 0.5 3.3 -0.4
v 0.5 3.5 -0.4
v 0.5 3.6 -0.4
v 0.6 2 -0.4
v 0.6 2.1 -0.4
v 0.6 2.2 -0.4
v 0.6 2.3 -0.4
v 0.6 2.4 -0.4
v 0.6 2.5 -0.4
v 0.6 2.6 -0.4
v 0.6 2.7 -0.4
v 0.6 2.8 -0.4
v 0.6 2.9 -0.4
v 0.6 3 -0.4
v 0.6 3.1 -0.4
v 0.6 3.3 -0.4
v 0.6 3.5 -0.4
v 0.6 3.6 -0.4
v 0.7 1.9 -0.4
v 0.7 2 -0.4
v 0.7 2.1 -0.4
v 0.7 2.2 -0.4
v 0.7 2.3 -0.4
v 0.7 2.4 -0.4
v 0.7 2.5 -0.4
v 0.7 2.8 -0.4
v 0.7 2.9 -0.4
v 0.7 3 -0.4
v 0.7 3.1 -0.4
v 0.7 3.2 -0.4
v 0.7 3.3 -0.4
v 0.7 3.5 -0.4
v 0.8 2.2 -0.4
v 0.8 2.3 -0.4
v 0.8 2.9 -0.4
v 0.8 3 -0.4
v 0.8 3.2 -0.4
v 0.8 3.3 -0.4
v 0.9 3.1 -0.4
v 0.9 3.2 -0.4
v 0.4 1.9 -0.5
v 0.4 2 -0.5
v 0.4 3.2 -0.5
v 0.4 3.3 -0.5
v 0.5 1.9 -0.5
v 0.5 2 -0.5
v 0.5 3.2 -0.5
v 0.5 3.3 -0.5
v 0.6 3.5 -0.5
v 0.6 3.6 -0.5
v 0.7 2.1 -0.5
v 0.7 2.2 -0.5
v 0.7 2.8 -0.5
v 0.7 2.9 -0.5
v 0.7 3.5 -0.5
v 0.7 3.6 -0.5
v 0.8 2.1 -0.5
v 0.8 2.2 -0.5
v 0.8 2.8 -0.5
v 0.8 2.9 -0.5
v 0.5 3.5 -0.5
v 0.5 3.6 -0.5
v 0.6 3.5 -0.5
v 0.6 3.6 -0.5
v 0.7 2.2 -0.5
v 0.7 2.3 -0.5
v 0.7 2.9 -0.5
v 0.7 3 -0.5
v 0.8 2.2 -0.5
v 0.8 2.3 -0.5
v 0.8 2.9 -0.5
v 0.8 3 -0.5
v 0.3 3.1 -0.6
v 0.3 3.2 -0.6
v 0.4 1.9 -0.6
v 0.4 2 -0.6
v 0.4 2.5 -0.6
v 0.4 2.6 -0.6
v 0.4 3.1 -0.6
v 0.4 3.2 -0.6
v 0.4 3.3 -0.6
v 0.5 1.9 -0.6
v 0.5 2 -0.6
v 0.5 2.1 -0.6
v 0.5 2.4 -0.6
v 0.5 2.5 -0.6
v 0.5 2.6 -0.6
v 0.5 2.7 -0.6
v 0.5 2.8 -0.6
v 0.5 2.9 -0.6
v 0.5 3.1 -0.6
v 0.5 3.2 -0.6
v 0.5 3.3 -0.6
v 0.5 3.5 -0.6
v 0.6 2.2 -0.6
v 0.6 2.3 -0.6
v 0.6 2.4 -0.6
v 0.6 2.5 -0.6
v 0.6 2.6 -0.6
v 0.6 2.7 -0.6
v 0.6 2.8 -0.6
v 0.6 2.9 -0.6
v 0.6 3.5 -0.6
v 0.6 3.6 -0.6
v 0.7 1.9 -0.6
v 0.7 2 -0.6
v 0.7 2.1 -0.6
v 0.7 2.2 -0.6
v 0.7 2.3 -0.6
v 0.7 2.6 -0.6
v 0.7 2.7 -0.6
v 0.7 2.8 -0.6
v 0.7 2.9 -0.6
v 0.7 3.1 -0.6
v 0.7 3.2 -0.6
v 0.7 3.3 -0.6
v 0.7 3.5 -0.6
v 0.7 3.6 -0.6
v 0.8 2.1 -0.6
v 0.8 2.2 -0.6
v 0.8 2.8 -0.6
v 0.8 2.9 -0.6
v 0.8 3.1 -0.6
v 0.8 3.2 -0.6
v 0.8 3.3 -0.6
v 0.9 3.1 -0.6
v 0.9 3.2 -0.6
v 0.4 3.1 -0.7
v 0.4 3.2 -0.7
v 0.5 2 -0.7
v 0.5 2.1 -0.7
v 0.5 2.6 -0.7
v 0.5 2.7 -0.7
v 0.5 3.1 -0.7
v 0.5 3.2 -0.7
v 0.5 3.3 -0.7
v 0.6 2.6 -0.7
v 0.6 2.7 -0.7
v 0.6 2.8 -0.7
v 0.6 3.1 -0.7
v 0.6 3.2 -0.7
v 0.7 2 -0.7
v 0.7 2.1 -0.7
v 0.7 2.7 -0.7
v 0.7 2.8 -0.7
v 0.7 3.1 -0.7
v 0.7 3.2 -0.7
v 0.7 3.3 -0.7
v 0.8 3.1 -0.7
v 0.8 3.2 -0.7
v 0.5 3.1 -0.8
v 0.5 3.2 -0.8
v 0.6 3.1 -0.8
v 0.6 3.2 -0.8
v 0.5 1.9 -0.4
v 0.7 1.9 -0.4
v 0.4 1.9 -0.5
v 0.5 1.9 -0.5
v 0.4 1.9 -0.6
v 0.5 1.9 -0.6
v 0.7 1.9 -0.6
v 0.5 2 -0.6
v 0.7 2 -0.6
v 0.5 2 -0.7
v 0.7 2 -0.7
v 0.7 2.1 -0.5
v 0.8 2.1 -0.5
v 0.7 2.1 -0.6
v 0.8 2.1 -0.6
v 0.7 2.2 -0.4
v 0.8 2.2 -0.4
v 0.7 2.2 -0.5
v 0.8 2.2 -0.5
v 0.6 2.3 -0.3
v 0.7 2.3 -0.3
v 0.6 2.3 -0.4
v 0.7 2.3 -0.4
v 0.5 2.4 -0.3
v 0.6 2.4 -0.3
v 0.5 2.4 -0.4
v 0.6 2.4 -0.4
v 0.4 2.5 -0.4
v 0.5 2.5 -0.4
v 0.5 2.5 -0.5
v 0.4 2.5 -0.6
v 0.5 2.5 -0.6
v 0.5 2.6 -0.6
v 0.6 2.6 -0.6
v 0.5 2.6 -0.7
v 0.6 2.6 -0.7
v 0.6 2.7 -0.6
v 0.7 2.7 -0.6
v 0.6 2.7 -0.7
v 0.7 2.7 -0.7
v 0.7 2.8 -0.5
v 0.8 2.8 -0.5
v 0.7 2.8 -0.6
v 0.8 2.8 -0.6
v 0.7 2.9 -0.4
v 0.8 2.9 -0.4
v 0.7 2.9 -0.5
v 0.8 2.9 -0.5
v 0.5 3.1 -0.2
v 0.7 3.1 -0.2
v 0.4 3.1 -0.3
v 0.5 3.1 -0.3
v 0.3 3.1 -0.4
v 0.4 3.1 -0.4
v 0.5 3.1 -0.4
v 0.6 3.1 -0.4
v 0.7 3.1 -0.4
v 0.9 3.1 -0.4
v 0.3 3.1 -0.5
v 0.4 3.1 -0.5
v 0.5 3.1 -0.5
v 0.3 3.1 -0.6
v 0.4 3.1 -0.6
v 0.5 3.1 -0.6
v 0.7 3.1 -0.6
v 0.8 3.1 -0.6
v 0.9 3.1 -0.6
v 0.4 3.1 -0.7
v 0.5 3.1 -0.7
v 0.6 3.1 -0.7
v 0.7 3.1 -0.7
v 0.8 3.1 -0.7
v 0.5 3.1 -0.8
v 0.6 3.1 -0.8
v 0.4 2 -0.5
v 0.5 2 -0.5
v 0.4 2 -0.6
v 0.5 2 -0.6
v 0.5 2.1 -0.6
v 0.7 2.1 -0.6
v 0.5 2.1 -0.7
v 0.7 2.1 -0.7
v 0.7 2.2 -0.5
v 0.8 2.2 -0.5
v 0.7 2.2 -0.6
v 0.8 2.2 -0.6
v 0.7 2.3 -0.4
v 0.8 2.3 -0.4
v 0.7 2.3 -0.5
v 0.8 2.3 -0.5
v 0.6 2.4 -0.3
v 0.7 2.4 -0.3
v 0.6 2.4 -0.4
v 0.7 2.4 -0.4
v 0.5 2.5 -0.3
v 0.6 2.5 -0.3
v 0.5 2.5 -0.4
v 0.6 2.5 -0.4
v 0.4 2.6 -0.4
v 0.5 2.6 -0.4
v 0.5 2.6 -0.5
v 0.4 2.6 -0.6
v 0.5 2.6 -0.6
v 0.5 2.7 -0.6
v 0.6 2.7 -0.6
v 0.5 2.7 -0.7
v 0.6 2.7 -0.7
v 0.6 2.8 -0.6
v 0.7 2.8 -0.6
v 0.6 2.8 -0.7
v 0.7 2.8 -0.7
v 0.7 2.9 -0.5
v 0.8 2.9 -0.5
v 0.7 2.9 -0.6
v 0.8 2.9 -0.6
v 0.7 3 -0.4
v 0.8 3 -0.4
v 0.7 3 -0.5
v 0.8 3 -0.5
v 0.5 3.2 -0.2
v 0.7 3.2 -0.2
v 0.4 3.2 -0.3
v 0.5 3.2 -0.3
v 0.6 3.2 -0.3
v 0.7 3.2 -0.3
v 0.3 3.2 -0.4
v 0.4 3.2 -0.4
v 0.8 3.2 -0.4
v 0.9 3.2 -0.4
v 0.3 3.2 -0.5
v 0.4 3.2 -0.5
v 0.5 3.2 -0.5
v 0.3 3.2 -0.6
v 0.4 3.2 -0.6
v 0.5 3.2 -0.6
v 0.7 3.2 -0.6
v 0.8 3.2 -0.6
v 0.9 3.2 -0.6
v 0.4 3.2 -0.7
v 0.5 3.2 -0.7
v 0.6 3.2 -0.7
v 0.7 3.2 -0.7
v 0.8 3.2 -0.7
v 0.5 3.2 -0.8
v 0.6 3.2 -0.8
v 0.5 3.3 -0.3
v 0.6 3.3 -0.3
v 0.7 3.3 -0.3
v 0.5 3.3 -0.4
v 0.6 3.3 -0.4
v 0.7 3.3 -0.4
v 0.8 3.3 -0.4
v 0.4 3.3 -0.5
v 0.5 3.3 -0.5
v 0.4 3.3 -0.6
v 0.5 3.3 -0.6
v 0.7 3.3 -0.6
v 0.8 3.3 -0.6
v 0.5 3.3 -0.7
v 0.7 3.3 -0.7
v 0.6 3.5 -0.4
v 0.7 3.5 -0.4
v 0.5 3.5 -0.5
v 0.6 3.5 -0.5
v 0.7 3.5 -0.5
v 0.5 3.5 -0.6
v 0.6 3.5 -0.6
v 0.5 3.6 -0.4
v 0.6 3.6 -0.4
v 0.5 3.6 -0.5
v 0.6 3.6 -0.5
v 0.7 3.6 -0.5
v 0.6 3.6 -0.6
v 0.7 3.6 -0.6

# faces
f 4/5/1 2/5/1 1/5/1
f 5/4/1 3/4/1 2/4/1
f 5/5/1 2/5/1 4/5/1
f 6/4/1 3/4/1 5/4/1
f 9/2/1 8/2/1 7/2/1
f 10/2/1 8/2/1 9/2/1
f 13/2/1 12/2/1 11/2/1
f 14/2/1 12/2/1 13/2/1
f 19/5/1 16/5/1 15/5/1
f 20/5/1 16/5/1 19/5/1
f 22/5/1 18/5/1 17/5/1
f 23/5/1 18/5/1 22/5/1
f 24/5/1 22/5/1 21/5/1
f 25/5/1 22/5/1 24/5/1
f 28/3/1 27/3/1 26/3/1
f 31/3/1 28/3/1 26/3/1
f 31/1/1 29/1/1 28/1/1
f 32/2/1 30/2/1 29/2/1
f 32/1/1 29/1/1 31/1/1
f 33/2/1 30/2/1 32/2/1
f 34/3/1 31/3/1 26/3/1
f 34/3/1 32/3/1 31/3/1
f 35/3/1 32/3/1 34/3/1
f 36/1/1 35/1/1 34/1/1
f 37/3/1 32/3/1 35/3/1
f 37/1/1 35/1/1 36/1/1
f 39/3/1 37/3/1 36/3/1
f 40/3/1 32/3/1 37/3/1
f 40/3/1 37/3/1 39/3/1
f 41/3/1 32/3/1 40/3/1
f 42/2/1 39/2/1 38/2/1
f 43/3/1 40/3/1 39/3/1
f 43/2/1 39/2/1 42/2/1
f 44/1/1 41/1/1 40/1/1
f 44/3/1 40/3/1 43/3/1
f 45/1/1 41/1/1 44/1/1
f 50/1/1 47/1/1 46/1/1
f 51/3/1 48/3/1 47/3/1
f 51/1/1 47/1/1 50/1/1
f 52/2/1 49/2/1 48/2/1
f 52/3/1 48/3/1 51/3/1
f 53/2/1 49/2/1 52/2/1
f 54/3/1 51/3/1 50/3/1
f 54/3/1 52/3/1 51/3/1
f 55/3/1 52/3/1 54/3/1
f 56/3/1 54/3/1 50/3/1
f 56/1/1 55/1/1 54/1/1
f 57/1/1 55/1/1 56/1/1
f 58/3/1 56/3/1 50/3/1
f 58/3/1 57/3/1 56/3/1
f 59/3/1 57/3/1 58/3/1
f 62/1/1 59/1/1 58/1/1
f 63/3/1 57/3/1 59/3/1
f 63/1/1 59/1/1 62/1/1
f 64/3/1 57/3/1 63/3/1
f 67/5/1 61/5/1 60/5/1
f 68/5/1 61/5/1 67/5/1
f 71/5/1 66/5/1 65/5/1
f 72/5/1 66/5/1 71/5/1
f 73/5/1 69/5/1 68/5/1
f 74/5/1 69/5/1 73/5/1
f 75/5/1 69/5/1 74/5/1
f 76/5/1 71/5/1 70/5/1
f 77/5/1 71/5/1 76/5/1
f 78/5/1 75/5/1 74/5/1
f 78/5/1 76/5/1 75/5/1
f 79/5/1 76/5/1 78/5/1
f 80/5/1 76/5/1 79/5/1
f 81/4/1 79/4/1 78/4/1
f 82/4/1 79/4/1 81/4/1
f 85/2/1 84/2/1 83/2/1
f 86/2/1 84/2/1 85/2/1
f 89/2/1 88/2/1 87/2/1
f 90/2/1 88/2/1 89/2/1
f 93/4/1 92/4/1 91/4/1
f 94/4/1 92/4/1 93/4/1
f 95/2/2 96/2/2 97/2/2
f 97/2/2 96/2/2 98/2/2
f 99/2/2 100/2/2 101/2/2
f 101/2/2 100/2/2 102/2/2
f 103/5/2 104/5/2 105/5/2
f 105/5/2 104/5/2 106/5/2
f 107/4/2 108/4/2 109/4/2
f 109/4/2 108/4/2 110/4/2
f 111/3/2 112/3/2 113/3/2
f 113/3/2 112/3/2 114/3/2
f 114/3/2 112/3/2 115/3/2
f 113/1/2 114/1/2 117/1/2
f 114/3/2 115/3/2 118/3/2
f 117/1/2 114/1/2 118/1/2
f 115/2/2 116/2/2 119/2/2
f 118/3/2 115/3/2 119/3/2
f 119/2/2 116/2/2 120/2/2
f 117/3/2 118/3/2 121/3/2
f 121/3/2 118/3/2 122/3/2
f 122/1/2 123/1/2 126/1/2
f 126/1/2 123/1/2 127/1/2
f 124/2/2 125/2/2 128/2/2
f 125/3/2 126/3/2 129/3/2
f 128/2/2 125/2/2 129/2/2
f 126/3/2 127/3/2 129/3/2
f 129/3/2 127/3/2 130/3/2
f 129/1/2 130/1/2 131/1/2
f 130/3/2 127/3/2 132/3/2
f 131/1/2 130/1/2 132/1/2
f 131/3/2 132/3/2 133/3/2
f 132/3/2 127/3/2 133/3/2
f 133/3/2 127/3/2 134/3/2
f 131/3/2 133/3/2 135/3/2
f 133/1/2 134/1/2 135/1/2
f 135/1/2 134/1/2 136/1/2
f 135/3/2 136/3/2 138/3/2
f 131/3/2 135/3/2 138/3/2
f 138/3/2 136/3/2 139/3/2
f 136/2/2 137/2/2 140/2/2
f 139/3/2 136/3/2 140/3/2
f 140/2/2 137/2/2 141/2/2
f 138/1/2 139/1/2 142/1/2
f 142/1/2 139/1/2 143/1/2
f 143/3/2 144/3/2 146/3/2
f 145/3/2 146/3/2 148/3/2
f 146/3/2 144/3/2 149/3/2
f 148/3/2 146/3/2 149/3/2
f 147/5/2 148/5/2 150/5/2
f 150/5/2 148/5/2 151/5/2
f 151/5/2 148/5/2 152/5/2
f 151/4/2 152/4/2 155/4/2
f 155/4/2 152/4/2 156/4/2
f 153/5/2 154/5/2 157/5/2
f 157/5/2 154/5/2 158/5/2
f 156/5/2 157/5/2 159/5/2
f 159/5/2 157/5/2 160/5/2
f 160/5/2 157/5/2 161/5/2
f 160/4/2 161/4/2 162/4/2
f 162/4/2 161/4/2 163/4/2
f 164/2/2 165/2/2 167/2/2
f 167/2/2 165/2/2 168/2/2
f 166/2/2 167/2/2 169/2/2
f 169/2/2 167/2/2 170/2/2
f 171/2/2 172/2/2 174/2/2
f 174/2/2 172/2/2 175/2/2
f 173/2/2 174/2/2 176/2/2
f 176/2/2 174/2/2 177/2/2
f 178/4/2 179/4/2 181/4/2
f 181/4/2 179/4/2 182/4/2
f 180/5/2 181/5/2 183/5/2
f 183/5/2 181/5/2 184/5/2
f 185/5/2 186/5/2 187/5/2
f 187/5/2 186/5/2 188/5/2
f 191/5/3 190/5/3 189/5/3
f 192/5/3 190/5/3 191/5/3
f 197/5/3 194/5/3 193/5/3
f 198/5/3 194/5/3 197/5/3
f 201/2/3 196/2/3 195/2/3
f 202/2/3 196/2/3 201/2/3
f 203/5/3 199/5/3 198/5/3
f 204/5/3 199/5/3 203/5/3
f 205/2/3 201/2/3 200/2/3
f 206/2/3 201/2/3 205/2/3
f 207/4/3 204/4/3 203/4/3
f 208/4/3 204/4/3 207/4/3
f 213/5/3 210/5/3 209/5/3
f 214/5/3 210/5/3 213/5/3
f 219/2/3 212/2/3 211/2/3
f 220/2/3 212/2/3 219/2/3
f 227/3/3 216/3/3 215/3/3
f 228/3/3 216/3/3 227/3/3
f 229/1/3 217/1/3 216/1/3
f 229/3/3 216/3/3 228/3/3
f 230/3/3 218/3/3 217/3/3
f 230/1/3 217/1/3 229/1/3
f 231/3/3 218/3/3 230/3/3
f 232/3/3 220/3/3 219/3/3
f 233/1/3 221/1/3 220/1/3
f 233/3/3 220/3/3 232/3/3
f 234/3/3 222/3/3 221/3/3
f 234/1/3 221/1/3 233/1/3
f 235/3/3 222/3/3 234/3/3
f 236/3/3 222/3/3 235/3/3
f 237/1/3 223/1/3 222/1/3
f 237/3/3 222/3/3 236/3/3
f 238/1/3 223/1/3 237/1/3
f 239/5/3 225/5/3 224/5/3
f 240/4/3 226/4/3 225/4/3
f 240/5/3 225/5/3 239/5/3
f 241/4/3 226/4/3 240/4/3
f 242/3/3 227/3/3 215/3/3
f 243/1/3 228/1/3 227/1/3
f 243/3/3 227/3/3 242/3/3
f 244/3/3 229/3/3 228/3/3
f 244/1/3 228/1/3 243/1/3
f 244/3/3 230/3/3 229/3/3
f 245/3/3 230/3/3 244/3/3
f 246/3/3 230/3/3 245/3/3
f 247/1/3 232/1/3 231/1/3
f 248/3/3 233/3/3 232/3/3
f 248/1/3 232/1/3 247/1/3
f 248/3/3 234/3/3 233/3/3
f 248/3/3 235/3/3 234/3/3
f 249/1/3 236/1/3 235/1/3
f 249/3/3 235/3/3 248/3/3
f 250/3/3 238/3/3 237/3/3
f 250/1/3 236/1/3 249/1/3
f 250/3/3 237/3/3 236/3/3
f 251/3/3 238/3/3 250/3/3
f 252/3/3 238/3/3 251/3/3
f 254/5/3 240/5/3 239/5/3
f 255/5/3 240/5/3 254/5/3
f 256/2/3 246/2/3 245/2/3
f 257/2/3 246/2/3 256/2/3
f 258/2/3 251/2/3 250/2/3
f 259/2/3 251/2/3 258/2/3
f 260/5/3 254/5/3 253/5/3
f 260/5/3 253/5/3 252/5/3
f 261/5/3 254/5/3 260/5/3
f 262/5/3 260/5/3 252/5/3
f 263/5/3 260/5/3 262/5/3
f 268/2/3 265/2/3 264/2/3
f 269/2/3 265/2/3 268/2/3
f 270/5/3 267/5/3 266/5/3
f 271/5/3 267/5/3 270/5/3
f 278/4/3 273/4/3 272/4/3
f 279/4/3 273/4/3 278/4/3
f 280/2/3 275/2/3 274/2/3
f 281/2/3 275/2/3 280/2/3
f 282/2/3 277/2/3 276/2/3
f 283/2/3 277/2/3 282/2/3
f 284/4/4 285/4/4 286/4/4
f 286/4/4 285/4/4 287/4/4
f 288/2/4 289/2/4 292/2/4
f 292/2/4 289/2/4 293/2/4
f 290/2/4 291/2/4 294/2/4
f 294/2/4 291/2/4 295/2/4
f 296/4/4 297/4/4 302/4/4
f 302/4/4 297/4/4 303/4/4
f 298/2/4 299/2/4 305/2/4
f 305/2/4 299/2/4 306/2/4
f 300/2/4 301/2/4 309/2/4
f 309/2/4 301/2/4 310/2/4
f 303/5/4 304/5/4 315/5/4
f 315/5/4 304/5/4 316/5/4
f 307/3/4 308/3/4 318/3/4
f 318/3/4 308/3/4 319/3/4
f 308/1/4 309/1/4 320/1/4
f 319/3/4 308/3/4 320/3/4
f 309/3/4 310/3/4 321/3/4
f 320/1/4 309/1/4 321/1/4
f 321/3/4 310/3/4 322/3/4
f 311/3/4 312/3/4 323/3/4
f 312/1/4 313/1/4 324/1/4
f 323/3/4 312/3/4 324/3/4
f 313/3/4 314/3/4 325/3/4
f 324/1/4 313/1/4 325/1/4
f 316/5/4 317/5/4 326/5/4
f 305/3/4 306/3/4 328/3/4
f 328/3/4 306/3/4 329/3/4
f 307/3/4 318/3/4 330/3/4
f 318/1/4 319/1/4 331/1/4
f 330/3/4 318/3/4 331/3/4
f 319/3/4 320/3/4 332/3/4
f 331/1/4 319/1/4 332/1/4
f 321/3/4 322/3/4 332/3/4
f 320/3/4 321/3/4 332/3/4
f 322/1/4 323/1/4 333/1/4
f 332/3/4 322/3/4 333/3/4
f 333/1/4 323/1/4 334/1/4
f 324/3/4 325/3/4 335/3/4
f 325/3/4 314/3/4 336/3/4
f 335/3/4 325/3/4 336/3/4
f 336/3/4 314/3/4 337/3/4
f 316/5/4 326/5/4 339/5/4
f 326/4/4 327/4/4 340/4/4
f 339/5/4 326/5/4 340/5/4
f 340/4/4 327/4/4 341/4/4
f 330/2/4 331/2/4 342/2/4
f 342/2/4 331/2/4 343/2/4
f 335/2/4 336/2/4 344/2/4
f 344/2/4 336/2/4 345/2/4
f 338/5/4 339/5/4 347/5/4
f 347/5/4 339/5/4 348/5/4
f 346/5/4 347/5/4 349/5/4
f 349/5/4 347/5/4 350/5/4
f 351/5/4 352/5/4 357/5/4
f 357/5/4 352/5/4 358/5/4
f 355/2/4 356/2/4 360/2/4
f 360/2/4 356/2/4 361/2/4
f 358/5/4 359/5/4 364/5/4
f 353/2/4 354/2/4 365/2/4
f 365/2/4 354/2/4 366/2/4
f 361/2/4 362/2/4 367/2/4
f 367/2/4 362/2/4 368/2/4
f 363/5/4 364/5/4 369/5/4
f 364/5/4 359/5/4 370/5/4
f 369/5/4 364/5/4 370/5/4
f 370/5/4 359/5/4 371/5/4
f 369/4/4 370/4/4 372/4/4
f 372/4/4 370/4/4 373/4/4
f 374/5/4 375/5/4 376/5/4
f 376/5/4 375/5/4 377/5/4
f 381/3/5 379/3/5 378/3/5
f 382/2/5 381/2/5 380/2/5
f 383/3/5 379/3/5 381/3/5
f 383/2/5 381/2/5 382/2/5
f 384/3/5 379/3/5 383/3/5
f 387/2/5 386/2/5 385/2/5
f 388/2/5 386/2/5 387/2/5
f 391/2/5 390/2/5 389/2/5
f 392/2/5 390/2/5 391/2/5
f 395/2/5 394/2/5 393/2/5
f 396/2/5 394/2/5 395/2/5
f 399/2/5 398/2/5 397/2/5
f 400/2/5 398/2/5 399/2/5
f 403/2/5 402/2/5 401/2/5
f 404/2/5 402/2/5 403/2/5
f 407/2/5 406/2/5 405/2/5
f 408/2/5 407/2/5 405/2/5
f 409/2/5 407/2/5 408/2/5
f 412/2/5 411/2/5 410/2/5
f 413/2/5 411/2/5 412/2/5
f 416/2/5 415/2/5 414/2/5
f 417/2/5 415/2/5 416/2/5
f 420/2/5 419/2/5 418/2/5
f 421/2/5 419/2/5 420/2/5
f 424/2/5 423/2/5 422/2/5
f 425/2/5 423/2/5 424/2/5
f 429/5/5 427/5/5 426/5/5
f 431/5/5 429/5/5 428/5/5
f 432/5/5 427/5/5 429/5/5
f 432/5/5 429/5/5 431/5/5
f 433/5/5 427/5/5 432/5/5
f 434/5/5 427/5/5 433/5/5
f 436/5/5 431/5/5 430/5/5
f 436/5/5 432/5/5 431/5/5
f 437/5/5 432/5/5 436/5/5
f 438/5/5 432/5/5 437/5/5
f 439/4/5 437/4/5 436/4/5
f 440/5/5 438/5/5 437/5/5
f 440/4/5 437/4/5 439/4/5
f 441/5/5 438/5/5 440/5/5
f 442/5/5 435/5/5 434/5/5
f 443/5/5 435/5/5 442/5/5
f 444/5/5 435/5/5 443/5/5
f 445/5/5 441/5/5 440/5/5
f 445/5/5 442/5/5 441/5/5
f 446/5/5 442/5/5 445/5/5
f 447/5/5 442/5/5 446/5/5
f 448/4/5 443/4/5 442/4/5
f 448/5/5 442/5/5 447/5/5
f 449/4/5 443/4/5 448/4/5
f 450/5/5 447/5/5 446/5/5
f 451/5/5 447/5/5 450/5/5
f 452/2/6 453/2/6 454/2/6
f 454/2/6 453/2/6 455/2/6
f 456/2/6 457/2/6 458/2/6
f 458/2/6 457/2/6 459/2/6
f 460/2/6 461/2/6 462/2/6
f 462/2/6 461/2/6 463/2/6
f 464/2/6 465/2/6 466/2/6
f 466/2/6 465/2/6 467/2/6
f 468/2/6 469/2/6 470/2/6
f 470/2/6 469/2/6 471/2/6
f 472/2/6 473/2/6 474/2/6
f 474/2/6 473/2/6 475/2/6
f 476/2/6 477/2/6 478/2/6
f 476/2/6 478/2/6 479/2/6
f 479/2/6 478/2/6 480/2/6
f 481/2/6 482/2/6 483/2/6
f 483/2/6 482/2/6 484/2/6
f 485/2/6 486/2/6 487/2/6
f 487/2/6 486/2/6 488/2/6
f 489/2/6 490/2/6 491/2/6
f 491/2/6 490/2/6 492/2/6
f 493/2/6 494/2/6 495/2/6
f 495/2/6 494/2/6 496/2/6
f 497/5/6 498/5/6 500/5/6
f 500/5/6 498/5/6 501/5/6
f 501/5/6 498/5/6 502/5/6
f 499/5/6 500/5/6 504/5/6
f 503/5/6 504/5/6 507/5/6
f 504/5/6 500/5/6 508/5/6
f 507/5/6 504/5/6 508/5/6
f 508/5/6 500/5/6 509/5/6
f 507/4/6 508/4/6 510/4/6
f 510/4/6 508/4/6 511/4/6
f 505/5/6 506/5/6 514/5/6
f 514/5/6 506/5/6 515/5/6
f 511/5/6 512/5/6 516/5/6
f 516/5/6 512/5/6 517/5/6
f 513/4/6 514/4/6 519/4/6
f 519/4/6 514/4/6 520/4/6
f 517/5/6 518/5/6 521/5/6
f 521/5/6 518/5/6 522/5/6
f 523/5/6 524/5/6 526/5/6
f 524/4/6 525/4/6 527/4/6
f 526/5/6 524/5/6 527/5/6
f 527/4/6 525/4/6 528/4/6
f 530/5/6 531/5/6 532/5/6
f 532/5/6 531/5/6 533/5/6
f 528/5/6 529/5/6 534/5/6
f 534/5/6 529/5/6 535/5/6
f 533/5/6 534/5/6 536/5/6
f 536/5/6 534/5/6 537/5/6
f 538/5/6 539/5/6 541/5/6
f 541/5/6 539/5/6 542/5/6
f 540/5/6 541/5/6 543/5/6
f 543/5/6 541/5/6 544/5/6
f 545/4/6 546/4/6 547/4/6
f 547/4/6 546/4/6 548/4/6
f 548/4/6 549/4/6 550/4/6
f 550/4/6 549/4/6 551/4/6
