# MagicaVoxel @ Ephtracy

# group
o 

# material
mtllib Projectile_Carro_Presente.mtl
usemtl palette

# normals
vn -1 0 0
vn 1 0 0
vn 0 0 1
vn 0 0 -1
vn 0 -1 0
vn 0 1 0

# texcoords
vt 0.705078 0.5
vt 0.794922 0.5
vt 0.900391 0.5
vt 0.962891 0.5
vt 0.974609 0.5

# verts
v 0.2 2.2 -1.3
v 0.2 2.2 -1.5
v 0.2 2.4 -1.3
v 0.2 2.4 -1.5
v 0.3 2.1 -1.3
v 0.3 2.1 -1.5
v 0.3 2.2 -1.2
v 0.3 2.2 -1.3
v 0.3 2.2 -1.5
v 0.3 2.2 -1.6
v 0.3 2.4 -1.2
v 0.3 2.4 -1.3
v 0.3 2.4 -1.5
v 0.3 2.4 -1.6
v 0.3 2.5 -1.3
v 0.3 2.5 -1.5
v 0.5 2 -1.3
v 0.5 2 -1.4
v 0.5 2 -1.5
v 0.5 2.1 -1.2
v 0.5 2.1 -1.3
v 0.5 2.1 -1.4
v 0.5 2.1 -1.5
v 0.5 2.1 -1.6
v 0.5 2.2 -1.1
v 0.5 2.2 -1.2
v 0.5 2.2 -1.3
v 0.5 2.2 -1.5
v 0.5 2.2 -1.6
v 0.5 2.2 -1.7
v 0.5 2.3 -1.1
v 0.5 2.3 -1.2
v 0.5 2.3 -1.6
v 0.5 2.3 -1.7
v 0.5 2.4 -1.1
v 0.5 2.4 -1.2
v 0.5 2.4 -1.3
v 0.5 2.4 -1.5
v 0.5 2.4 -1.6
v 0.5 2.4 -1.7
v 0.5 2.5 -1.2
v 0.5 2.5 -1.3
v 0.5 2.5 -1.4
v 0.5 2.5 -1.5
v 0.5 2.5 -1.6
v 0.5 2.6 -1.3
v 0.5 2.6 -1.4
v 0.5 2.6 -1.5
v 0.9 2 -1.3
v 0.9 2 -1.5
v 0.9 2.1 -1.3
v 0.9 2.1 -1.5
v 0.9 2.2 -1.1
v 0.9 2.2 -1.2
v 0.9 2.2 -1.6
v 0.9 2.2 -1.7
v 0.9 2.4 -1.1
v 0.9 2.4 -1.2
v 0.9 2.4 -1.6
v 0.9 2.4 -1.7
v 0.9 2.5 -1.3
v 0.9 2.5 -1.5
v 0.9 2.6 -1.3
v 0.9 2.6 -1.5
v 0.8 2 -1.3
v 0.8 2 -1.5
v 0.8 2.1 -1.2
v 0.8 2.1 -1.3
v 0.8 2.1 -1.5
v 0.8 2.1 -1.6
v 0.8 2.2 -1.1
v 0.8 2.2 -1.2
v 0.8 2.2 -1.3
v 0.8 2.2 -1.5
v 0.8 2.2 -1.6
v 0.8 2.2 -1.7
v 0.8 2.3 -1.6
v 0.8 2.3 -1.7
v 0.8 2.4 -1.1
v 0.8 2.4 -1.2
v 0.8 2.4 -1.3
v 0.8 2.4 -1.5
v 0.8 2.4 -1.6
v 0.8 2.4 -1.7
v 0.8 2.5 -1.2
v 0.8 2.5 -1.3
v 0.8 2.5 -1.4
v 0.8 2.5 -1.5
v 0.8 2.5 -1.6
v 0.8 2.6 -1.3
v 0.8 2.6 -1.4
v 0.8 2.6 -1.5
v 1 2 -1.3
v 1 2 -1.5
v 1 2.1 -1.3
v 1 2.1 -1.4
v 1 2.1 -1.5
v 1 2.2 -1.1
v 1 2.2 -1.2
v 1 2.2 -1.6
v 1 2.2 -1.7
v 1 2.3 -1.2
v 1 2.3 -1.6
v 1 2.4 -1.1
v 1 2.4 -1.2
v 1 2.4 -1.6
v 1 2.4 -1.7
v 1 2.5 -1.3
v 1 2.5 -1.4
v 1 2.5 -1.5
v 1 2.6 -1.3
v 1 2.6 -1.5
v 1.1 2.1 -1.3
v 1.1 2.1 -1.4
v 1.1 2.1 -1.5
v 1.1 2.2 -1.2
v 1.1 2.2 -1.3
v 1.1 2.2 -1.4
v 1.1 2.2 -1.5
v 1.1 2.2 -1.6
v 1.1 2.3 -1.2
v 1.1 2.3 -1.3
v 1.1 2.3 -1.5
v 1.1 2.3 -1.6
v 1.1 2.4 -1.2
v 1.1 2.4 -1.3
v 1.1 2.4 -1.4
v 1.1 2.4 -1.5
v 1.1 2.4 -1.6
v 1.1 2.5 -1.3
v 1.1 2.5 -1.4
v 1.1 2.5 -1.5
v 1.2 2.2 -1.3
v 1.2 2.2 -1.4
v 1.2 2.2 -1.5
v 1.2 2.3 -1.3
v 1.2 2.3 -1.4
v 1.2 2.4 -1.3
v 1.2 2.4 -1.5
v 0.5 2.2 -1.1
v 0.5 2.3 -1.1
v 0.5 2.4 -1.1
v 0.6 2.2 -1.1
v 0.6 2.3 -1.1
v 0.8 2.2 -1.1
v 0.8 2.4 -1.1
v 0.9 2.2 -1.1
v 0.9 2.4 -1.1
v 1 2.2 -1.1
v 1 2.4 -1.1
v 0.3 2.2 -1.2
v 0.3 2.4 -1.2
v 0.5 2.1 -1.2
v 0.5 2.2 -1.2
v 0.5 2.3 -1.2
v 0.5 2.4 -1.2
v 0.5 2.5 -1.2
v 0.6 2.2 -1.2
v 0.7 2.1 -1.2
v 0.7 2.2 -1.2
v 0.7 2.4 -1.2
v 0.7 2.5 -1.2
v 0.8 2.1 -1.2
v 0.8 2.2 -1.2
v 0.8 2.4 -1.2
v 0.8 2.5 -1.2
v 0.9 2.2 -1.2
v 0.9 2.4 -1.2
v 1 2.2 -1.2
v 1 2.3 -1.2
v 1 2.4 -1.2
v 1.1 2.2 -1.2
v 1.1 2.3 -1.2
v 1.1 2.4 -1.2
v 0.2 2.2 -1.3
v 0.2 2.4 -1.3
v 0.3 2.1 -1.3
v 0.3 2.2 -1.3
v 0.3 2.4 -1.3
v 0.3 2.5 -1.3
v 0.5 2 -1.3
v 0.5 2.1 -1.3
v 0.5 2.2 -1.3
v 0.5 2.4 -1.3
v 0.5 2.5 -1.3
v 0.5 2.6 -1.3
v 0.6 2.5 -1.3
v 0.6 2.6 -1.3
v 0.7 2.1 -1.3
v 0.7 2.5 -1.3
v 0.8 2 -1.3
v 0.8 2.1 -1.3
v 0.8 2.2 -1.3
v 0.8 2.4 -1.3
v 0.8 2.5 -1.3
v 0.8 2.6 -1.3
v 0.9 2 -1.3
v 0.9 2.1 -1.3
v 0.9 2.5 -1.3
v 0.9 2.6 -1.3
v 1 2 -1.3
v 1 2.1 -1.3
v 1 2.2 -1.3
v 1 2.4 -1.3
v 1 2.5 -1.3
v 1 2.6 -1.3
v 1.1 2.1 -1.3
v 1.1 2.2 -1.3
v 1.1 2.3 -1.3
v 1.1 2.4 -1.3
v 1.1 2.5 -1.3
v 1.2 2.2 -1.3
v 1.2 2.3 -1.3
v 1.2 2.4 -1.3
v 0.2 2.2 -1.5
v 0.2 2.4 -1.5
v 0.3 2.1 -1.5
v 0.3 2.2 -1.5
v 0.3 2.4 -1.5
v 0.3 2.5 -1.5
v 0.5 2 -1.5
v 0.5 2.1 -1.5
v 0.5 2.2 -1.5
v 0.5 2.4 -1.5
v 0.5 2.5 -1.5
v 0.5 2.6 -1.5
v 0.6 2 -1.5
v 0.6 2.1 -1.5
v 0.6 2.5 -1.5
v 0.7 2.1 -1.5
v 0.7 2.5 -1.5
v 0.7 2.6 -1.5
v 0.8 2 -1.5
v 0.8 2.1 -1.5
v 0.8 2.2 -1.5
v 0.8 2.4 -1.5
v 0.8 2.5 -1.5
v 0.8 2.6 -1.5
v 0.9 2 -1.5
v 0.9 2.1 -1.5
v 0.9 2.5 -1.5
v 0.9 2.6 -1.5
v 1 2 -1.5
v 1 2.1 -1.5
v 1 2.2 -1.5
v 1 2.4 -1.5
v 1 2.5 -1.5
v 1 2.6 -1.5
v 1.1 2.1 -1.5
v 1.1 2.2 -1.5
v 1.1 2.3 -1.5
v 1.1 2.4 -1.5
v 1.1 2.5 -1.5
v 1.2 2.2 -1.5
v 1.2 2.4 -1.5
v 0.3 2.2 -1.6
v 0.3 2.4 -1.6
v 0.5 2.1 -1.6
v 0.5 2.2 -1.6
v 0.5 2.3 -1.6
v 0.5 2.4 -1.6
v 0.5 2.5 -1.6
v 0.6 2.2 -1.6
v 0.6 2.4 -1.6
v 0.6 2.5 -1.6
v 0.7 2.1 -1.6
v 0.7 2.2 -1.6
v 0.7 2.4 -1.6
v 0.8 2.1 -1.6
v 0.8 2.2 -1.6
v 0.8 2.3 -1.6
v 0.8 2.4 -1.6
v 0.8 2.5 -1.6
v 0.9 2.2 -1.6
v 0.9 2.4 -1.6
v 1 2.2 -1.6
v 1 2.3 -1.6
v 1 2.4 -1.6
v 1.1 2.2 -1.6
v 1.1 2.3 -1.6
v 1.1 2.4 -1.6
v 0.5 2.2 -1.7
v 0.5 2.3 -1.7
v 0.5 2.4 -1.7
v 0.6 2.2 -1.7
v 0.6 2.3 -1.7
v 0.7 2.3 -1.7
v 0.7 2.4 -1.7
v 0.8 2.2 -1.7
v 0.8 2.3 -1.7
v 0.8 2.4 -1.7
v 0.9 2.2 -1.7
v 0.9 2.4 -1.7
v 1 2.2 -1.7
v 1 2.4 -1.7
v 0.5 2 -1.3
v 0.8 2 -1.3
v 0.9 2 -1.3
v 1 2 -1.3
v 0.5 2 -1.4
v 0.6 2 -1.4
v 0.5 2 -1.5
v 0.6 2 -1.5
v 0.8 2 -1.5
v 0.9 2 -1.5
v 1 2 -1.5
v 0.5 2.1 -1.2
v 0.7 2.1 -1.2
v 0.8 2.1 -1.2
v 0.3 2.1 -1.3
v 0.5 2.1 -1.3
v 0.7 2.1 -1.3
v 0.8 2.1 -1.3
v 0.9 2.1 -1.3
v 1 2.1 -1.3
v 1.1 2.1 -1.3
v 0.5 2.1 -1.4
v 1 2.1 -1.4
v 1.1 2.1 -1.4
v 0.3 2.1 -1.5
v 0.5 2.1 -1.5
v 0.6 2.1 -1.5
v 0.7 2.1 -1.5
v 0.8 2.1 -1.5
v 0.9 2.1 -1.5
v 1 2.1 -1.5
v 1.1 2.1 -1.5
v 0.5 2.1 -1.6
v 0.7 2.1 -1.6
v 0.8 2.1 -1.6
v 0.5 2.2 -1.1
v 0.6 2.2 -1.1
v 0.8 2.2 -1.1
v 0.9 2.2 -1.1
v 1 2.2 -1.1
v 0.3 2.2 -1.2
v 0.5 2.2 -1.2
v 0.6 2.2 -1.2
v 0.7 2.2 -1.2
v 0.8 2.2 -1.2
v 0.9 2.2 -1.2
v 1 2.2 -1.2
v 1.1 2.2 -1.2
v 0.2 2.2 -1.3
v 0.3 2.2 -1.3
v 0.5 2.2 -1.3
v 0.8 2.2 -1.3
v 1 2.2 -1.3
v 1.1 2.2 -1.3
v 1.2 2.2 -1.3
v 1.1 2.2 -1.4
v 1.2 2.2 -1.4
v 0.2 2.2 -1.5
v 0.3 2.2 -1.5
v 0.5 2.2 -1.5
v 0.8 2.2 -1.5
v 1 2.2 -1.5
v 1.1 2.2 -1.5
v 1.2 2.2 -1.5
v 0.3 2.2 -1.6
v 0.5 2.2 -1.6
v 0.6 2.2 -1.6
v 0.7 2.2 -1.6
v 0.8 2.2 -1.6
v 0.9 2.2 -1.6
v 1 2.2 -1.6
v 1.1 2.2 -1.6
v 0.5 2.2 -1.7
v 0.6 2.2 -1.7
v 0.8 2.2 -1.7
v 0.9 2.2 -1.7
v 1 2.2 -1.7
v 0.5 2.4 -1.1
v 0.8 2.4 -1.1
v 0.9 2.4 -1.1
v 1 2.4 -1.1
v 0.3 2.4 -1.2
v 0.5 2.4 -1.2
v 0.7 2.4 -1.2
v 0.8 2.4 -1.2
v 0.9 2.4 -1.2
v 1 2.4 -1.2
v 1.1 2.4 -1.2
v 0.2 2.4 -1.3
v 0.3 2.4 -1.3
v 0.5 2.4 -1.3
v 0.8 2.4 -1.3
v 1 2.4 -1.3
v 1.1 2.4 -1.3
v 1.2 2.4 -1.3
v 1.1 2.4 -1.4
v 0.2 2.4 -1.5
v 0.3 2.4 -1.5
v 0.5 2.4 -1.5
v 0.8 2.4 -1.5
v 1 2.4 -1.5
v 1.1 2.4 -1.5
v 1.2 2.4 -1.5
v 0.3 2.4 -1.6
v 0.5 2.4 -1.6
v 0.6 2.4 -1.6
v 0.7 2.4 -1.6
v 0.8 2.4 -1.6
v 0.9 2.4 -1.6
v 1 2.4 -1.6
v 1.1 2.4 -1.6
v 0.5 2.4 -1.7
v 0.7 2.4 -1.7
v 0.8 2.4 -1.7
v 0.9 2.4 -1.7
v 1 2.4 -1.7
v 0.5 2.5 -1.2
v 0.7 2.5 -1.2
v 0.8 2.5 -1.2
v 0.3 2.5 -1.3
v 0.5 2.5 -1.3
v 0.6 2.5 -1.3
v 0.7 2.5 -1.3
v 0.8 2.5 -1.3
v 0.9 2.5 -1.3
v 1 2.5 -1.3
v 1.1 2.5 -1.3
v 0.5 2.5 -1.4
v 0.8 2.5 -1.4
v 1 2.5 -1.4
v 1.1 2.5 -1.4
v 0.3 2.5 -1.5
v 0.5 2.5 -1.5
v 0.6 2.5 -1.5
v 0.7 2.5 -1.5
v 0.8 2.5 -1.5
v 0.9 2.5 -1.5
v 1 2.5 -1.5
v 1.1 2.5 -1.5
v 0.5 2.5 -1.6
v 0.6 2.5 -1.6
v 0.8 2.5 -1.6
v 0.5 2.6 -1.3
v 0.6 2.6 -1.3
v 0.8 2.6 -1.3
v 0.9 2.6 -1.3
v 1 2.6 -1.3
v 0.5 2.6 -1.4
v 0.6 2.6 -1.4
v 0.7 2.6 -1.4
v 0.8 2.6 -1.4
v 0.5 2.6 -1.5
v 0.7 2.6 -1.5
v 0.8 2.6 -1.5
v 0.9 2.6 -1.5
v 1 2.6 -1.5

# faces
f 3/2/1 2/2/1 1/2/1
f 4/2/1 2/2/1 3/2/1
f 8/5/1 6/5/1 5/5/1
f 9/5/1 6/5/1 8/5/1
f 11/5/1 8/5/1 7/5/1
f 12/5/1 8/5/1 11/5/1
f 13/5/1 10/5/1 9/5/1
f 14/5/1 10/5/1 13/5/1
f 15/5/1 13/5/1 12/5/1
f 16/5/1 13/5/1 15/5/1
f 21/3/1 18/3/1 17/3/1
f 22/2/1 19/2/1 18/2/1
f 22/3/1 18/3/1 21/3/1
f 23/2/1 19/2/1 22/2/1
f 26/3/1 21/3/1 20/3/1
f 27/3/1 21/3/1 26/3/1
f 28/3/1 24/3/1 23/3/1
f 29/3/1 24/3/1 28/3/1
f 31/2/1 26/2/1 25/2/1
f 32/2/1 26/2/1 31/2/1
f 33/2/1 30/2/1 29/2/1
f 34/2/1 30/2/1 33/2/1
f 35/3/1 32/3/1 31/3/1
f 36/3/1 32/3/1 35/3/1
f 39/3/1 34/3/1 33/3/1
f 40/3/1 34/3/1 39/3/1
f 41/3/1 37/3/1 36/3/1
f 42/3/1 37/3/1 41/3/1
f 44/2/1 39/2/1 38/2/1
f 45/2/1 39/2/1 44/2/1
f 46/2/1 43/2/1 42/2/1
f 47/3/1 44/3/1 43/3/1
f 47/2/1 43/2/1 46/2/1
f 48/3/1 44/3/1 47/3/1
f 51/5/1 50/5/1 49/5/1
f 52/5/1 50/5/1 51/5/1
f 57/5/1 54/5/1 53/5/1
f 58/5/1 54/5/1 57/5/1
f 59/5/1 56/5/1 55/5/1
f 60/5/1 56/5/1 59/5/1
f 63/5/1 62/5/1 61/5/1
f 64/5/1 62/5/1 63/5/1
f 65/3/2 66/3/2 68/3/2
f 68/3/2 66/3/2 69/3/2
f 67/2/2 68/2/2 72/2/2
f 72/2/2 68/2/2 73/2/2
f 69/2/2 70/2/2 74/2/2
f 74/2/2 70/2/2 75/2/2
f 75/3/2 76/3/2 77/3/2
f 77/3/2 76/3/2 78/3/2
f 71/3/2 72/3/2 79/3/2
f 79/3/2 72/3/2 80/3/2
f 77/2/2 78/2/2 83/2/2
f 83/2/2 78/2/2 84/2/2
f 80/2/2 81/2/2 85/2/2
f 85/2/2 81/2/2 86/2/2
f 82/3/2 83/3/2 88/3/2
f 88/3/2 83/3/2 89/3/2
f 86/3/2 87/3/2 90/3/2
f 87/2/2 88/2/2 91/2/2
f 90/3/2 87/3/2 91/3/2
f 91/2/2 88/2/2 92/2/2
f 93/5/2 94/5/2 95/5/2
f 95/5/2 94/5/2 96/5/2
f 96/5/2 94/5/2 97/5/2
f 98/5/2 99/5/2 102/5/2
f 100/5/2 101/5/2 103/5/2
f 98/5/2 102/5/2 104/5/2
f 104/5/2 102/5/2 105/5/2
f 103/5/2 101/5/2 106/5/2
f 106/5/2 101/5/2 107/5/2
f 108/5/2 109/5/2 111/5/2
f 109/5/2 110/5/2 111/5/2
f 111/5/2 110/5/2 112/5/2
f 113/3/2 114/3/2 117/3/2
f 114/2/2 115/2/2 118/2/2
f 117/3/2 114/3/2 118/3/2
f 118/2/2 115/2/2 119/2/2
f 116/3/2 117/3/2 121/3/2
f 121/3/2 117/3/2 122/3/2
f 119/2/2 120/2/2 123/2/2
f 123/2/2 120/2/2 124/2/2
f 121/2/2 122/2/2 125/2/2
f 125/2/2 122/2/2 126/2/2
f 123/3/2 124/3/2 128/3/2
f 128/3/2 124/3/2 129/3/2
f 126/3/2 127/3/2 130/3/2
f 127/2/2 128/2/2 131/2/2
f 130/3/2 127/3/2 131/3/2
f 131/2/2 128/2/2 132/2/2
f 133/2/2 134/2/2 136/2/2
f 134/3/2 135/3/2 137/3/2
f 136/2/2 134/2/2 137/2/2
f 136/3/2 137/3/2 138/3/2
f 137/3/2 135/3/2 139/3/2
f 138/3/2 137/3/2 139/3/2
f 143/2/3 141/2/3 140/2/3
f 144/3/3 142/3/3 141/3/3
f 144/2/3 141/2/3 143/2/3
f 145/3/3 144/3/3 143/3/3
f 146/3/3 142/3/3 144/3/3
f 146/3/3 144/3/3 145/3/3
f 149/5/3 148/5/3 147/5/3
f 150/5/3 148/5/3 149/5/3
f 154/5/3 152/5/3 151/5/3
f 155/5/3 152/5/3 154/5/3
f 156/5/3 152/5/3 155/5/3
f 158/3/3 154/3/3 153/3/3
f 159/3/3 158/3/3 153/3/3
f 160/3/3 158/3/3 159/3/3
f 161/3/3 157/3/3 156/3/3
f 162/3/3 157/3/3 161/3/3
f 163/2/3 160/2/3 159/2/3
f 164/2/3 160/2/3 163/2/3
f 165/2/3 162/2/3 161/2/3
f 166/2/3 162/2/3 165/2/3
f 167/5/3 165/5/3 164/5/3
f 168/5/3 165/5/3 167/5/3
f 172/3/3 170/3/3 169/3/3
f 173/2/3 171/2/3 170/2/3
f 173/3/3 170/3/3 172/3/3
f 174/2/3 171/2/3 173/2/3
f 178/2/3 176/2/3 175/2/3
f 179/2/3 176/2/3 178/2/3
f 182/5/3 178/5/3 177/5/3
f 183/5/3 178/5/3 182/5/3
f 184/5/3 180/5/3 179/5/3
f 185/5/3 180/5/3 184/5/3
f 187/2/3 186/2/3 185/2/3
f 188/2/3 186/2/3 187/2/3
f 189/3/3 182/3/3 181/3/3
f 190/3/3 188/3/3 187/3/3
f 191/3/3 189/3/3 181/3/3
f 192/3/3 189/3/3 191/3/3
f 195/3/3 188/3/3 190/3/3
f 196/3/3 188/3/3 195/3/3
f 198/5/3 193/5/3 192/5/3
f 199/5/3 195/5/3 194/5/3
f 201/5/3 198/5/3 197/5/3
f 202/5/3 193/5/3 198/5/3
f 202/5/3 198/5/3 201/5/3
f 203/5/3 193/5/3 202/5/3
f 204/5/3 200/5/3 199/5/3
f 204/5/3 199/5/3 194/5/3
f 205/5/3 200/5/3 204/5/3
f 206/5/3 200/5/3 205/5/3
f 207/3/3 203/3/3 202/3/3
f 208/3/3 203/3/3 207/3/3
f 210/3/3 205/3/3 204/3/3
f 211/3/3 205/3/3 210/3/3
f 212/2/3 209/2/3 208/2/3
f 213/3/3 210/3/3 209/3/3
f 213/2/3 209/2/3 212/2/3
f 214/3/3 210/3/3 213/3/3
f 215/2/4 216/2/4 218/2/4
f 218/2/4 216/2/4 219/2/4
f 217/5/4 218/5/4 222/5/4
f 222/5/4 218/5/4 223/5/4
f 219/5/4 220/5/4 224/5/4
f 224/5/4 220/5/4 225/5/4
f 221/2/4 222/2/4 227/2/4
f 227/2/4 222/2/4 228/2/4
f 225/3/4 226/3/4 229/3/4
f 227/3/4 228/3/4 230/3/4
f 229/3/4 226/3/4 231/3/4
f 231/3/4 226/3/4 232/3/4
f 227/3/4 230/3/4 233/3/4
f 233/3/4 230/3/4 234/3/4
f 231/2/4 232/2/4 237/2/4
f 237/2/4 232/2/4 238/2/4
f 234/5/4 235/5/4 240/5/4
f 236/5/4 237/5/4 241/5/4
f 239/5/4 240/5/4 243/5/4
f 240/5/4 235/5/4 244/5/4
f 243/5/4 240/5/4 244/5/4
f 244/5/4 235/5/4 245/5/4
f 241/5/4 242/5/4 246/5/4
f 236/5/4 241/5/4 246/5/4
f 246/5/4 242/5/4 247/5/4
f 247/5/4 242/5/4 248/5/4
f 244/2/4 245/2/4 249/2/4
f 249/2/4 245/2/4 250/2/4
f 246/2/4 247/2/4 252/2/4
f 252/2/4 247/2/4 253/2/4
f 250/3/4 251/3/4 254/3/4
f 251/3/4 252/3/4 254/3/4
f 254/3/4 252/3/4 255/3/4
f 256/5/4 257/5/4 259/5/4
f 259/5/4 257/5/4 260/5/4
f 260/5/4 257/5/4 261/5/4
f 258/3/4 259/3/4 263/3/4
f 261/2/4 262/2/4 264/2/4
f 264/2/4 262/2/4 265/2/4
f 258/3/4 263/3/4 266/3/4
f 266/3/4 263/3/4 267/3/4
f 264/3/4 265/3/4 268/3/4
f 266/2/4 267/2/4 269/2/4
f 269/2/4 267/2/4 270/2/4
f 268/3/4 265/3/4 272/3/4
f 272/3/4 265/3/4 273/3/4
f 270/5/4 271/5/4 274/5/4
f 271/5/4 272/5/4 274/5/4
f 274/5/4 272/5/4 275/5/4
f 276/2/4 277/2/4 279/2/4
f 277/3/4 278/3/4 280/3/4
f 279/2/4 277/2/4 280/2/4
f 280/3/4 278/3/4 281/3/4
f 282/2/4 283/2/4 285/2/4
f 283/3/4 284/3/4 286/3/4
f 285/2/4 283/2/4 286/2/4
f 285/3/4 286/3/4 287/3/4
f 286/3/4 284/3/4 287/3/4
f 287/3/4 284/3/4 288/3/4
f 285/3/4 287/3/4 289/3/4
f 287/2/4 288/2/4 290/2/4
f 289/3/4 287/3/4 290/3/4
f 290/2/4 288/2/4 291/2/4
f 292/5/4 293/5/4 294/5/4
f 294/5/4 293/5/4 295/5/4
f 300/3/5 297/3/5 296/3/5
f 301/3/5 297/3/5 300/3/5
f 302/2/5 301/2/5 300/2/5
f 303/3/5 297/3/5 301/3/5
f 303/2/5 301/2/5 302/2/5
f 304/3/5 297/3/5 303/3/5
f 305/5/5 299/5/5 298/5/5
f 306/5/5 299/5/5 305/5/5
f 311/3/5 308/3/5 307/3/5
f 312/2/5 309/2/5 308/2/5
f 312/3/5 308/3/5 311/3/5
f 313/2/5 309/2/5 312/2/5
f 317/5/5 311/5/5 310/5/5
f 318/3/5 316/3/5 315/3/5
f 319/3/5 316/3/5 318/3/5
f 320/5/5 317/5/5 310/5/5
f 321/5/5 317/5/5 320/5/5
f 324/5/5 314/5/5 313/5/5
f 325/5/5 314/5/5 324/5/5
f 326/2/5 319/2/5 318/2/5
f 327/2/5 319/2/5 326/2/5
f 328/3/5 323/3/5 322/3/5
f 328/3/5 322/3/5 321/3/5
f 329/2/5 324/2/5 323/2/5
f 329/3/5 323/3/5 328/3/5
f 330/2/5 324/2/5 329/2/5
f 337/2/5 332/2/5 331/2/5
f 338/3/5 333/3/5 332/3/5
f 338/2/5 332/2/5 337/2/5
f 339/3/5 333/3/5 338/3/5
f 340/3/5 333/3/5 339/3/5
f 341/5/5 335/5/5 334/5/5
f 342/5/5 335/5/5 341/5/5
f 345/5/5 337/5/5 336/5/5
f 346/5/5 337/5/5 345/5/5
f 347/5/5 342/5/5 341/5/5
f 347/5/5 341/5/5 340/5/5
f 348/3/5 343/3/5 342/3/5
f 348/5/5 342/5/5 347/5/5
f 349/3/5 343/3/5 348/3/5
f 351/2/5 350/2/5 349/2/5
f 352/2/5 350/2/5 351/2/5
f 353/2/5 345/2/5 344/2/5
f 354/2/5 345/2/5 353/2/5
f 358/3/5 352/3/5 351/3/5
f 359/3/5 352/3/5 358/3/5
f 360/5/5 355/5/5 354/5/5
f 361/5/5 355/5/5 360/5/5
f 364/5/5 357/5/5 356/5/5
f 365/5/5 357/5/5 364/5/5
f 366/2/5 358/2/5 357/2/5
f 366/5/5 357/5/5 365/5/5
f 367/2/5 358/2/5 366/2/5
f 368/2/5 362/2/5 361/2/5
f 369/3/5 363/3/5 362/3/5
f 369/2/5 362/2/5 368/2/5
f 369/3/5 364/3/5 363/3/5
f 370/3/5 364/3/5 369/3/5
f 371/5/5 366/5/5 365/5/5
f 372/5/5 366/5/5 371/5/5
f 373/3/6 374/3/6 378/3/6
f 378/3/6 374/3/6 379/3/6
f 379/3/6 374/3/6 380/3/6
f 375/5/6 376/5/6 381/5/6
f 381/5/6 376/5/6 382/5/6
f 377/5/6 378/5/6 385/5/6
f 385/5/6 378/5/6 386/5/6
f 380/5/6 381/5/6 387/5/6
f 381/5/6 382/5/6 387/5/6
f 382/2/6 383/2/6 388/2/6
f 387/5/6 382/5/6 388/5/6
f 388/2/6 383/2/6 389/2/6
f 389/3/6 390/3/6 391/3/6
f 384/2/6 385/2/6 392/2/6
f 392/2/6 385/2/6 393/2/6
f 391/3/6 390/3/6 397/3/6
f 397/3/6 390/3/6 398/3/6
f 393/5/6 394/5/6 399/5/6
f 399/5/6 394/5/6 400/5/6
f 395/5/6 396/5/6 403/5/6
f 403/5/6 396/5/6 404/5/6
f 396/3/6 397/3/6 405/3/6
f 404/5/6 396/5/6 405/5/6
f 405/3/6 397/3/6 406/3/6
f 401/3/6 402/3/6 407/3/6
f 400/3/6 401/3/6 407/3/6
f 402/2/6 403/2/6 408/2/6
f 407/3/6 402/3/6 408/3/6
f 408/2/6 403/2/6 409/2/6
f 404/5/6 405/5/6 410/5/6
f 410/5/6 405/5/6 411/5/6
f 412/3/6 413/3/6 416/3/6
f 416/3/6 413/3/6 417/3/6
f 413/2/6 414/2/6 418/2/6
f 417/3/6 413/3/6 418/3/6
f 418/2/6 414/2/6 419/2/6
f 415/5/6 416/5/6 423/5/6
f 419/5/6 420/5/6 424/5/6
f 421/3/6 422/3/6 425/3/6
f 425/3/6 422/3/6 426/3/6
f 415/5/6 423/5/6 427/5/6
f 427/5/6 423/5/6 428/5/6
f 424/5/6 420/5/6 431/5/6
f 431/5/6 420/5/6 432/5/6
f 425/2/6 426/2/6 433/2/6
f 433/2/6 426/2/6 434/2/6
f 428/2/6 429/2/6 435/2/6
f 429/3/6 430/3/6 436/3/6
f 435/2/6 429/2/6 436/2/6
f 430/3/6 431/3/6 436/3/6
f 436/3/6 431/3/6 437/3/6
f 438/2/6 439/2/6 443/2/6
f 439/3/6 440/3/6 444/3/6
f 443/2/6 439/2/6 444/2/6
f 444/3/6 440/3/6 445/3/6
f 445/3/6 440/3/6 446/3/6
f 443/3/6 444/3/6 447/3/6
f 444/3/6 445/3/6 447/3/6
f 445/2/6 446/2/6 448/2/6
f 447/3/6 445/3/6 448/3/6
f 448/2/6 446/2/6 449/2/6
f 441/5/6 442/5/6 450/5/6
f 450/5/6 442/5/6 451/5/6
