# MagicaVoxel @ Ephtracy

# group
o 

# material
mtllib Projectile_Tank_Presente.mtl
usemtl palette

# normals
vn -1 0 0
vn 1 0 0
vn 0 0 1
vn 0 0 -1
vn 0 -1 0
vn 0 1 0

# texcoords
vt 0.0449219 0.5
vt 0.0683594 0.5
vt 0.912109 0.5

# verts
v 0 0.8 -0.4
v 0 0.8 -0.6
v 0 0.8 -0.7
v 0 0.8 -1.4
v 0 0.8 -1.5
v 0 0.9 -1.5
v 0 0.9 -1.6
v 0 1 -0.8
v 0 1 -0.9
v 0 1 -1.2
v 0 1 -1.3
v 0 1 -1.5
v 0 1 -1.6
v 0 1.1 -0.4
v 0 1.1 -0.6
v 0 1.1 -0.7
v 0 1.1 -0.8
v 0 1.1 -0.9
v 0 1.1 -1.2
v 0 1.1 -1.3
v 0 1.1 -1.4
v 0 1.1 -1.6
v 0.1 0.8 -1.5
v 0.1 0.8 -1.6
v 0.1 0.9 -0.2
v 0.1 0.9 -0.4
v 0.1 0.9 -1.5
v 0.1 0.9 -1.6
v 0.1 1 -0.2
v 0.1 1 -0.4
v 0.2 0.9 -0.5
v 0.2 0.9 -0.6
v 0.2 0.9 -0.7
v 0.2 0.9 -0.8
v 0.2 0.9 -0.9
v 0.2 0.9 -1.2
v 0.2 0.9 -1.3
v 0.2 0.9 -1.4
v 0.2 0.9 -1.5
v 0.2 1 -0.5
v 0.2 1 -0.6
v 0.2 1 -0.7
v 0.2 1 -0.8
v 0.2 1 -0.9
v 0.2 1 -1.2
v 0.2 1 -1.3
v 0.2 1 -1.4
v 0.2 1 -1.5
v 0.1 0.9 -0.5
v 0.1 0.9 -0.6
v 0.1 0.9 -0.7
v 0.1 0.9 -0.8
v 0.1 0.9 -0.9
v 0.1 0.9 -1.2
v 0.1 0.9 -1.3
v 0.1 0.9 -1.4
v 0.1 0.9 -1.5
v 0.1 1 -0.5
v 0.1 1 -0.6
v 0.1 1 -0.7
v 0.1 1 -0.8
v 0.1 1 -0.9
v 0.1 1 -1.2
v 0.1 1 -1.3
v 0.1 1 -1.4
v 0.1 1 -1.5
v 0.2 0.9 -0.2
v 0.2 0.9 -0.4
v 0.2 1 -0.2
v 0.2 1 -0.4
v 0.2 1 -1.5
v 0.2 1 -1.6
v 0.2 1.1 -1.5
v 0.2 1.1 -1.6
v 0.3 0.8 -0.4
v 0.3 0.8 -0.6
v 0.3 0.8 -0.7
v 0.3 0.8 -1.4
v 0.3 0.8 -1.6
v 0.3 0.9 -1.5
v 0.3 0.9 -1.6
v 0.3 1 -0.8
v 0.3 1 -0.9
v 0.3 1 -1.2
v 0.3 1 -1.3
v 0.3 1 -1.5
v 0.3 1 -1.6
v 0.3 1.1 -0.4
v 0.3 1.1 -0.6
v 0.3 1.1 -0.7
v 0.3 1.1 -0.8
v 0.3 1.1 -0.9
v 0.3 1.1 -1.2
v 0.3 1.1 -1.3
v 0.3 1.1 -1.4
v 0.3 1.1 -1.5
v 0.1 0.9 -0.2
v 0.1 1 -0.2
v 0.2 0.9 -0.2
v 0.2 1 -0.2
v 0 0.8 -0.4
v 0 1.1 -0.4
v 0.1 0.9 -0.4
v 0.1 1 -0.4
v 0.2 0.9 -0.4
v 0.2 1 -0.4
v 0.3 0.8 -0.4
v 0.3 1.1 -0.4
v 0.1 0.9 -0.8
v 0.1 1 -0.8
v 0.2 0.9 -0.8
v 0.2 1 -0.8
v 0 1 -0.9
v 0 1.1 -0.9
v 0.3 1 -0.9
v 0.3 1.1 -0.9
v 0.1 0.9 -1.2
v 0.1 1 -1.2
v 0.2 0.9 -1.2
v 0.2 1 -1.2
v 0 1 -1.3
v 0 1.1 -1.3
v 0.3 1 -1.3
v 0.3 1.1 -1.3
v 0.1 0.9 -1.5
v 0.1 1 -1.5
v 0.2 0.9 -1.5
v 0.2 1 -1.5
v 0.1 0.9 -0.5
v 0.1 1 -0.5
v 0.2 0.9 -0.5
v 0.2 1 -0.5
v 0 1 -0.8
v 0 1.1 -0.8
v 0.3 1 -0.8
v 0.3 1.1 -0.8
v 0.1 0.9 -0.9
v 0.1 1 -0.9
v 0.2 0.9 -0.9
v 0.2 1 -0.9
v 0 1 -1.2
v 0 1.1 -1.2
v 0.3 1 -1.2
v 0.3 1.1 -1.2
v 0.1 0.9 -1.3
v 0.1 1 -1.3
v 0.2 0.9 -1.3
v 0.2 1 -1.3
v 0 0.8 -1.5
v 0 0.9 -1.5
v 0.1 0.8 -1.5
v 0.1 0.9 -1.5
v 0.2 1 -1.5
v 0.2 1.1 -1.5
v 0.3 1 -1.5
v 0.3 1.1 -1.5
v 0 0.9 -1.6
v 0 1 -1.6
v 0 1.1 -1.6
v 0.1 0.8 -1.6
v 0.1 0.9 -1.6
v 0.1 1 -1.6
v 0.1 1.1 -1.6
v 0.2 0.8 -1.6
v 0.2 0.9 -1.6
v 0.2 1 -1.6
v 0.2 1.1 -1.6
v 0.3 0.8 -1.6
v 0.3 0.9 -1.6
v 0.3 1 -1.6
v 0 0.8 -0.4
v 0.3 0.8 -0.4
v 0 0.8 -0.6
v 0.3 0.8 -0.6
v 0 0.8 -0.7
v 0.3 0.8 -0.7
v 0 0.8 -1.4
v 0.3 0.8 -1.4
v 0 0.8 -1.5
v 0.1 0.8 -1.5
v 0.2 0.8 -1.5
v 0.1 0.8 -1.6
v 0.2 0.8 -1.6
v 0.3 0.8 -1.6
v 0.1 0.9 -0.2
v 0.2 0.9 -0.2
v 0.1 0.9 -0.4
v 0.2 0.9 -0.4
v 0 0.9 -1.5
v 0.1 0.9 -1.5
v 0 0.9 -1.6
v 0.1 0.9 -1.6
v 0.1 1 -0.5
v 0.2 1 -0.5
v 0.1 1 -0.6
v 0.2 1 -0.6
v 0.1 1 -0.7
v 0.2 1 -0.7
v 0.1 1 -0.8
v 0.2 1 -0.8
v 0.1 1 -0.9
v 0.2 1 -0.9
v 0.1 1 -1.2
v 0.2 1 -1.2
v 0.1 1 -1.3
v 0.2 1 -1.3
v 0.1 1 -1.4
v 0.2 1 -1.4
v 0.1 1 -1.5
v 0.2 1 -1.5
v 0.1 0.9 -0.5
v 0.2 0.9 -0.5
v 0.1 0.9 -0.6
v 0.2 0.9 -0.6
v 0.1 0.9 -0.7
v 0.2 0.9 -0.7
v 0.1 0.9 -0.8
v 0.2 0.9 -0.8
v 0.1 0.9 -0.9
v 0.2 0.9 -0.9
v 0.1 0.9 -1.2
v 0.2 0.9 -1.2
v 0.1 0.9 -1.3
v 0.2 0.9 -1.3
v 0.1 0.9 -1.4
v 0.2 0.9 -1.4
v 0.1 0.9 -1.5
v 0.2 0.9 -1.5
v 0.1 1 -0.2
v 0.2 1 -0.2
v 0.1 1 -0.4
v 0.2 1 -0.4
v 0 1 -0.8
v 0.3 1 -0.8
v 0 1 -0.9
v 0.3 1 -0.9
v 0 1 -1.2
v 0.3 1 -1.2
v 0 1 -1.3
v 0.3 1 -1.3
v 0.2 1 -1.5
v 0.3 1 -1.5
v 0.2 1 -1.6
v 0.3 1 -1.6
v 0 1.1 -0.4
v 0.3 1.1 -0.4
v 0 1.1 -0.6
v 0.3 1.1 -0.6
v 0 1.1 -0.7
v 0.3 1.1 -0.7
v 0 1.1 -0.8
v 0.3 1.1 -0.8
v 0 1.1 -0.9
v 0.3 1.1 -0.9
v 0 1.1 -1.2
v 0.3 1.1 -1.2
v 0 1.1 -1.3
v 0.3 1.1 -1.3
v 0 1.1 -1.4
v 0.3 1.1 -1.4
v 0.1 1.1 -1.5
v 0.2 1.1 -1.5
v 0.3 1.1 -1.5
v 0 1.1 -1.6
v 0.1 1.1 -1.6
v 0.2 1.1 -1.6

# faces
f 6/1/1 5/1/1 4/1/1
f 8/3/1 4/3/1 3/3/1
f 9/3/1 4/3/1 8/3/1
f 10/3/1 4/3/1 9/3/1
f 11/3/1 4/3/1 10/3/1
f 12/2/1 7/2/1 6/2/1
f 12/1/1 6/1/1 4/1/1
f 13/2/1 7/2/1 12/2/1
f 14/2/1 2/2/1 1/2/1
f 15/1/1 3/1/1 2/1/1
f 15/2/1 2/2/1 14/2/1
f 16/3/1 8/3/1 3/3/1
f 16/1/1 3/1/1 15/1/1
f 17/3/1 8/3/1 16/3/1
f 18/3/1 10/3/1 9/3/1
f 19/3/1 10/3/1 18/3/1
f 20/3/1 4/3/1 11/3/1
f 21/1/1 13/1/1 12/1/1
f 21/3/1 4/3/1 20/3/1
f 21/1/1 12/1/1 4/1/1
f 22/1/1 13/1/1 21/1/1
f 27/2/1 24/2/1 23/2/1
f 28/2/1 24/2/1 27/2/1
f 29/2/1 26/2/1 25/2/1
f 30/2/1 26/2/1 29/2/1
f 40/2/1 32/2/1 31/2/1
f 41/1/1 33/1/1 32/1/1
f 41/2/1 32/2/1 40/2/1
f 42/3/1 34/3/1 33/3/1
f 42/1/1 33/1/1 41/1/1
f 43/3/1 34/3/1 42/3/1
f 44/3/1 36/3/1 35/3/1
f 45/3/1 36/3/1 44/3/1
f 46/3/1 38/3/1 37/3/1
f 47/1/1 39/1/1 38/1/1
f 47/3/1 38/3/1 46/3/1
f 48/1/1 39/1/1 47/1/1
f 49/2/2 50/2/2 58/2/2
f 50/1/2 51/1/2 59/1/2
f 58/2/2 50/2/2 59/2/2
f 51/3/2 52/3/2 60/3/2
f 59/1/2 51/1/2 60/1/2
f 60/3/2 52/3/2 61/3/2
f 53/3/2 54/3/2 62/3/2
f 62/3/2 54/3/2 63/3/2
f 55/3/2 56/3/2 64/3/2
f 56/1/2 57/1/2 65/1/2
f 64/3/2 56/3/2 65/3/2
f 65/1/2 57/1/2 66/1/2
f 67/2/2 68/2/2 69/2/2
f 69/2/2 68/2/2 70/2/2
f 71/2/2 72/2/2 73/2/2
f 73/2/2 72/2/2 74/2/2
f 78/1/2 79/1/2 80/1/2
f 80/1/2 79/1/2 81/1/2
f 77/3/2 78/3/2 82/3/2
f 82/3/2 78/3/2 83/3/2
f 83/3/2 78/3/2 84/3/2
f 84/3/2 78/3/2 85/3/2
f 78/1/2 80/1/2 86/1/2
f 80/2/2 81/2/2 86/2/2
f 86/2/2 81/2/2 87/2/2
f 75/2/2 76/2/2 88/2/2
f 76/1/2 77/1/2 89/1/2
f 88/2/2 76/2/2 89/2/2
f 77/3/2 82/3/2 90/3/2
f 89/1/2 77/1/2 90/1/2
f 90/3/2 82/3/2 91/3/2
f 83/3/2 84/3/2 92/3/2
f 92/3/2 84/3/2 93/3/2
f 85/3/2 78/3/2 94/3/2
f 78/1/2 86/1/2 95/1/2
f 94/3/2 78/3/2 95/3/2
f 95/1/2 86/1/2 96/1/2
f 99/2/3 98/2/3 97/2/3
f 100/2/3 98/2/3 99/2/3
f 103/2/3 102/2/3 101/2/3
f 104/2/3 102/2/3 103/2/3
f 105/2/3 103/2/3 101/2/3
f 106/2/3 102/2/3 104/2/3
f 107/2/3 105/2/3 101/2/3
f 107/2/3 106/2/3 105/2/3
f 108/2/3 102/2/3 106/2/3
f 108/2/3 106/2/3 107/2/3
f 111/3/3 110/3/3 109/3/3
f 112/3/3 110/3/3 111/3/3
f 115/3/3 114/3/3 113/3/3
f 116/3/3 114/3/3 115/3/3
f 119/3/3 118/3/3 117/3/3
f 120/3/3 118/3/3 119/3/3
f 123/3/3 122/3/3 121/3/3
f 124/3/3 122/3/3 123/3/3
f 127/1/3 126/1/3 125/1/3
f 128/1/3 126/1/3 127/1/3
f 129/2/4 130/2/4 131/2/4
f 131/2/4 130/2/4 132/2/4
f 133/3/4 134/3/4 135/3/4
f 135/3/4 134/3/4 136/3/4
f 137/3/4 138/3/4 139/3/4
f 139/3/4 138/3/4 140/3/4
f 141/3/4 142/3/4 143/3/4
f 143/3/4 142/3/4 144/3/4
f 145/3/4 146/3/4 147/3/4
f 147/3/4 146/3/4 148/3/4
f 149/1/4 150/1/4 151/1/4
f 151/1/4 150/1/4 152/1/4
f 153/1/4 154/1/4 155/1/4
f 155/1/4 154/1/4 156/1/4
f 157/2/4 158/2/4 161/2/4
f 158/1/4 159/1/4 162/1/4
f 161/2/4 158/2/4 162/2/4
f 162/1/4 159/1/4 163/1/4
f 160/2/4 161/2/4 164/2/4
f 161/1/4 162/1/4 165/1/4
f 164/2/4 161/2/4 165/2/4
f 162/2/4 163/2/4 166/2/4
f 165/1/4 162/1/4 166/1/4
f 166/2/4 163/2/4 167/2/4
f 164/1/4 165/1/4 168/1/4
f 165/2/4 166/2/4 169/2/4
f 168/1/4 165/1/4 169/1/4
f 169/2/4 166/2/4 170/2/4
f 173/2/5 172/2/5 171/2/5
f 174/2/5 172/2/5 173/2/5
f 175/1/5 174/1/5 173/1/5
f 176/1/5 174/1/5 175/1/5
f 177/3/5 176/3/5 175/3/5
f 178/3/5 176/3/5 177/3/5
f 179/1/5 178/1/5 177/1/5
f 180/1/5 178/1/5 179/1/5
f 181/1/5 178/1/5 180/1/5
f 182/2/5 181/2/5 180/2/5
f 183/1/5 178/1/5 181/1/5
f 183/2/5 181/2/5 182/2/5
f 184/1/5 178/1/5 183/1/5
f 187/2/5 186/2/5 185/2/5
f 188/2/5 186/2/5 187/2/5
f 191/2/5 190/2/5 189/2/5
f 192/2/5 190/2/5 191/2/5
f 195/2/5 194/2/5 193/2/5
f 196/2/5 194/2/5 195/2/5
f 197/1/5 196/1/5 195/1/5
f 198/1/5 196/1/5 197/1/5
f 199/3/5 198/3/5 197/3/5
f 200/3/5 198/3/5 199/3/5
f 203/3/5 202/3/5 201/3/5
f 204/3/5 202/3/5 203/3/5
f 207/3/5 206/3/5 205/3/5
f 208/3/5 206/3/5 207/3/5
f 209/1/5 208/1/5 207/1/5
f 210/1/5 208/1/5 209/1/5
f 211/2/6 212/2/6 213/2/6
f 213/2/6 212/2/6 214/2/6
f 213/1/6 214/1/6 215/1/6
f 215/1/6 214/1/6 216/1/6
f 215/3/6 216/3/6 217/3/6
f 217/3/6 216/3/6 218/3/6
f 219/3/6 220/3/6 221/3/6
f 221/3/6 220/3/6 222/3/6
f 223/3/6 224/3/6 225/3/6
f 225/3/6 224/3/6 226/3/6
f 225/1/6 226/1/6 227/1/6
f 227/1/6 226/1/6 228/1/6
f 229/2/6 230/2/6 231/2/6
f 231/2/6 230/2/6 232/2/6
f 233/3/6 234/3/6 235/3/6
f 235/3/6 234/3/6 236/3/6
f 237/3/6 238/3/6 239/3/6
f 239/3/6 238/3/6 240/3/6
f 241/2/6 242/2/6 243/2/6
f 243/2/6 242/2/6 244/2/6
f 245/2/6 246/2/6 247/2/6
f 247/2/6 246/2/6 248/2/6
f 247/1/6 248/1/6 249/1/6
f 249/1/6 248/1/6 250/1/6
f 249/3/6 250/3/6 251/3/6
f 251/3/6 250/3/6 252/3/6
f 253/3/6 254/3/6 255/3/6
f 255/3/6 254/3/6 256/3/6
f 257/3/6 258/3/6 259/3/6
f 259/3/6 258/3/6 260/3/6
f 259/1/6 260/1/6 261/1/6
f 261/1/6 260/1/6 262/1/6
f 262/1/6 260/1/6 263/1/6
f 259/1/6 261/1/6 264/1/6
f 261/2/6 262/2/6 265/2/6
f 264/1/6 261/1/6 265/1/6
f 265/2/6 262/2/6 266/2/6
