# MagicaVoxel @ Ephtracy

# group
o 

# material
mtllib Projectile_Carro_Futuro.mtl
usemtl palette

# normals
vn -1 0 0
vn 1 0 0
vn 0 0 1
vn 0 0 -1
vn 0 -1 0
vn 0 1 0

# texcoords
vt 0.705078 0.5
vt 0.962891 0.5
vt 0.994141 0.5

# verts
v -0.4 0.7 0.6
v -0.4 0.7 0.4
v -0.4 0.9 0.6
v -0.4 0.9 0.4
v -0.3 0.6 0.6
v -0.3 0.6 0.4
v -0.3 0.7 0.7
v -0.3 0.7 0.6
v -0.3 0.7 0.4
v -0.3 0.7 0.3
v -0.3 0.9 0.7
v -0.3 0.9 0.6
v -0.3 0.9 0.4
v -0.3 0.9 0.3
v -0.3 1 0.6
v -0.3 1 0.4
v -0.2 0.5 0.6
v -0.2 0.5 0.4
v -0.2 0.6 0.7
v -0.2 0.6 0.6
v -0.2 0.6 0.4
v -0.2 0.6 0.3
v -0.2 0.7 0.8
v -0.2 0.7 0.7
v -0.2 0.7 0.6
v -0.2 0.7 0.4
v -0.2 0.7 0.3
v -0.2 0.7 0.2
v -0.2 0.9 0.8
v -0.2 0.9 0.7
v -0.2 0.9 0.6
v -0.2 0.9 0.4
v -0.2 0.9 0.3
v -0.2 0.9 0.2
v -0.2 1 0.7
v -0.2 1 0.6
v -0.2 1 0.4
v -0.2 1 0.3
v -0.2 1.1 0.6
v -0.2 1.1 0.4
v 0.7 0.9 0.6
v 0.7 0.9 0.4
v 0.7 1 0.6
v 0.7 1 0.4
v 0.5 0.9 0.6
v 0.5 0.9 0.4
v 0.5 1 0.6
v 0.5 1 0.4
v 1.3 0.5 0.6
v 1.3 0.5 0.4
v 1.3 0.6 0.7
v 1.3 0.6 0.6
v 1.3 0.6 0.4
v 1.3 0.6 0.3
v 1.3 0.7 0.8
v 1.3 0.7 0.7
v 1.3 0.7 0.6
v 1.3 0.7 0.4
v 1.3 0.7 0.3
v 1.3 0.7 0.2
v 1.3 0.9 0.8
v 1.3 0.9 0.7
v 1.3 0.9 0.6
v 1.3 0.9 0.4
v 1.3 0.9 0.3
v 1.3 0.9 0.2
v 1.3 1 0.7
v 1.3 1 0.6
v 1.3 1 0.4
v 1.3 1 0.3
v 1.3 1.1 0.6
v 1.3 1.1 0.4
v 1.4 0.6 0.6
v 1.4 0.6 0.4
v 1.4 0.7 0.7
v 1.4 0.7 0.6
v 1.4 0.7 0.4
v 1.4 0.7 0.3
v 1.4 0.9 0.7
v 1.4 0.9 0.6
v 1.4 0.9 0.4
v 1.4 0.9 0.3
v 1.4 1 0.6
v 1.4 1 0.4
v -0.2 0.7 0.8
v -0.2 0.9 0.8
v 1.3 0.7 0.8
v 1.3 0.9 0.8
v -0.3 0.7 0.7
v -0.3 0.9 0.7
v -0.2 0.6 0.7
v -0.2 0.7 0.7
v -0.2 0.9 0.7
v -0.2 1 0.7
v -0.1 0.6 0.7
v -0.1 0.7 0.7
v -0.1 0.9 0.7
v -0.1 1 0.7
v 1.3 0.6 0.7
v 1.3 0.7 0.7
v 1.3 0.9 0.7
v 1.3 1 0.7
v 1.4 0.7 0.7
v 1.4 0.9 0.7
v -0.4 0.7 0.6
v -0.4 0.9 0.6
v -0.3 0.6 0.6
v -0.3 0.7 0.6
v -0.3 0.9 0.6
v -0.3 1 0.6
v -0.2 0.5 0.6
v -0.2 0.6 0.6
v -0.2 0.7 0.6
v -0.2 0.9 0.6
v -0.2 1 0.6
v -0.2 1.1 0.6
v -0.1 0.6 0.6
v -0.1 1 0.6
v 1.3 0.5 0.6
v 1.3 0.6 0.6
v 1.3 0.7 0.6
v 1.3 0.9 0.6
v 1.3 1 0.6
v 1.3 1.1 0.6
v 1.4 0.6 0.6
v 1.4 0.7 0.6
v 1.4 0.9 0.6
v 1.4 1 0.6
v 0.5 0.9 0.4
v 0.5 1 0.4
v 0.7 0.9 0.4
v 0.7 1 0.4
v 0.5 0.9 0.6
v 0.5 1 0.6
v 0.7 0.9 0.6
v 0.7 1 0.6
v -0.4 0.7 0.4
v -0.4 0.9 0.4
v -0.3 0.6 0.4
v -0.3 0.7 0.4
v -0.3 0.9 0.4
v -0.3 1 0.4
v -0.2 0.5 0.4
v -0.2 0.6 0.4
v -0.2 0.7 0.4
v -0.2 0.9 0.4
v -0.2 1 0.4
v -0.2 1.1 0.4
v -0.1 0.6 0.4
v -0.1 1 0.4
v 1.3 0.5 0.4
v 1.3 0.6 0.4
v 1.3 0.7 0.4
v 1.3 0.9 0.4
v 1.3 1 0.4
v 1.3 1.1 0.4
v 1.4 0.6 0.4
v 1.4 0.7 0.4
v 1.4 0.9 0.4
v 1.4 1 0.4
v -0.3 0.7 0.3
v -0.3 0.9 0.3
v -0.2 0.6 0.3
v -0.2 0.7 0.3
v -0.2 0.9 0.3
v -0.2 1 0.3
v -0.1 0.6 0.3
v -0.1 0.7 0.3
v -0.1 0.9 0.3
v -0.1 1 0.3
v 1.3 0.6 0.3
v 1.3 0.7 0.3
v 1.3 0.9 0.3
v 1.3 1 0.3
v 1.4 0.7 0.3
v 1.4 0.9 0.3
v -0.2 0.7 0.2
v -0.2 0.9 0.2
v 1.3 0.7 0.2
v 1.3 0.9 0.2
v -0.2 0.5 0.6
v 1.3 0.5 0.6
v -0.2 0.5 0.4
v 1.3 0.5 0.4
v -0.2 0.6 0.7
v -0.1 0.6 0.7
v 1.3 0.6 0.7
v -0.3 0.6 0.6
v -0.2 0.6 0.6
v -0.1 0.6 0.6
v 1.3 0.6 0.6
v 1.4 0.6 0.6
v -0.3 0.6 0.4
v -0.2 0.6 0.4
v -0.1 0.6 0.4
v 1.3 0.6 0.4
v 1.4 0.6 0.4
v -0.2 0.6 0.3
v -0.1 0.6 0.3
v 1.3 0.6 0.3
v -0.2 0.7 0.8
v 1.3 0.7 0.8
v -0.3 0.7 0.7
v -0.2 0.7 0.7
v -0.1 0.7 0.7
v 1.3 0.7 0.7
v 1.4 0.7 0.7
v -0.4 0.7 0.6
v -0.3 0.7 0.6
v -0.2 0.7 0.6
v 1.3 0.7 0.6
v 1.4 0.7 0.6
v -0.4 0.7 0.4
v -0.3 0.7 0.4
v -0.2 0.7 0.4
v 1.3 0.7 0.4
v 1.4 0.7 0.4
v -0.3 0.7 0.3
v -0.2 0.7 0.3
v -0.1 0.7 0.3
v 1.3 0.7 0.3
v 1.4 0.7 0.3
v -0.2 0.7 0.2
v 1.3 0.7 0.2
v 0.5 1 0.6
v 0.7 1 0.6
v 0.5 1 0.4
v 0.7 1 0.4
v -0.2 0.9 0.8
v 1.3 0.9 0.8
v -0.3 0.9 0.7
v -0.2 0.9 0.7
v -0.1 0.9 0.7
v 1.3 0.9 0.7
v 1.4 0.9 0.7
v -0.4 0.9 0.6
v -0.3 0.9 0.6
v -0.2 0.9 0.6
v 0.5 0.9 0.6
v 0.7 0.9 0.6
v 1.3 0.9 0.6
v 1.4 0.9 0.6
v -0.4 0.9 0.4
v -0.3 0.9 0.4
v -0.2 0.9 0.4
v 0.5 0.9 0.4
v 0.7 0.9 0.4
v 1.3 0.9 0.4
v 1.4 0.9 0.4
v -0.3 0.9 0.3
v -0.2 0.9 0.3
v -0.1 0.9 0.3
v 1.3 0.9 0.3
v 1.4 0.9 0.3
v -0.2 0.9 0.2
v 1.3 0.9 0.2
v -0.2 1 0.7
v -0.1 1 0.7
v 1.3 1 0.7
v -0.3 1 0.6
v -0.2 1 0.6
v -0.1 1 0.6
v 1.3 1 0.6
v 1.4 1 0.6
v -0.3 1 0.4
v -0.2 1 0.4
v -0.1 1 0.4
v 1.3 1 0.4
v 1.4 1 0.4
v -0.2 1 0.3
v -0.1 1 0.3
v 1.3 1 0.3
v -0.2 1.1 0.6
v 1.3 1.1 0.6
v -0.2 1.1 0.4
v 1.3 1.1 0.4

# faces
f 3/1/1 2/1/1 1/1/1
f 4/1/1 2/1/1 3/1/1
f 8/1/1 6/1/1 5/1/1
f 9/1/1 6/1/1 8/1/1
f 11/1/1 8/1/1 7/1/1
f 12/1/1 8/1/1 11/1/1
f 13/1/1 10/1/1 9/1/1
f 14/1/1 10/1/1 13/1/1
f 15/1/1 13/1/1 12/1/1
f 16/1/1 13/1/1 15/1/1
f 20/1/1 18/1/1 17/1/1
f 21/1/1 18/1/1 20/1/1
f 24/1/1 20/1/1 19/1/1
f 25/1/1 20/1/1 24/1/1
f 26/1/1 22/1/1 21/1/1
f 27/1/1 22/1/1 26/1/1
f 29/1/1 24/1/1 23/1/1
f 30/1/1 24/1/1 29/1/1
f 33/1/1 28/1/1 27/1/1
f 34/1/1 28/1/1 33/1/1
f 35/1/1 31/1/1 30/1/1
f 36/1/1 31/1/1 35/1/1
f 37/1/1 33/1/1 32/1/1
f 38/1/1 33/1/1 37/1/1
f 39/1/1 37/1/1 36/1/1
f 40/1/1 37/1/1 39/1/1
f 43/2/1 42/2/1 41/2/1
f 44/2/1 42/2/1 43/2/1
f 45/2/2 46/2/2 47/2/2
f 47/2/2 46/2/2 48/2/2
f 49/1/2 50/1/2 52/1/2
f 52/1/2 50/1/2 53/1/2
f 51/2/2 52/2/2 56/2/2
f 56/2/2 52/2/2 57/2/2
f 53/2/2 54/2/2 58/2/2
f 58/2/2 54/2/2 59/2/2
f 55/1/2 56/1/2 61/1/2
f 61/1/2 56/1/2 62/1/2
f 59/1/2 60/1/2 65/1/2
f 65/1/2 60/1/2 66/1/2
f 62/2/2 63/2/2 67/2/2
f 67/2/2 63/2/2 68/2/2
f 64/2/2 65/2/2 69/2/2
f 69/2/2 65/2/2 70/2/2
f 68/1/2 69/1/2 71/1/2
f 71/1/2 69/1/2 72/1/2
f 73/1/2 74/1/2 76/1/2
f 76/1/2 74/1/2 77/1/2
f 75/1/2 76/1/2 79/1/2
f 77/1/2 78/1/2 79/1/2
f 76/1/2 77/1/2 79/1/2
f 79/1/2 78/1/2 80/1/2
f 80/1/2 78/1/2 81/1/2
f 81/1/2 78/1/2 82/1/2
f 80/1/2 81/1/2 83/1/2
f 83/1/2 81/1/2 84/1/2
f 87/1/3 86/1/3 85/1/3
f 88/1/3 86/1/3 87/1/3
f 92/1/3 90/1/3 89/1/3
f 93/1/3 90/1/3 92/1/3
f 95/1/3 92/1/3 91/1/3
f 96/1/3 92/1/3 95/1/3
f 97/1/3 94/1/3 93/1/3
f 98/1/3 94/1/3 97/1/3
f 99/2/3 96/2/3 95/2/3
f 100/2/3 96/2/3 99/2/3
f 101/2/3 98/2/3 97/2/3
f 102/2/3 98/2/3 101/2/3
f 103/1/3 101/1/3 100/1/3
f 104/1/3 101/1/3 103/1/3
f 108/1/3 106/1/3 105/1/3
f 109/1/3 106/1/3 108/1/3
f 112/1/3 108/1/3 107/1/3
f 113/1/3 108/1/3 112/1/3
f 114/1/3 110/1/3 109/1/3
f 115/1/3 110/1/3 114/1/3
f 117/1/3 112/1/3 111/1/3
f 118/1/3 116/1/3 115/1/3
f 119/1/3 117/1/3 111/1/3
f 120/1/3 117/1/3 119/1/3
f 123/1/3 116/1/3 118/1/3
f 124/1/3 116/1/3 123/1/3
f 125/1/3 121/1/3 120/1/3
f 126/1/3 121/1/3 125/1/3
f 127/1/3 123/1/3 122/1/3
f 128/1/3 123/1/3 127/1/3
f 131/2/3 130/2/3 129/2/3
f 132/2/3 130/2/3 131/2/3
f 133/2/4 134/2/4 135/2/4
f 135/2/4 134/2/4 136/2/4
f 137/1/4 138/1/4 140/1/4
f 140/1/4 138/1/4 141/1/4
f 139/1/4 140/1/4 144/1/4
f 144/1/4 140/1/4 145/1/4
f 141/1/4 142/1/4 146/1/4
f 146/1/4 142/1/4 147/1/4
f 143/1/4 144/1/4 149/1/4
f 147/1/4 148/1/4 150/1/4
f 143/1/4 149/1/4 151/1/4
f 151/1/4 149/1/4 152/1/4
f 150/1/4 148/1/4 155/1/4
f 155/1/4 148/1/4 156/1/4
f 152/1/4 153/1/4 157/1/4
f 157/1/4 153/1/4 158/1/4
f 154/1/4 155/1/4 159/1/4
f 159/1/4 155/1/4 160/1/4
f 161/1/4 162/1/4 164/1/4
f 164/1/4 162/1/4 165/1/4
f 163/1/4 164/1/4 167/1/4
f 167/1/4 164/1/4 168/1/4
f 165/1/4 166/1/4 169/1/4
f 169/1/4 166/1/4 170/1/4
f 167/2/4 168/2/4 171/2/4
f 171/2/4 168/2/4 172/2/4
f 169/2/4 170/2/4 173/2/4
f 173/2/4 170/2/4 174/2/4
f 172/1/4 173/1/4 175/1/4
f 175/1/4 173/1/4 176/1/4
f 177/1/4 178/1/4 179/1/4
f 179/1/4 178/1/4 180/1/4
f 183/1/5 182/1/5 181/1/5
f 184/1/5 182/1/5 183/1/5
f 189/1/5 186/1/5 185/1/5
f 190/2/5 187/2/5 186/2/5
f 190/1/5 186/1/5 189/1/5
f 191/2/5 187/2/5 190/2/5
f 193/1/5 189/1/5 188/1/5
f 194/1/5 189/1/5 193/1/5
f 196/1/5 192/1/5 191/1/5
f 197/1/5 192/1/5 196/1/5
f 198/1/5 195/1/5 194/1/5
f 199/2/5 196/2/5 195/2/5
f 199/1/5 195/1/5 198/1/5
f 200/2/5 196/2/5 199/2/5
f 204/1/5 202/1/5 201/1/5
f 205/1/5 202/1/5 204/1/5
f 206/1/5 202/1/5 205/1/5
f 209/1/5 204/1/5 203/1/5
f 210/1/5 204/1/5 209/1/5
f 211/1/5 207/1/5 206/1/5
f 212/1/5 207/1/5 211/1/5
f 213/1/5 209/1/5 208/1/5
f 214/1/5 209/1/5 213/1/5
f 218/1/5 215/1/5 214/1/5
f 219/1/5 215/1/5 218/1/5
f 221/1/5 217/1/5 216/1/5
f 222/1/5 217/1/5 221/1/5
f 223/1/5 220/1/5 219/1/5
f 223/1/5 221/1/5 220/1/5
f 224/1/5 221/1/5 223/1/5
f 227/1/5 226/1/5 225/1/5
f 228/1/5 226/1/5 227/1/5
f 229/1/6 230/1/6 232/1/6
f 232/1/6 230/1/6 233/1/6
f 233/1/6 230/1/6 234/1/6
f 231/1/6 232/1/6 237/1/6
f 237/1/6 232/1/6 238/1/6
f 234/1/6 235/1/6 241/1/6
f 241/1/6 235/1/6 242/1/6
f 236/1/6 237/1/6 243/1/6
f 243/1/6 237/1/6 244/1/6
f 239/1/6 240/1/6 246/1/6
f 246/1/6 240/1/6 247/1/6
f 244/1/6 245/1/6 250/1/6
f 250/1/6 245/1/6 251/1/6
f 248/1/6 249/1/6 253/1/6
f 253/1/6 249/1/6 254/1/6
f 251/1/6 252/1/6 255/1/6
f 252/1/6 253/1/6 255/1/6
f 255/1/6 253/1/6 256/1/6
f 257/1/6 258/1/6 261/1/6
f 258/2/6 259/2/6 262/2/6
f 261/1/6 258/1/6 262/1/6
f 262/2/6 259/2/6 263/2/6
f 260/1/6 261/1/6 265/1/6
f 265/1/6 261/1/6 266/1/6
f 263/1/6 264/1/6 268/1/6
f 268/1/6 264/1/6 269/1/6
f 266/1/6 267/1/6 270/1/6
f 267/2/6 268/2/6 271/2/6
f 270/1/6 267/1/6 271/1/6
f 271/2/6 268/2/6 272/2/6
f 273/1/6 274/1/6 275/1/6
f 275/1/6 274/1/6 276/1/6
