# MagicaVoxel @ Ephtracy

# group
o 

# material
mtllib Soldier3.mtl
usemtl palette

# normals
vn -1 0 0
vn 1 0 0
vn 0 0 1
vn 0 0 -1
vn 0 -1 0
vn 0 1 0

# texcoords
vt 0.00585938 0.5
vt 0.0332031 0.5
vt 0.0410156 0.5
vt 0.673828 0.5
vt 0.720703 0.5
vt 0.958984 0.5
vt 0.966797 0.5
vt 0.978516 0.5

# verts
v -1.2 1 0.2
v -1.2 1 0
v -1.2 1.1 0.2
v -1.2 1.1 0
v -0.6 0 0.2
v -0.6 0 0
v -0.6 0.1 0.2
v -0.6 0.1 0
v -0.6 0.5 0.2
v -0.6 0.5 0
v -0.6 0.7 0.2
v -0.6 0.7 0
v -0.6 0.8 0.2
v -0.6 0.8 0
v -0.6 1 0.2
v -0.6 1 0
v -0.5 1.1 0.3
v -0.5 1.1 0.2
v -0.5 1.1 0
v -0.5 1.1 -0.1
v -0.5 1.2 0
v -0.5 1.2 -0.1
v -0.5 1.3 0.3
v -0.5 1.3 0
v -0.5 1.4 0.3
v -0.5 1.4 -0.1
v -0.1 0 0.2
v -0.1 0 0
v -0.1 0.1 0.2
v -0.1 0.1 0
v -0.1 0.4 0.2
v -0.1 0.4 0
v -0.4 0 0.2
v -0.4 0 0
v -0.4 0.1 0.2
v -0.4 0.1 0
v -0.4 0.4 0.2
v -0.4 0.4 0
v 0 1.1 0.3
v 0 1.1 0.2
v 0 1.1 0
v 0 1.1 -0.1
v 0 1.2 0
v 0 1.2 -0.1
v 0 1.3 0.3
v 0 1.3 0
v 0 1.4 0.3
v 0 1.4 -0.1
v 0.0999999 0 0.2
v 0.0999999 0 0
v 0.0999999 0.1 0.2
v 0.0999999 0.1 0
v 0.0999999 0.5 0.2
v 0.0999999 0.5 0
v 0.0999999 1 0.2
v 0.0999999 1 0
v 0.7 1 0.2
v 0.7 1 0
v 0.7 1.1 0.2
v 0.7 1.1 0
v -0.5 1.1 0.3
v -0.5 1.3 0.3
v -0.5 1.4 0.3
v -0.4 1.2 0.3
v -0.4 1.3 0.3
v -0.3 1.2 0.3
v -0.3 1.3 0.3
v -0.2 1.2 0.3
v -0.2 1.3 0.3
v -0.1 1.2 0.3
v -0.1 1.3 0.3
v 0 1.1 0.3
v 0 1.3 0.3
v 0 1.4 0.3
v -1.2 1 0.2
v -1.2 1.1 0.2
v -0.7 1 0.2
v -0.7 1.1 0.2
v -0.6 0 0.2
v -0.6 0.1 0.2
v -0.6 0.5 0.2
v -0.6 0.7 0.2
v -0.6 0.8 0.2
v -0.6 1 0.2
v -0.5 1.1 0.2
v -0.4 0 0.2
v -0.4 0.1 0.2
v -0.4 0.4 0.2
v -0.4 0.6 0.2
v -0.4 0.7 0.2
v -0.4 0.8 0.2
v -0.4 0.9 0.2
v -0.4 1 0.2
v -0.4 1.1 0.2
v -0.3 0.6 0.2
v -0.3 0.7 0.2
v -0.3 0.8 0.2
v -0.3 0.9 0.2
v -0.3 1 0.2
v -0.3 1.1 0.2
v -0.1 0 0.2
v -0.1 0.1 0.2
v -0.1 0.4 0.2
v -0.1 0.5 0.2
v -0.1 0.7 0.2
v -0.1 0.8 0.2
v -0.1 1.1 0.2
v 0 0.5 0.2
v 0 1.1 0.2
v 0.0999999 0 0.2
v 0.0999999 0.1 0.2
v 0.0999999 0.5 0.2
v 0.0999999 1 0.2
v 0.2 1 0.2
v 0.2 1.1 0.2
v 0.7 1 0.2
v 0.7 1.1 0.2
v -1.2 1 0
v -1.2 1.1 0
v -0.7 1 0
v -0.7 1.1 0
v -0.6 0 0
v -0.6 0.1 0
v -0.6 0.5 0
v -0.6 0.7 0
v -0.6 0.8 0
v -0.6 1 0
v -0.5 1.1 0
v -0.4 0 0
v -0.4 0.1 0
v -0.4 0.4 0
v -0.1 0 0
v -0.1 0.1 0
v -0.1 0.4 0
v -0.1 0.5 0
v -0.1 0.7 0
v -0.1 0.8 0
v -0.1 1.1 0
v 0 0.5 0
v 0 1.1 0
v 0.0999999 0 0
v 0.0999999 0.1 0
v 0.0999999 0.5 0
v 0.0999999 1 0
v 0.2 1 0
v 0.2 1.1 0
v 0.7 1 0
v 0.7 1.1 0
v -0.5 1.1 -0.1
v -0.5 1.2 -0.1
v -0.5 1.4 -0.1
v 0 1.1 -0.1
v 0 1.2 -0.1
v 0 1.4 -0.1
v -0.6 0 0.2
v -0.4 0 0.2
v -0.1 0 0.2
v 0.0999999 0 0.2
v -0.6 0 0
v -0.4 0 0
v -0.1 0 0
v 0.0999999 0 0
v -0.4 0.4 0.2
v -0.1 0.4 0.2
v -0.4 0.4 0
v -0.1 0.4 0
v -1.2 1 0.2
v -0.7 1 0.2
v -0.6 1 0.2
v 0.0999999 1 0.2
v 0.2 1 0.2
v 0.7 1 0.2
v -1.2 1 0
v -0.7 1 0
v -0.6 1 0
v 0.0999999 1 0
v 0.2 1 0
v 0.7 1 0
v -0.5 1.1 0.3
v 0 1.1 0.3
v -0.5 1.1 0.2
v -0.4 1.1 0.2
v -0.3 1.1 0.2
v -0.1 1.1 0.2
v 0 1.1 0.2
v -0.5 1.1 0
v -0.1 1.1 0
v 0 1.1 0
v -0.5 1.1 -0.1
v 0 1.1 -0.1
v -1.2 1.1 0.2
v -0.7 1.1 0.2
v -0.5 1.1 0.2
v 0 1.1 0.2
v 0.2 1.1 0.2
v 0.7 1.1 0.2
v -1.2 1.1 0
v -0.7 1.1 0
v -0.5 1.1 0
v 0 1.1 0
v 0.2 1.1 0
v 0.7 1.1 0
v -0.5 1.4 0.3
v 0 1.4 0.3
v -0.5 1.4 -0.1
v 0 1.4 -0.1

# faces
f 3/1/1 2/1/1 1/1/1
f 4/1/1 2/1/1 3/1/1
f 7/8/1 6/8/1 5/8/1
f 8/8/1 6/8/1 7/8/1
f 9/4/1 8/4/1 7/4/1
f 10/4/1 8/4/1 9/4/1
f 11/6/1 10/6/1 9/6/1
f 12/6/1 10/6/1 11/6/1
f 13/7/1 12/7/1 11/7/1
f 14/7/1 12/7/1 13/7/1
f 15/6/1 14/6/1 13/6/1
f 16/6/1 14/6/1 15/6/1
f 21/1/1 18/1/1 17/1/1
f 21/1/1 20/1/1 19/1/1
f 21/1/1 19/1/1 18/1/1
f 22/1/1 20/1/1 21/1/1
f 23/1/1 21/1/1 17/1/1
f 24/3/1 22/3/1 21/3/1
f 24/1/1 21/1/1 23/1/1
f 25/3/1 24/3/1 23/3/1
f 26/3/1 22/3/1 24/3/1
f 26/3/1 24/3/1 25/3/1
f 29/8/1 28/8/1 27/8/1
f 30/8/1 28/8/1 29/8/1
f 31/4/1 30/4/1 29/4/1
f 32/4/1 30/4/1 31/4/1
f 33/8/2 34/8/2 35/8/2
f 35/8/2 34/8/2 36/8/2
f 35/4/2 36/4/2 37/4/2
f 37/4/2 36/4/2 38/4/2
f 39/1/2 40/1/2 43/1/2
f 41/1/2 42/1/2 43/1/2
f 40/1/2 41/1/2 43/1/2
f 43/1/2 42/1/2 44/1/2
f 39/1/2 43/1/2 45/1/2
f 43/3/2 44/3/2 46/3/2
f 45/1/2 43/1/2 46/1/2
f 45/3/2 46/3/2 47/3/2
f 46/3/2 44/3/2 48/3/2
f 47/3/2 46/3/2 48/3/2
f 49/8/2 50/8/2 51/8/2
f 51/8/2 50/8/2 52/8/2
f 51/4/2 52/4/2 53/4/2
f 53/4/2 52/4/2 54/4/2
f 53/6/2 54/6/2 55/6/2
f 55/6/2 54/6/2 56/6/2
f 57/1/2 58/1/2 59/1/2
f 59/1/2 58/1/2 60/1/2
f 64/1/3 62/1/3 61/1/3
f 65/3/3 63/3/3 62/3/3
f 65/1/3 62/1/3 64/1/3
f 66/1/3 64/1/3 61/1/3
f 66/5/3 65/5/3 64/5/3
f 67/3/3 63/3/3 65/3/3
f 67/5/3 65/5/3 66/5/3
f 68/1/3 66/1/3 61/1/3
f 68/1/3 67/1/3 66/1/3
f 69/3/3 63/3/3 67/3/3
f 69/1/3 67/1/3 68/1/3
f 70/1/3 68/1/3 61/1/3
f 70/5/3 69/5/3 68/5/3
f 71/3/3 63/3/3 69/3/3
f 71/5/3 69/5/3 70/5/3
f 72/1/3 70/1/3 61/1/3
f 72/1/3 71/1/3 70/1/3
f 73/3/3 63/3/3 71/3/3
f 73/1/3 71/1/3 72/1/3
f 74/3/3 63/3/3 73/3/3
f 77/1/3 76/1/3 75/1/3
f 78/1/3 76/1/3 77/1/3
f 84/6/3 78/6/3 77/6/3
f 85/6/3 78/6/3 84/6/3
f 85/6/3 84/6/3 83/6/3
f 86/8/3 80/8/3 79/8/3
f 87/4/3 81/4/3 80/4/3
f 87/8/3 80/8/3 86/8/3
f 88/4/3 81/4/3 87/4/3
f 89/6/3 82/6/3 81/6/3
f 90/7/3 83/7/3 82/7/3
f 90/6/3 82/6/3 89/6/3
f 91/6/3 85/6/3 83/6/3
f 91/7/3 83/7/3 90/7/3
f 92/6/3 85/6/3 91/6/3
f 93/6/3 85/6/3 92/6/3
f 94/6/3 85/6/3 93/6/3
f 95/6/3 89/6/3 81/6/3
f 95/8/3 90/8/3 89/8/3
f 96/7/3 91/7/3 90/7/3
f 96/8/3 90/8/3 95/8/3
f 97/8/3 92/8/3 91/8/3
f 97/7/3 91/7/3 96/7/3
f 98/6/3 93/6/3 92/6/3
f 98/8/3 92/8/3 97/8/3
f 99/8/3 94/8/3 93/8/3
f 99/6/3 93/6/3 98/6/3
f 100/8/3 94/8/3 99/8/3
f 103/4/3 81/4/3 88/4/3
f 104/6/3 96/6/3 95/6/3
f 104/6/3 95/6/3 81/6/3
f 104/4/3 81/4/3 103/4/3
f 105/7/3 97/7/3 96/7/3
f 105/6/3 96/6/3 104/6/3
f 106/6/3 98/6/3 97/6/3
f 106/7/3 97/7/3 105/7/3
f 106/6/3 99/6/3 98/6/3
f 106/6/3 100/6/3 99/6/3
f 107/6/3 100/6/3 106/6/3
f 108/7/3 105/7/3 104/7/3
f 108/4/3 104/4/3 103/4/3
f 108/7/3 107/7/3 106/7/3
f 108/7/3 106/7/3 105/7/3
f 108/4/3 103/4/3 102/4/3
f 109/7/3 107/7/3 108/7/3
f 110/8/3 102/8/3 101/8/3
f 111/4/3 108/4/3 102/4/3
f 111/8/3 102/8/3 110/8/3
f 112/6/3 109/6/3 108/6/3
f 112/4/3 108/4/3 111/4/3
f 113/6/3 109/6/3 112/6/3
f 114/6/3 109/6/3 113/6/3
f 115/6/3 109/6/3 114/6/3
f 116/1/3 115/1/3 114/1/3
f 117/1/3 115/1/3 116/1/3
f 118/1/4 119/1/4 120/1/4
f 120/1/4 119/1/4 121/1/4
f 120/6/4 121/6/4 127/6/4
f 127/6/4 121/6/4 128/6/4
f 126/6/4 127/6/4 128/6/4
f 122/8/4 123/8/4 129/8/4
f 123/4/4 124/4/4 130/4/4
f 129/8/4 123/8/4 130/8/4
f 130/4/4 124/4/4 131/4/4
f 131/4/4 124/4/4 134/4/4
f 124/6/4 125/6/4 135/6/4
f 134/4/4 124/4/4 135/4/4
f 125/7/4 126/7/4 136/7/4
f 135/6/4 125/6/4 136/6/4
f 126/6/4 128/6/4 137/6/4
f 136/7/4 126/7/4 137/7/4
f 137/6/4 128/6/4 138/6/4
f 134/4/4 135/4/4 139/4/4
f 133/4/4 134/4/4 139/4/4
f 137/7/4 138/7/4 139/7/4
f 136/7/4 137/7/4 139/7/4
f 135/7/4 136/7/4 139/7/4
f 139/7/4 138/7/4 140/7/4
f 132/8/4 133/8/4 141/8/4
f 133/4/4 139/4/4 142/4/4
f 141/8/4 133/8/4 142/8/4
f 139/6/4 140/6/4 143/6/4
f 142/4/4 139/4/4 143/4/4
f 143/6/4 140/6/4 144/6/4
f 144/6/4 140/6/4 145/6/4
f 145/6/4 140/6/4 146/6/4
f 145/1/4 146/1/4 147/1/4
f 147/1/4 146/1/4 148/1/4
f 149/1/4 150/1/4 152/1/4
f 150/3/4 151/3/4 153/3/4
f 152/1/4 150/1/4 153/1/4
f 153/3/4 151/3/4 154/3/4
f 159/8/5 156/8/5 155/8/5
f 160/8/5 156/8/5 159/8/5
f 161/8/5 158/8/5 157/8/5
f 162/8/5 158/8/5 161/8/5
f 165/4/5 164/4/5 163/4/5
f 166/4/5 164/4/5 165/4/5
f 173/1/5 168/1/5 167/1/5
f 174/6/5 169/6/5 168/6/5
f 174/1/5 168/1/5 173/1/5
f 175/6/5 169/6/5 174/6/5
f 176/6/5 171/6/5 170/6/5
f 177/1/5 172/1/5 171/1/5
f 177/6/5 171/6/5 176/6/5
f 178/1/5 172/1/5 177/1/5
f 181/1/5 180/1/5 179/1/5
f 182/1/5 180/1/5 181/1/5
f 183/1/5 180/1/5 182/1/5
f 184/1/5 180/1/5 183/1/5
f 185/1/5 180/1/5 184/1/5
f 189/1/5 187/1/5 186/1/5
f 189/1/5 188/1/5 187/1/5
f 190/1/5 188/1/5 189/1/5
f 191/1/6 192/1/6 197/1/6
f 192/6/6 193/6/6 198/6/6
f 197/1/6 192/1/6 198/1/6
f 198/6/6 193/6/6 199/6/6
f 194/6/6 195/6/6 200/6/6
f 195/1/6 196/1/6 201/1/6
f 200/6/6 195/6/6 201/6/6
f 201/1/6 196/1/6 202/1/6
f 203/3/6 204/3/6 205/3/6
f 205/3/6 204/3/6 206/3/6
