# MagicaVoxel @ Ephtracy

# group
o 

# material
mtllib Soldier2.mtl
usemtl palette

# normals
vn -1 0 0
vn 1 0 0
vn 0 0 1
vn 0 0 -1
vn 0 -1 0
vn 0 1 0

# texcoords
vt 0.0332031 0.5
vt 0.0371094 0.5
vt 0.0410156 0.5
vt 0.0605469 0.5
vt 0.208984 0.5
vt 0.373047 0.5
vt 0.865234 0.5
vt 0.873047 0.5

# verts
v -1.2 1 0.2
v -1.2 1 0
v -1.2 1.1 0.2
v -1.2 1.1 0
v -0.6 0 0.2
v -0.6 0 0
v -0.6 0.1 0.2
v -0.6 0.1 0
v -0.6 0.5 0.2
v -0.6 0.5 0
v -0.6 0.7 0.2
v -0.6 0.7 0
v -0.6 0.8 0.2
v -0.6 0.8 0
v -0.6 1 0.2
v -0.6 1 0
v -0.5 1.1 0.3
v -0.5 1.1 0.2
v -0.5 1.1 0
v -0.5 1.1 -0.1
v -0.5 1.2 0
v -0.5 1.2 -0.1
v -0.5 1.3 0.3
v -0.5 1.3 0
v -0.5 1.4 0.3
v -0.5 1.4 -0.1
v -0.1 0 0.2
v -0.1 0 0
v -0.1 0.1 0.2
v -0.1 0.1 0
v -0.1 0.4 0.2
v -0.1 0.4 0
v -0.4 0 0.2
v -0.4 0 0
v -0.4 0.1 0.2
v -0.4 0.1 0
v -0.4 0.4 0.2
v -0.4 0.4 0
v 0 1.1 0.3
v 0 1.1 0.2
v 0 1.1 0
v 0 1.1 -0.1
v 0 1.2 0
v 0 1.2 -0.1
v 0 1.3 0.3
v 0 1.3 0
v 0 1.4 0.3
v 0 1.4 -0.1
v 0.0999999 0 0.2
v 0.0999999 0 0
v 0.0999999 0.1 0.2
v 0.0999999 0.1 0
v 0.0999999 0.5 0.2
v 0.0999999 0.5 0
v 0.0999999 1 0.2
v 0.0999999 1 0
v 0.7 1 0.2
v 0.7 1 0
v 0.7 1.1 0.2
v 0.7 1.1 0
v -0.5 1.1 0.3
v -0.5 1.3 0.3
v -0.5 1.4 0.3
v -0.4 1.2 0.3
v -0.4 1.3 0.3
v -0.3 1.2 0.3
v -0.3 1.3 0.3
v -0.2 1.2 0.3
v -0.2 1.3 0.3
v -0.1 1.2 0.3
v -0.1 1.3 0.3
v 0 1.1 0.3
v 0 1.3 0.3
v 0 1.4 0.3
v -1.2 1 0.2
v -1.2 1.1 0.2
v -0.7 1 0.2
v -0.7 1.1 0.2
v -0.6 0 0.2
v -0.6 0.1 0.2
v -0.6 0.5 0.2
v -0.6 0.7 0.2
v -0.6 0.8 0.2
v -0.6 1 0.2
v -0.5 1.1 0.2
v -0.4 0 0.2
v -0.4 0.1 0.2
v -0.4 0.4 0.2
v -0.4 0.6 0.2
v -0.4 0.7 0.2
v -0.4 0.8 0.2
v -0.4 0.9 0.2
v -0.4 1 0.2
v -0.4 1.1 0.2
v -0.3 0.6 0.2
v -0.3 0.7 0.2
v -0.3 0.8 0.2
v -0.3 0.9 0.2
v -0.3 1 0.2
v -0.3 1.1 0.2
v -0.1 0 0.2
v -0.1 0.1 0.2
v -0.1 0.4 0.2
v -0.1 0.5 0.2
v -0.1 0.7 0.2
v -0.1 0.8 0.2
v -0.1 1.1 0.2
v 0 0.5 0.2
v 0 1.1 0.2
v 0.0999999 0 0.2
v 0.0999999 0.1 0.2
v 0.0999999 0.5 0.2
v 0.0999999 1 0.2
v 0.2 1 0.2
v 0.2 1.1 0.2
v 0.7 1 0.2
v 0.7 1.1 0.2
v -1.2 1 0
v -1.2 1.1 0
v -0.7 1 0
v -0.7 1.1 0
v -0.6 0 0
v -0.6 0.1 0
v -0.6 0.5 0
v -0.6 0.7 0
v -0.6 0.8 0
v -0.6 1 0
v -0.5 1.1 0
v -0.4 0 0
v -0.4 0.1 0
v -0.4 0.4 0
v -0.1 0 0
v -0.1 0.1 0
v -0.1 0.4 0
v -0.1 0.5 0
v -0.1 0.7 0
v -0.1 0.8 0
v -0.1 1.1 0
v 0 0.5 0
v 0 1.1 0
v 0.0999999 0 0
v 0.0999999 0.1 0
v 0.0999999 0.5 0
v 0.0999999 1 0
v 0.2 1 0
v 0.2 1.1 0
v 0.7 1 0
v 0.7 1.1 0
v -0.5 1.1 -0.1
v -0.5 1.2 -0.1
v -0.5 1.4 -0.1
v 0 1.1 -0.1
v 0 1.2 -0.1
v 0 1.4 -0.1
v -0.6 0 0.2
v -0.4 0 0.2
v -0.1 0 0.2
v 0.0999999 0 0.2
v -0.6 0 0
v -0.4 0 0
v -0.1 0 0
v 0.0999999 0 0
v -0.4 0.4 0.2
v -0.1 0.4 0.2
v -0.4 0.4 0
v -0.1 0.4 0
v -1.2 1 0.2
v -0.7 1 0.2
v -0.6 1 0.2
v 0.0999999 1 0.2
v 0.2 1 0.2
v 0.7 1 0.2
v -1.2 1 0
v -0.7 1 0
v -0.6 1 0
v 0.0999999 1 0
v 0.2 1 0
v 0.7 1 0
v -0.5 1.1 0.3
v 0 1.1 0.3
v -0.5 1.1 0.2
v -0.4 1.1 0.2
v -0.3 1.1 0.2
v -0.1 1.1 0.2
v 0 1.1 0.2
v -0.5 1.1 0
v -0.1 1.1 0
v 0 1.1 0
v -0.5 1.1 -0.1
v 0 1.1 -0.1
v -1.2 1.1 0.2
v -0.7 1.1 0.2
v -0.5 1.1 0.2
v 0 1.1 0.2
v 0.2 1.1 0.2
v 0.7 1.1 0.2
v -1.2 1.1 0
v -0.7 1.1 0
v -0.5 1.1 0
v 0 1.1 0
v 0.2 1.1 0
v 0.7 1.1 0
v -0.5 1.4 0.3
v 0 1.4 0.3
v -0.5 1.4 -0.1
v 0 1.4 -0.1

# faces
f 3/4/1 2/4/1 1/4/1
f 4/4/1 2/4/1 3/4/1
f 7/6/1 6/6/1 5/6/1
f 8/6/1 6/6/1 7/6/1
f 9/2/1 8/2/1 7/2/1
f 10/2/1 8/2/1 9/2/1
f 11/5/1 10/5/1 9/5/1
f 12/5/1 10/5/1 11/5/1
f 13/3/1 12/3/1 11/3/1
f 14/3/1 12/3/1 13/3/1
f 15/5/1 14/5/1 13/5/1
f 16/5/1 14/5/1 15/5/1
f 21/4/1 18/4/1 17/4/1
f 21/4/1 20/4/1 19/4/1
f 21/4/1 19/4/1 18/4/1
f 22/4/1 20/4/1 21/4/1
f 23/4/1 21/4/1 17/4/1
f 24/8/1 22/8/1 21/8/1
f 24/4/1 21/4/1 23/4/1
f 25/8/1 24/8/1 23/8/1
f 26/8/1 22/8/1 24/8/1
f 26/8/1 24/8/1 25/8/1
f 29/6/1 28/6/1 27/6/1
f 30/6/1 28/6/1 29/6/1
f 31/2/1 30/2/1 29/2/1
f 32/2/1 30/2/1 31/2/1
f 33/6/2 34/6/2 35/6/2
f 35/6/2 34/6/2 36/6/2
f 35/2/2 36/2/2 37/2/2
f 37/2/2 36/2/2 38/2/2
f 39/4/2 40/4/2 43/4/2
f 41/4/2 42/4/2 43/4/2
f 40/4/2 41/4/2 43/4/2
f 43/4/2 42/4/2 44/4/2
f 39/4/2 43/4/2 45/4/2
f 43/8/2 44/8/2 46/8/2
f 45/4/2 43/4/2 46/4/2
f 45/8/2 46/8/2 47/8/2
f 46/8/2 44/8/2 48/8/2
f 47/8/2 46/8/2 48/8/2
f 49/6/2 50/6/2 51/6/2
f 51/6/2 50/6/2 52/6/2
f 51/2/2 52/2/2 53/2/2
f 53/2/2 52/2/2 54/2/2
f 53/5/2 54/5/2 55/5/2
f 55/5/2 54/5/2 56/5/2
f 57/4/2 58/4/2 59/4/2
f 59/4/2 58/4/2 60/4/2
f 64/4/3 62/4/3 61/4/3
f 65/8/3 63/8/3 62/8/3
f 65/4/3 62/4/3 64/4/3
f 66/4/3 64/4/3 61/4/3
f 66/7/3 65/7/3 64/7/3
f 67/8/3 63/8/3 65/8/3
f 67/7/3 65/7/3 66/7/3
f 68/4/3 66/4/3 61/4/3
f 68/4/3 67/4/3 66/4/3
f 69/8/3 63/8/3 67/8/3
f 69/4/3 67/4/3 68/4/3
f 70/4/3 68/4/3 61/4/3
f 70/7/3 69/7/3 68/7/3
f 71/8/3 63/8/3 69/8/3
f 71/7/3 69/7/3 70/7/3
f 72/4/3 70/4/3 61/4/3
f 72/4/3 71/4/3 70/4/3
f 73/8/3 63/8/3 71/8/3
f 73/4/3 71/4/3 72/4/3
f 74/8/3 63/8/3 73/8/3
f 77/4/3 76/4/3 75/4/3
f 78/4/3 76/4/3 77/4/3
f 84/5/3 78/5/3 77/5/3
f 85/5/3 78/5/3 84/5/3
f 85/5/3 84/5/3 83/5/3
f 86/6/3 80/6/3 79/6/3
f 87/2/3 81/2/3 80/2/3
f 87/6/3 80/6/3 86/6/3
f 88/2/3 81/2/3 87/2/3
f 89/5/3 82/5/3 81/5/3
f 90/3/3 83/3/3 82/3/3
f 90/5/3 82/5/3 89/5/3
f 91/5/3 85/5/3 83/5/3
f 91/3/3 83/3/3 90/3/3
f 92/5/3 85/5/3 91/5/3
f 93/5/3 85/5/3 92/5/3
f 94/5/3 85/5/3 93/5/3
f 95/5/3 89/5/3 81/5/3
f 95/6/3 90/6/3 89/6/3
f 96/3/3 91/3/3 90/3/3
f 96/6/3 90/6/3 95/6/3
f 97/6/3 92/6/3 91/6/3
f 97/3/3 91/3/3 96/3/3
f 98/5/3 93/5/3 92/5/3
f 98/6/3 92/6/3 97/6/3
f 99/6/3 94/6/3 93/6/3
f 99/5/3 93/5/3 98/5/3
f 100/6/3 94/6/3 99/6/3
f 103/2/3 81/2/3 88/2/3
f 104/5/3 96/5/3 95/5/3
f 104/5/3 95/5/3 81/5/3
f 104/2/3 81/2/3 103/2/3
f 105/3/3 97/3/3 96/3/3
f 105/5/3 96/5/3 104/5/3
f 106/5/3 98/5/3 97/5/3
f 106/3/3 97/3/3 105/3/3
f 106/5/3 99/5/3 98/5/3
f 106/5/3 100/5/3 99/5/3
f 107/5/3 100/5/3 106/5/3
f 108/3/3 105/3/3 104/3/3
f 108/2/3 104/2/3 103/2/3
f 108/3/3 107/3/3 106/3/3
f 108/3/3 106/3/3 105/3/3
f 108/2/3 103/2/3 102/2/3
f 109/3/3 107/3/3 108/3/3
f 110/6/3 102/6/3 101/6/3
f 111/2/3 108/2/3 102/2/3
f 111/6/3 102/6/3 110/6/3
f 112/5/3 109/5/3 108/5/3
f 112/2/3 108/2/3 111/2/3
f 113/5/3 109/5/3 112/5/3
f 114/5/3 109/5/3 113/5/3
f 115/5/3 109/5/3 114/5/3
f 116/4/3 115/4/3 114/4/3
f 117/4/3 115/4/3 116/4/3
f 118/4/4 119/4/4 120/4/4
f 120/4/4 119/4/4 121/4/4
f 120/5/4 121/5/4 127/5/4
f 127/5/4 121/5/4 128/5/4
f 126/5/4 127/5/4 128/5/4
f 122/6/4 123/6/4 129/6/4
f 123/2/4 124/2/4 130/2/4
f 129/6/4 123/6/4 130/6/4
f 130/2/4 124/2/4 131/2/4
f 131/2/4 124/2/4 134/2/4
f 124/5/4 125/5/4 135/5/4
f 134/2/4 124/2/4 135/2/4
f 125/3/4 126/3/4 136/3/4
f 135/5/4 125/5/4 136/5/4
f 126/5/4 128/5/4 137/5/4
f 136/3/4 126/3/4 137/3/4
f 137/5/4 128/5/4 138/5/4
f 134/2/4 135/2/4 139/2/4
f 133/2/4 134/2/4 139/2/4
f 137/3/4 138/3/4 139/3/4
f 136/3/4 137/3/4 139/3/4
f 135/3/4 136/3/4 139/3/4
f 139/3/4 138/3/4 140/3/4
f 132/6/4 133/6/4 141/6/4
f 133/2/4 139/2/4 142/2/4
f 141/6/4 133/6/4 142/6/4
f 139/5/4 140/5/4 143/5/4
f 142/2/4 139/2/4 143/2/4
f 143/5/4 140/5/4 144/5/4
f 144/5/4 140/5/4 145/5/4
f 145/5/4 140/5/4 146/5/4
f 145/4/4 146/4/4 147/4/4
f 147/4/4 146/4/4 148/4/4
f 149/4/4 150/4/4 152/4/4
f 150/8/4 151/8/4 153/8/4
f 152/4/4 150/4/4 153/4/4
f 153/8/4 151/8/4 154/8/4
f 159/6/5 156/6/5 155/6/5
f 160/6/5 156/6/5 159/6/5
f 161/6/5 158/6/5 157/6/5
f 162/6/5 158/6/5 161/6/5
f 165/2/5 164/2/5 163/2/5
f 166/2/5 164/2/5 165/2/5
f 173/4/5 168/4/5 167/4/5
f 174/5/5 169/5/5 168/5/5
f 174/4/5 168/4/5 173/4/5
f 175/5/5 169/5/5 174/5/5
f 176/5/5 171/5/5 170/5/5
f 177/4/5 172/4/5 171/4/5
f 177/5/5 171/5/5 176/5/5
f 178/4/5 172/4/5 177/4/5
f 181/4/5 180/4/5 179/4/5
f 182/4/5 180/4/5 181/4/5
f 183/4/5 180/4/5 182/4/5
f 184/4/5 180/4/5 183/4/5
f 185/4/5 180/4/5 184/4/5
f 189/4/5 187/4/5 186/4/5
f 189/4/5 188/4/5 187/4/5
f 190/4/5 188/4/5 189/4/5
f 191/4/6 192/4/6 197/4/6
f 192/5/6 193/5/6 198/5/6
f 197/4/6 192/4/6 198/4/6
f 198/5/6 193/5/6 199/5/6
f 194/5/6 195/5/6 200/5/6
f 195/4/6 196/4/6 201/4/6
f 200/5/6 195/5/6 201/5/6
f 201/4/6 196/4/6 202/4/6
f 203/8/6 204/8/6 205/8/6
f 205/8/6 204/8/6 206/8/6
