# MagicaVoxel @ Ephtracy

# group
o 

# material
mtllib Grid Tile.mtl
usemtl palette

# normals
vn -1 0 0
vn 1 0 0
vn 0 0 1
vn 0 0 -1
vn 0 -1 0
vn 0 1 0

# texcoords
vt 0.00976562 0.5
vt 0.0644531 0.5
vt 0.349609 0.5

# verts
v -0.6 0 0.6
v -0.6 0 0.4
v -0.6 0 0.2
v -0.6 0 -0.2
v -0.6 0 -0.3
v -0.6 0 -0.6
v -0.6 0.1 0.6
v -0.6 0.1 0.4
v -0.6 0.1 0.2
v -0.6 0.1 -0.2
v -0.6 0.1 -0.3
v -0.6 0.1 -0.6
v 0.6 0 0.6
v 0.6 0 0.5
v 0.6 0 0.2
v 0.6 0 5.96046e-08
v 0.6 0 -0.3
v 0.6 0 -0.5
v 0.6 0 -0.6
v 0.6 0.1 0.6
v 0.6 0.1 0.5
v 0.6 0.1 0.2
v 0.6 0.1 5.96046e-08
v 0.6 0.1 -0.3
v 0.6 0.1 -0.5
v 0.6 0.1 -0.6
v -0.6 0 0.6
v -0.6 0.1 0.6
v -0.5 0 0.6
v -0.5 0.1 0.6
v 0.4 0 0.6
v 0.4 0.1 0.6
v 0.5 0 0.6
v 0.5 0.1 0.6
v 0.6 0 0.6
v 0.6 0.1 0.6
v -0.6 0 -0.6
v -0.6 0.1 -0.6
v -0.5 0 -0.6
v -0.5 0.1 -0.6
v -0.1 0 -0.6
v -0.1 0.1 -0.6
v -5.96046e-08 0 -0.6
v -5.96046e-08 0.1 -0.6
v 0.3 0 -0.6
v 0.3 0.1 -0.6
v 0.5 0 -0.6
v 0.5 0.1 -0.6
v 0.6 0 -0.6
v 0.6 0.1 -0.6
v -0.6 0 0.6
v -0.5 0 0.6
v 0.4 0 0.6
v 0.5 0 0.6
v 0.6 0 0.6
v -0.4 0 0.5
v -0.3 0 0.5
v -0.2 0 0.5
v 0.1 0 0.5
v 0.2 0 0.5
v 0.3 0 0.5
v 0.4 0 0.5
v 0.5 0 0.5
v 0.6 0 0.5
v -0.6 0 0.4
v -0.5 0 0.4
v -0.4 0 0.4
v -0.3 0 0.4
v -0.2 0 0.4
v -0.1 0 0.4
v 0.1 0 0.4
v 0.2 0 0.4
v 0.3 0 0.4
v 0.4 0 0.4
v -0.5 0 0.3
v -0.4 0 0.3
v -0.3 0 0.3
v -0.2 0 0.3
v -5.96046e-08 0 0.3
v 0.1 0 0.3
v 0.2 0 0.3
v 0.3 0 0.3
v 0.5 0 0.3
v -0.6 0 0.2
v -0.5 0 0.2
v -0.4 0 0.2
v -0.3 0 0.2
v -0.2 0 0.2
v 0.1 0 0.2
v 0.2 0 0.2
v 0.3 0 0.2
v 0.4 0 0.2
v 0.5 0 0.2
v 0.6 0 0.2
v -0.2 0 0.1
v -0.1 0 0.1
v -5.96046e-08 0 0.1
v 0.1 0 0.1
v 0.3 0 0.1
v 0.4 0 0.1
v 0.5 0 0.1
v -0.4 0 5.96046e-08
v -0.3 0 5.96046e-08
v -0.2 0 5.96046e-08
v -0.1 0 5.96046e-08
v 0.3 0 5.96046e-08
v 0.5 0 5.96046e-08
v 0.6 0 5.96046e-08
v -0.4 0 -0.1
v -0.2 0 -0.1
v -0.1 0 -0.1
v -5.96046e-08 0 -0.1
v 0.2 0 -0.1
v 0.3 0 -0.1
v 0.4 0 -0.1
v 0.5 0 -0.1
v -0.6 0 -0.2
v -0.5 0 -0.2
v -0.3 0 -0.2
v -0.2 0 -0.2
v -0.1 0 -0.2
v -5.96046e-08 0 -0.2
v -0.6 0 -0.3
v -0.5 0 -0.3
v -0.4 0 -0.3
v -0.3 0 -0.3
v -0.2 0 -0.3
v -0.1 0 -0.3
v -5.96046e-08 0 -0.3
v 0.2 0 -0.3
v 0.3 0 -0.3
v 0.4 0 -0.3
v 0.5 0 -0.3
v 0.6 0 -0.3
v -0.4 0 -0.4
v -0.3 0 -0.4
v -0.2 0 -0.4
v -0.1 0 -0.4
v -5.96046e-08 0 -0.4
v 0.1 0 -0.4
v 0.2 0 -0.4
v 0.3 0 -0.4
v 0.4 0 -0.4
v 0.5 0 -0.4
v -0.4 0 -0.5
v -0.3 0 -0.5
v -5.96046e-08 0 -0.5
v 0.1 0 -0.5
v 0.2 0 -0.5
v 0.3 0 -0.5
v 0.5 0 -0.5
v 0.6 0 -0.5
v -0.6 0 -0.6
v -0.5 0 -0.6
v -0.1 0 -0.6
v -5.96046e-08 0 -0.6
v 0.3 0 -0.6
v 0.5 0 -0.6
v 0.6 0 -0.6
v -0.6 0.1 0.6
v -0.5 0.1 0.6
v 0.4 0.1 0.6
v 0.5 0.1 0.6
v 0.6 0.1 0.6
v -0.4 0.1 0.5
v -0.3 0.1 0.5
v -0.2 0.1 0.5
v 0.1 0.1 0.5
v 0.2 0.1 0.5
v 0.3 0.1 0.5
v 0.4 0.1 0.5
v 0.5 0.1 0.5
v 0.6 0.1 0.5
v -0.6 0.1 0.4
v -0.5 0.1 0.4
v -0.4 0.1 0.4
v -0.3 0.1 0.4
v -0.2 0.1 0.4
v -0.1 0.1 0.4
v 0.1 0.1 0.4
v 0.2 0.1 0.4
v 0.3 0.1 0.4
v 0.4 0.1 0.4
v -0.5 0.1 0.3
v -0.4 0.1 0.3
v -0.3 0.1 0.3
v -0.2 0.1 0.3
v -5.96046e-08 0.1 0.3
v 0.1 0.1 0.3
v 0.2 0.1 0.3
v 0.3 0.1 0.3
v 0.5 0.1 0.3
v -0.6 0.1 0.2
v -0.5 0.1 0.2
v -0.4 0.1 0.2
v -0.3 0.1 0.2
v -0.2 0.1 0.2
v 0.1 0.1 0.2
v 0.2 0.1 0.2
v 0.3 0.1 0.2
v 0.4 0.1 0.2
v 0.5 0.1 0.2
v 0.6 0.1 0.2
v -0.2 0.1 0.1
v -0.1 0.1 0.1
v -5.96046e-08 0.1 0.1
v 0.1 0.1 0.1
v 0.3 0.1 0.1
v 0.4 0.1 0.1
v 0.5 0.1 0.1
v -0.4 0.1 5.96046e-08
v -0.3 0.1 5.96046e-08
v -0.2 0.1 5.96046e-08
v -0.1 0.1 5.96046e-08
v 0.3 0.1 5.96046e-08
v 0.5 0.1 5.96046e-08
v 0.6 0.1 5.96046e-08
v -0.4 0.1 -0.1
v -0.2 0.1 -0.1
v -0.1 0.1 -0.1
v -5.96046e-08 0.1 -0.1
v 0.2 0.1 -0.1
v 0.3 0.1 -0.1
v 0.4 0.1 -0.1
v 0.5 0.1 -0.1
v -0.6 0.1 -0.2
v -0.5 0.1 -0.2
v -0.3 0.1 -0.2
v -0.2 0.1 -0.2
v -0.1 0.1 -0.2
v -5.96046e-08 0.1 -0.2
v -0.6 0.1 -0.3
v -0.5 0.1 -0.3
v -0.4 0.1 -0.3
v -0.3 0.1 -0.3
v -0.2 0.1 -0.3
v -0.1 0.1 -0.3
v -5.96046e-08 0.1 -0.3
v 0.2 0.1 -0.3
v 0.3 0.1 -0.3
v 0.4 0.1 -0.3
v 0.5 0.1 -0.3
v 0.6 0.1 -0.3
v -0.4 0.1 -0.4
v -0.3 0.1 -0.4
v -0.2 0.1 -0.4
v -0.1 0.1 -0.4
v -5.96046e-08 0.1 -0.4
v 0.1 0.1 -0.4
v 0.2 0.1 -0.4
v 0.3 0.1 -0.4
v 0.4 0.1 -0.4
v 0.5 0.1 -0.4
v -0.4 0.1 -0.5
v -0.3 0.1 -0.5
v -5.96046e-08 0.1 -0.5
v 0.1 0.1 -0.5
v 0.2 0.1 -0.5
v 0.3 0.1 -0.5
v 0.5 0.1 -0.5
v 0.6 0.1 -0.5
v -0.6 0.1 -0.6
v -0.5 0.1 -0.6
v -0.1 0.1 -0.6
v -5.96046e-08 0.1 -0.6
v 0.3 0.1 -0.6
v 0.5 0.1 -0.6
v 0.6 0.1 -0.6

# faces
f 7/2/1 2/2/1 1/2/1
f 8/3/1 3/3/1 2/3/1
f 8/2/1 2/2/1 7/2/1
f 9/2/1 4/2/1 3/2/1
f 9/3/1 3/3/1 8/3/1
f 10/3/1 5/3/1 4/3/1
f 10/2/1 4/2/1 9/2/1
f 11/2/1 6/2/1 5/2/1
f 11/3/1 5/3/1 10/3/1
f 12/2/1 6/2/1 11/2/1
f 13/3/2 14/3/2 20/3/2
f 14/2/2 15/2/2 21/2/2
f 20/3/2 14/3/2 21/3/2
f 15/3/2 16/3/2 22/3/2
f 21/2/2 15/2/2 22/2/2
f 16/2/2 17/2/2 23/2/2
f 22/3/2 16/3/2 23/3/2
f 17/3/2 18/3/2 24/3/2
f 23/2/2 17/2/2 24/2/2
f 18/1/2 19/1/2 25/1/2
f 24/3/2 18/3/2 25/3/2
f 25/1/2 19/1/2 26/1/2
f 29/2/3 28/2/3 27/2/3
f 30/2/3 28/2/3 29/2/3
f 31/3/3 30/3/3 29/3/3
f 32/3/3 30/3/3 31/3/3
f 33/2/3 32/2/3 31/2/3
f 34/2/3 32/2/3 33/2/3
f 35/3/3 34/3/3 33/3/3
f 36/3/3 34/3/3 35/3/3
f 37/2/4 38/2/4 39/2/4
f 39/2/4 38/2/4 40/2/4
f 39/3/4 40/3/4 41/3/4
f 41/3/4 40/3/4 42/3/4
f 41/2/4 42/2/4 43/2/4
f 43/2/4 42/2/4 44/2/4
f 43/3/4 44/3/4 45/3/4
f 45/3/4 44/3/4 46/3/4
f 45/2/4 46/2/4 47/2/4
f 47/2/4 46/2/4 48/2/4
f 47/1/4 48/1/4 49/1/4
f 49/1/4 48/1/4 50/1/4
f 56/3/5 53/3/5 52/3/5
f 57/3/5 53/3/5 56/3/5
f 58/3/5 53/3/5 57/3/5
f 59/3/5 53/3/5 58/3/5
f 60/3/5 53/3/5 59/3/5
f 61/3/5 53/3/5 60/3/5
f 62/2/5 54/2/5 53/2/5
f 62/3/5 53/3/5 61/3/5
f 63/3/5 55/3/5 54/3/5
f 63/2/5 54/2/5 62/2/5
f 64/3/5 55/3/5 63/3/5
f 65/2/5 52/2/5 51/2/5
f 66/3/5 56/3/5 52/3/5
f 66/2/5 52/2/5 65/2/5
f 67/1/5 57/1/5 56/1/5
f 67/3/5 56/3/5 66/3/5
f 68/2/5 58/2/5 57/2/5
f 68/1/5 57/1/5 67/1/5
f 69/3/5 59/3/5 58/3/5
f 69/2/5 58/2/5 68/2/5
f 70/3/5 59/3/5 69/3/5
f 71/2/5 60/2/5 59/2/5
f 71/3/5 59/3/5 70/3/5
f 72/3/5 61/3/5 60/3/5
f 72/2/5 60/2/5 71/2/5
f 73/1/5 62/1/5 61/1/5
f 73/3/5 61/3/5 72/3/5
f 74/2/5 63/2/5 62/2/5
f 74/1/5 62/1/5 73/1/5
f 74/2/5 64/2/5 63/2/5
f 75/3/5 66/3/5 65/3/5
f 75/3/5 67/3/5 66/3/5
f 76/2/5 68/2/5 67/2/5
f 76/3/5 67/3/5 75/3/5
f 77/3/5 69/3/5 68/3/5
f 77/2/5 68/2/5 76/2/5
f 78/1/5 70/1/5 69/1/5
f 78/3/5 69/3/5 77/3/5
f 79/2/5 71/2/5 70/2/5
f 80/3/5 72/3/5 71/3/5
f 80/2/5 71/2/5 79/2/5
f 80/3/5 73/3/5 72/3/5
f 81/3/5 73/3/5 80/3/5
f 82/2/5 74/2/5 73/2/5
f 82/3/5 73/3/5 81/3/5
f 83/2/5 64/2/5 74/2/5
f 83/2/5 74/2/5 82/2/5
f 84/3/5 75/3/5 65/3/5
f 85/1/5 76/1/5 75/1/5
f 85/3/5 75/3/5 84/3/5
f 86/2/5 77/2/5 76/2/5
f 86/1/5 76/1/5 85/1/5
f 86/2/5 78/2/5 77/2/5
f 87/2/5 78/2/5 86/2/5
f 88/1/5 70/1/5 78/1/5
f 88/2/5 78/2/5 87/2/5
f 89/3/5 81/3/5 80/3/5
f 89/3/5 80/3/5 79/3/5
f 90/1/5 82/1/5 81/1/5
f 90/3/5 81/3/5 89/3/5
f 91/3/5 83/3/5 82/3/5
f 91/1/5 82/1/5 90/1/5
f 92/3/5 83/3/5 91/3/5
f 93/2/5 64/2/5 83/2/5
f 93/3/5 83/3/5 92/3/5
f 94/2/5 64/2/5 93/2/5
f 95/1/5 70/1/5 88/1/5
f 95/1/5 88/1/5 87/1/5
f 96/2/5 79/2/5 70/2/5
f 96/1/5 70/1/5 95/1/5
f 97/3/5 89/3/5 79/3/5
f 97/2/5 79/2/5 96/2/5
f 98/2/5 92/2/5 91/2/5
f 98/3/5 89/3/5 97/3/5
f 98/2/5 90/2/5 89/2/5
f 98/2/5 91/2/5 90/2/5
f 99/2/5 92/2/5 98/2/5
f 100/3/5 93/3/5 92/3/5
f 100/2/5 92/2/5 99/2/5
f 100/3/5 94/3/5 93/3/5
f 101/3/5 94/3/5 100/3/5
f 102/2/5 87/2/5 86/2/5
f 102/3/5 86/3/5 85/3/5
f 103/1/5 95/1/5 87/1/5
f 103/2/5 87/2/5 102/2/5
f 104/2/5 96/2/5 95/2/5
f 104/1/5 95/1/5 103/1/5
f 105/3/5 97/3/5 96/3/5
f 105/2/5 96/2/5 104/2/5
f 105/3/5 99/3/5 98/3/5
f 105/3/5 98/3/5 97/3/5
f 106/2/5 100/2/5 99/2/5
f 106/3/5 99/3/5 105/3/5
f 106/2/5 101/2/5 100/2/5
f 107/3/5 94/3/5 101/3/5
f 107/2/5 101/2/5 106/2/5
f 108/3/5 94/3/5 107/3/5
f 109/3/5 102/3/5 85/3/5
f 109/3/5 103/3/5 102/3/5
f 109/3/5 104/3/5 103/3/5
f 109/3/5 105/3/5 104/3/5
f 110/3/5 105/3/5 109/3/5
f 111/2/5 106/2/5 105/2/5
f 111/3/5 105/3/5 110/3/5
f 112/2/5 106/2/5 111/2/5
f 113/2/5 106/2/5 112/2/5
f 114/1/5 107/1/5 106/1/5
f 114/2/5 106/2/5 113/2/5
f 115/1/5 107/1/5 114/1/5
f 116/2/5 108/2/5 107/2/5
f 116/1/5 107/1/5 115/1/5
f 117/2/5 85/2/5 84/2/5
f 118/3/5 109/3/5 85/3/5
f 118/2/5 85/2/5 117/2/5
f 119/2/5 110/2/5 109/2/5
f 120/3/5 111/3/5 110/3/5
f 120/2/5 110/2/5 119/2/5
f 121/1/5 112/1/5 111/1/5
f 121/3/5 111/3/5 120/3/5
f 122/2/5 113/2/5 112/2/5
f 122/1/5 112/1/5 121/1/5
f 123/3/5 118/3/5 117/3/5
f 124/3/5 109/3/5 118/3/5
f 124/3/5 118/3/5 123/3/5
f 125/2/5 119/2/5 109/2/5
f 125/3/5 109/3/5 124/3/5
f 126/1/5 120/1/5 119/1/5
f 126/2/5 119/2/5 125/2/5
f 127/2/5 121/2/5 120/2/5
f 127/1/5 120/1/5 126/1/5
f 128/3/5 122/3/5 121/3/5
f 128/2/5 121/2/5 127/2/5
f 129/2/5 113/2/5 122/2/5
f 129/3/5 122/3/5 128/3/5
f 130/1/5 114/1/5 113/1/5
f 130/2/5 113/2/5 129/2/5
f 131/3/5 115/3/5 114/3/5
f 131/1/5 114/1/5 130/1/5
f 132/2/5 116/2/5 115/2/5
f 132/3/5 115/3/5 131/3/5
f 133/2/5 108/2/5 116/2/5
f 133/2/5 116/2/5 132/2/5
f 134/2/5 108/2/5 133/2/5
f 135/3/5 126/3/5 125/3/5
f 135/3/5 125/3/5 124/3/5
f 135/3/5 127/3/5 126/3/5
f 136/3/5 127/3/5 135/3/5
f 137/1/5 128/1/5 127/1/5
f 137/3/5 127/3/5 136/3/5
f 138/2/5 130/2/5 129/2/5
f 138/1/5 128/1/5 137/1/5
f 138/2/5 129/2/5 128/2/5
f 138/2/5 131/2/5 130/2/5
f 139/2/5 131/2/5 138/2/5
f 140/2/5 131/2/5 139/2/5
f 141/2/5 131/2/5 140/2/5
f 142/1/5 132/1/5 131/1/5
f 142/2/5 131/2/5 141/2/5
f 143/2/5 133/2/5 132/2/5
f 143/1/5 132/1/5 142/1/5
f 144/3/5 134/3/5 133/3/5
f 144/2/5 133/2/5 143/2/5
f 145/3/5 135/3/5 124/3/5
f 145/2/5 136/2/5 135/2/5
f 146/3/5 137/3/5 136/3/5
f 146/2/5 136/2/5 145/2/5
f 146/3/5 138/3/5 137/3/5
f 147/1/5 140/1/5 139/1/5
f 147/2/5 139/2/5 138/2/5
f 148/3/5 141/3/5 140/3/5
f 148/1/5 140/1/5 147/1/5
f 149/2/5 142/2/5 141/2/5
f 149/3/5 141/3/5 148/3/5
f 150/3/5 143/3/5 142/3/5
f 150/2/5 142/2/5 149/2/5
f 150/3/5 144/3/5 143/3/5
f 151/3/5 134/3/5 144/3/5
f 151/3/5 144/3/5 150/3/5
f 152/3/5 134/3/5 151/3/5
f 153/2/5 124/2/5 123/2/5
f 154/3/5 145/3/5 124/3/5
f 154/2/5 124/2/5 153/2/5
f 154/3/5 146/3/5 145/3/5
f 155/2/5 147/2/5 138/2/5
f 155/3/5 146/3/5 154/3/5
f 155/3/5 138/3/5 146/3/5
f 156/3/5 149/3/5 148/3/5
f 156/2/5 147/2/5 155/2/5
f 156/3/5 150/3/5 149/3/5
f 156/3/5 148/3/5 147/3/5
f 157/2/5 151/2/5 150/2/5
f 157/3/5 150/3/5 156/3/5
f 158/1/5 152/1/5 151/1/5
f 158/2/5 151/2/5 157/2/5
f 159/1/5 152/1/5 158/1/5
f 161/3/6 162/3/6 165/3/6
f 165/3/6 162/3/6 166/3/6
f 166/3/6 162/3/6 167/3/6
f 167/3/6 162/3/6 168/3/6
f 168/3/6 162/3/6 169/3/6
f 169/3/6 162/3/6 170/3/6
f 162/2/6 163/2/6 171/2/6
f 170/3/6 162/3/6 171/3/6
f 163/3/6 164/3/6 172/3/6
f 171/2/6 163/2/6 172/2/6
f 172/3/6 164/3/6 173/3/6
f 160/2/6 161/2/6 174/2/6
f 161/3/6 165/3/6 175/3/6
f 174/2/6 161/2/6 175/2/6
f 165/1/6 166/1/6 176/1/6
f 175/3/6 165/3/6 176/3/6
f 166/2/6 167/2/6 177/2/6
f 176/1/6 166/1/6 177/1/6
f 167/3/6 168/3/6 178/3/6
f 177/2/6 167/2/6 178/2/6
f 178/3/6 168/3/6 179/3/6
f 168/2/6 169/2/6 180/2/6
f 179/3/6 168/3/6 180/3/6
f 169/3/6 170/3/6 181/3/6
f 180/2/6 169/2/6 181/2/6
f 170/1/6 171/1/6 182/1/6
f 181/3/6 170/3/6 182/3/6
f 171/2/6 172/2/6 183/2/6
f 182/1/6 171/1/6 183/1/6
f 172/2/6 173/2/6 183/2/6
f 174/3/6 175/3/6 184/3/6
f 175/3/6 176/3/6 184/3/6
f 176/2/6 177/2/6 185/2/6
f 184/3/6 176/3/6 185/3/6
f 177/3/6 178/3/6 186/3/6
f 185/2/6 177/2/6 186/2/6
f 178/1/6 179/1/6 187/1/6
f 186/3/6 178/3/6 187/3/6
f 179/2/6 180/2/6 188/2/6
f 180/3/6 181/3/6 189/3/6
f 188/2/6 180/2/6 189/2/6
f 181/3/6 182/3/6 189/3/6
f 189/3/6 182/3/6 190/3/6
f 182/2/6 183/2/6 191/2/6
f 190/3/6 182/3/6 191/3/6
f 183/2/6 173/2/6 192/2/6
f 191/2/6 183/2/6 192/2/6
f 174/3/6 184/3/6 193/3/6
f 184/1/6 185/1/6 194/1/6
f 193/3/6 184/3/6 194/3/6
f 185/2/6 186/2/6 195/2/6
f 194/1/6 185/1/6 195/1/6
f 186/2/6 187/2/6 195/2/6
f 195/2/6 187/2/6 196/2/6
f 187/1/6 179/1/6 197/1/6
f 196/2/6 187/2/6 197/2/6
f 189/3/6 190/3/6 198/3/6
f 188/3/6 189/3/6 198/3/6
f 190/1/6 191/1/6 199/1/6
f 198/3/6 190/3/6 199/3/6
f 191/3/6 192/3/6 200/3/6
f 199/1/6 191/1/6 200/1/6
f 200/3/6 192/3/6 201/3/6
f 192/2/6 173/2/6 202/2/6
f 201/3/6 192/3/6 202/3/6
f 202/2/6 173/2/6 203/2/6
f 197/1/6 179/1/6 204/1/6
f 196/1/6 197/1/6 204/1/6
f 179/2/6 188/2/6 205/2/6
f 204/1/6 179/1/6 205/1/6
f 188/3/6 198/3/6 206/3/6
f 205/2/6 188/2/6 206/2/6
f 200/2/6 201/2/6 207/2/6
f 206/3/6 198/3/6 207/3/6
f 198/2/6 199/2/6 207/2/6
f 199/2/6 200/2/6 207/2/6
f 207/2/6 201/2/6 208/2/6
f 201/3/6 202/3/6 209/3/6
f 208/2/6 201/2/6 209/2/6
f 202/3/6 203/3/6 209/3/6
f 209/3/6 203/3/6 210/3/6
f 195/2/6 196/2/6 211/2/6
f 194/3/6 195/3/6 211/3/6
f 196/1/6 204/1/6 212/1/6
f 211/2/6 196/2/6 212/2/6
f 204/2/6 205/2/6 213/2/6
f 212/1/6 204/1/6 213/1/6
f 205/3/6 206/3/6 214/3/6
f 213/2/6 205/2/6 214/2/6
f 207/3/6 208/3/6 214/3/6
f 206/3/6 207/3/6 214/3/6
f 208/2/6 209/2/6 215/2/6
f 214/3/6 208/3/6 215/3/6
f 209/2/6 210/2/6 215/2/6
f 210/3/6 203/3/6 216/3/6
f 215/2/6 210/2/6 216/2/6
f 216/3/6 203/3/6 217/3/6
f 194/3/6 211/3/6 218/3/6
f 211/3/6 212/3/6 218/3/6
f 212/3/6 213/3/6 218/3/6
f 213/3/6 214/3/6 218/3/6
f 218/3/6 214/3/6 219/3/6
f 214/2/6 215/2/6 220/2/6
f 219/3/6 214/3/6 220/3/6
f 220/2/6 215/2/6 221/2/6
f 221/2/6 215/2/6 222/2/6
f 215/1/6 216/1/6 223/1/6
f 222/2/6 215/2/6 223/2/6
f 223/1/6 216/1/6 224/1/6
f 216/2/6 217/2/6 225/2/6
f 224/1/6 216/1/6 225/1/6
f 193/2/6 194/2/6 226/2/6
f 194/3/6 218/3/6 227/3/6
f 226/2/6 194/2/6 227/2/6
f 218/2/6 219/2/6 228/2/6
f 219/3/6 220/3/6 229/3/6
f 228/2/6 219/2/6 229/2/6
f 220/1/6 221/1/6 230/1/6
f 229/3/6 220/3/6 230/3/6
f 221/2/6 222/2/6 231/2/6
f 230/1/6 221/1/6 231/1/6
f 226/3/6 227/3/6 232/3/6
f 227/3/6 218/3/6 233/3/6
f 232/3/6 227/3/6 233/3/6
f 218/2/6 228/2/6 234/2/6
f 233/3/6 218/3/6 234/3/6
f 228/1/6 229/1/6 235/1/6
f 234/2/6 228/2/6 235/2/6
f 229/2/6 230/2/6 236/2/6
f 235/1/6 229/1/6 236/1/6
f 230/3/6 231/3/6 237/3/6
f 236/2/6 230/2/6 237/2/6
f 231/2/6 222/2/6 238/2/6
f 237/3/6 231/3/6 238/3/6
f 222/1/6 223/1/6 239/1/6
f 238/2/6 222/2/6 239/2/6
f 223/3/6 224/3/6 240/3/6
f 239/1/6 223/1/6 240/1/6
f 224/2/6 225/2/6 241/2/6
f 240/3/6 224/3/6 241/3/6
f 225/2/6 217/2/6 242/2/6
f 241/2/6 225/2/6 242/2/6
f 242/2/6 217/2/6 243/2/6
f 234/3/6 235/3/6 244/3/6
f 233/3/6 234/3/6 244/3/6
f 235/3/6 236/3/6 244/3/6
f 244/3/6 236/3/6 245/3/6
f 236/1/6 237/1/6 246/1/6
f 245/3/6 236/3/6 246/3/6
f 238/2/6 239/2/6 247/2/6
f 246/1/6 237/1/6 247/1/6
f 237/2/6 238/2/6 247/2/6
f 239/2/6 240/2/6 247/2/6
f 247/2/6 240/2/6 248/2/6
f 248/2/6 240/2/6 249/2/6
f 249/2/6 240/2/6 250/2/6
f 240/1/6 241/1/6 251/1/6
f 250/2/6 240/2/6 251/2/6
f 241/2/6 242/2/6 252/2/6
f 251/1/6 241/1/6 252/1/6
f 242/3/6 243/3/6 253/3/6
f 252/2/6 242/2/6 253/2/6
f 233/3/6 244/3/6 254/3/6
f 244/2/6 245/2/6 254/2/6
f 245/3/6 246/3/6 255/3/6
f 254/2/6 245/2/6 255/2/6
f 246/3/6 247/3/6 255/3/6
f 248/1/6 249/1/6 256/1/6
f 247/2/6 248/2/6 256/2/6
f 249/3/6 250/3/6 257/3/6
f 256/1/6 249/1/6 257/1/6
f 250/2/6 251/2/6 258/2/6
f 257/3/6 250/3/6 258/3/6
f 251/3/6 252/3/6 259/3/6
f 258/2/6 251/2/6 259/2/6
f 252/3/6 253/3/6 259/3/6
f 253/3/6 243/3/6 260/3/6
f 259/3/6 253/3/6 260/3/6
f 260/3/6 243/3/6 261/3/6
f 232/2/6 233/2/6 262/2/6
f 233/3/6 254/3/6 263/3/6
f 262/2/6 233/2/6 263/2/6
f 254/3/6 255/3/6 263/3/6
f 247/2/6 256/2/6 264/2/6
f 263/3/6 255/3/6 264/3/6
f 255/3/6 247/3/6 264/3/6
f 257/3/6 258/3/6 265/3/6
f 264/2/6 256/2/6 265/2/6
f 258/3/6 259/3/6 265/3/6
f 256/3/6 257/3/6 265/3/6
f 259/2/6 260/2/6 266/2/6
f 265/3/6 259/3/6 266/3/6
f 260/1/6 261/1/6 267/1/6
f 266/2/6 260/2/6 267/2/6
f 267/1/6 261/1/6 268/1/6
