# MagicaVoxel @ Ephtracy

# group
o 

# material
mtllib House 3.mtl
usemtl palette

# normals
vn -1 0 0
vn 1 0 0
vn 0 0 1
vn 0 0 -1
vn 0 -1 0
vn 0 1 0

# texcoords
vt 0.0253906 0.5
vt 0.447266 0.5
vt 0.982422 0.5
vt 0.986328 0.5
vt 0.990234 0.5
vt 0.994141 0.5

# verts
v 0.4 2.1 -1
v 0.4 2.1 -2
v 0.4 2.2 -1
v 0.4 2.2 -2
v 0.5 2.2 -1.1
v 0.5 2.2 -2
v 0.5 2.3 -1.1
v 0.5 2.3 -2
v 0.6 2.3 -1.1
v 0.6 2.3 -2
v 0.6 2.4 -1.1
v 0.6 2.4 -2
v 0.7 1 -1
v 0.7 1 -2
v 0.7 1.5 -0.8
v 0.7 1.5 -1
v 0.7 1.6 -0.8
v 0.7 1.6 -1
v 0.7 1.8 -1.1
v 0.7 1.8 -1.4
v 0.7 1.8 -1.6
v 0.7 1.8 -1.9
v 0.7 2.1 -1
v 0.7 2.1 -1.1
v 0.7 2.1 -1.4
v 0.7 2.1 -1.6
v 0.7 2.1 -1.9
v 0.7 2.1 -2
v 0.7 2.4 -1.1
v 0.7 2.4 -2
v 0.7 2.5 -1.1
v 0.7 2.5 -2
v 0.8 1.8 -1.1
v 0.8 1.8 -1.4
v 0.8 1.8 -1.6
v 0.8 1.8 -1.9
v 0.8 2.1 -1.1
v 0.8 2.1 -1.4
v 0.8 2.1 -1.6
v 0.8 2.1 -1.9
v 0.8 2.5 -1.1
v 0.8 2.5 -2
v 0.8 2.6 -1.1
v 0.8 2.6 -2
v 0.9 1.1 -1.1
v 0.9 1.1 -1.2
v 0.9 1.4 -1.1
v 0.9 1.4 -1.2
v 0.9 2.6 -1.1
v 0.9 2.6 -2
v 0.9 2.7 -1.1
v 0.9 2.7 -2
v 1 2.7 -1.1
v 1 2.7 -2
v 1 2.8 -1.1
v 1 2.8 -2
v 1.1 1.1 -1
v 1.1 1.1 -1.1
v 1.1 1.4 -1
v 1.1 1.4 -1.1
v 1.1 1.8 -1
v 1.1 1.8 -1.1
v 1.1 1.8 -1.9
v 1.1 1.8 -2
v 1.1 2.1 -1
v 1.1 2.1 -1.1
v 1.1 2.1 -1.9
v 1.1 2.1 -2
v 1.1 2.7 -1
v 1.1 2.7 -1.1
v 1.1 2.8 -1.1
v 1.1 2.8 -2
v 1.1 2.9 -1
v 1.1 2.9 -2
v 1.3 1.1 -1.1
v 1.3 1.1 -1.2
v 1.3 1.4 -1.1
v 1.3 1.4 -1.2
v 1.3 1.8 -1.1
v 1.3 1.8 -1.2
v 1.3 1.8 -1.8
v 1.3 1.8 -1.9
v 1.3 2 -1.1
v 1.3 2 -1.2
v 1.3 2 -1.8
v 1.3 2 -1.9
v 1.5 1.1 -1
v 1.5 1.1 -1.1
v 1.5 1.4 -1
v 1.5 1.4 -1.1
v 1.5 1.8 -1.2
v 1.5 1.8 -1.4
v 1.5 1.8 -1.6
v 1.5 1.8 -1.8
v 1.5 2 -1.2
v 1.5 2 -1.4
v 1.5 2 -1.6
v 1.5 2 -1.8
v 1.6 1.1 -1.1
v 1.6 1.1 -1.9
v 1.6 1.8 -1
v 1.6 1.8 -1.1
v 1.6 1.8 -1.4
v 1.6 1.8 -1.6
v 1.6 1.8 -1.9
v 1.6 1.8 -2
v 1.6 2 -1.4
v 1.6 2 -1.6
v 1.6 2.1 -1
v 1.6 2.1 -1.1
v 1.6 2.1 -1.9
v 1.6 2.1 -2
v 0.8 1.1 -1.1
v 0.8 1.1 -1.9
v 0.8 1.8 -1
v 0.8 1.8 -1.1
v 0.8 1.8 -1.4
v 0.8 1.8 -1.6
v 0.8 1.8 -1.9
v 0.8 1.8 -2
v 0.8 2 -1.4
v 0.8 2 -1.6
v 0.8 2.1 -1
v 0.8 2.1 -1.1
v 0.8 2.1 -1.9
v 0.8 2.1 -2
v 0.9 1.1 -1
v 0.9 1.1 -1.1
v 0.9 1.4 -1
v 0.9 1.4 -1.1
v 0.9 1.8 -1.2
v 0.9 1.8 -1.4
v 0.9 1.8 -1.6
v 0.9 1.8 -1.8
v 0.9 2 -1.2
v 0.9 2 -1.4
v 0.9 2 -1.6
v 0.9 2 -1.8
v 1.1 1.1 -1.1
v 1.1 1.1 -1.2
v 1.1 1.4 -1.1
v 1.1 1.4 -1.2
v 1.1 1.8 -1.1
v 1.1 1.8 -1.2
v 1.1 1.8 -1.8
v 1.1 1.8 -1.9
v 1.1 2 -1.1
v 1.1 2 -1.2
v 1.1 2 -1.8
v 1.1 2 -1.9
v 1.3 1.1 -1
v 1.3 1.1 -1.1
v 1.3 1.4 -1
v 1.3 1.4 -1.1
v 1.3 1.8 -1
v 1.3 1.8 -1.1
v 1.3 1.8 -1.9
v 1.3 1.8 -2
v 1.3 2.1 -1
v 1.3 2.1 -1.1
v 1.3 2.1 -1.9
v 1.3 2.1 -2
v 1.3 2.7 -1
v 1.3 2.7 -1.1
v 1.3 2.8 -1.1
v 1.3 2.8 -2
v 1.3 2.9 -1
v 1.3 2.9 -2
v 1.4 2.7 -1.1
v 1.4 2.7 -2
v 1.4 2.8 -1.1
v 1.4 2.8 -2
v 1.5 1.1 -1.1
v 1.5 1.1 -1.2
v 1.5 1.4 -1.1
v 1.5 1.4 -1.2
v 1.5 2.6 -1.1
v 1.5 2.6 -2
v 1.5 2.7 -1.1
v 1.5 2.7 -2
v 1.6 1.8 -1.1
v 1.6 1.8 -1.4
v 1.6 1.8 -1.6
v 1.6 1.8 -1.9
v 1.6 2.1 -1.1
v 1.6 2.1 -1.4
v 1.6 2.1 -1.6
v 1.6 2.1 -1.9
v 1.6 2.5 -1.1
v 1.6 2.5 -2
v 1.6 2.6 -1.1
v 1.6 2.6 -2
v 1.7 1 -1
v 1.7 1 -2
v 1.7 1.5 -0.8
v 1.7 1.5 -1
v 1.7 1.6 -0.8
v 1.7 1.6 -1
v 1.7 1.8 -1.1
v 1.7 1.8 -1.4
v 1.7 1.8 -1.6
v 1.7 1.8 -1.9
v 1.7 2.1 -1
v 1.7 2.1 -1.1
v 1.7 2.1 -1.4
v 1.7 2.1 -1.6
v 1.7 2.1 -1.9
v 1.7 2.1 -2
v 1.7 2.4 -1.1
v 1.7 2.4 -2
v 1.7 2.5 -1.1
v 1.7 2.5 -2
v 1.8 2.3 -1.1
v 1.8 2.3 -2
v 1.8 2.4 -1.1
v 1.8 2.4 -2
v 1.9 2.2 -1.1
v 1.9 2.2 -2
v 1.9 2.3 -1.1
v 1.9 2.3 -2
v 2 2.1 -1
v 2 2.1 -2
v 2 2.2 -1
v 2 2.2 -2
v 0.7 1.5 -0.8
v 0.7 1.6 -0.8
v 1.7 1.5 -0.8
v 1.7 1.6 -0.8
v 0.4 2.1 -1
v 0.4 2.2 -1
v 0.7 1 -1
v 0.7 1.5 -1
v 0.7 1.6 -1
v 0.7 2.1 -1
v 0.8 1.8 -1
v 0.8 2.1 -1
v 0.9 1.1 -1
v 0.9 1.4 -1
v 1.1 1.1 -1
v 1.1 1.4 -1
v 1.1 1.8 -1
v 1.1 2.1 -1
v 1.1 2.7 -1
v 1.1 2.9 -1
v 1.3 1.1 -1
v 1.3 1.4 -1
v 1.3 1.8 -1
v 1.3 2.1 -1
v 1.3 2.7 -1
v 1.3 2.9 -1
v 1.5 1.1 -1
v 1.5 1.4 -1
v 1.6 1.8 -1
v 1.6 2.1 -1
v 1.7 1 -1
v 1.7 1.5 -1
v 1.7 1.6 -1
v 1.7 2.1 -1
v 2 2.1 -1
v 2 2.2 -1
v 0.5 2.2 -1.1
v 0.5 2.3 -1.1
v 0.6 2.3 -1.1
v 0.6 2.4 -1.1
v 0.7 2.4 -1.1
v 0.7 2.5 -1.1
v 0.8 1.8 -1.1
v 0.8 2.1 -1.1
v 0.8 2.5 -1.1
v 0.8 2.6 -1.1
v 0.9 1.1 -1.1
v 0.9 1.4 -1.1
v 0.9 2.6 -1.1
v 0.9 2.7 -1.1
v 1 2.7 -1.1
v 1 2.8 -1.1
v 1.1 1.1 -1.1
v 1.1 1.4 -1.1
v 1.1 1.8 -1.1
v 1.1 2.1 -1.1
v 1.1 2.7 -1.1
v 1.1 2.8 -1.1
v 1.3 1.1 -1.1
v 1.3 1.4 -1.1
v 1.3 1.8 -1.1
v 1.3 2.1 -1.1
v 1.3 2.7 -1.1
v 1.3 2.8 -1.1
v 1.4 2.7 -1.1
v 1.4 2.8 -1.1
v 1.5 1.1 -1.1
v 1.5 1.4 -1.1
v 1.5 2.6 -1.1
v 1.5 2.7 -1.1
v 1.6 1.8 -1.1
v 1.6 2.1 -1.1
v 1.6 2.5 -1.1
v 1.6 2.6 -1.1
v 1.7 2.4 -1.1
v 1.7 2.5 -1.1
v 1.8 2.3 -1.1
v 1.8 2.4 -1.1
v 1.9 2.2 -1.1
v 1.9 2.3 -1.1
v 0.7 1.8 -1.4
v 0.7 2.1 -1.4
v 0.8 1.8 -1.4
v 0.8 2.1 -1.4
v 1.6 1.8 -1.4
v 1.6 2.1 -1.4
v 1.7 1.8 -1.4
v 1.7 2.1 -1.4
v 0.8 1.8 -1.6
v 0.8 2 -1.6
v 0.9 1.8 -1.6
v 0.9 2 -1.6
v 1.5 1.8 -1.6
v 1.5 2 -1.6
v 1.6 1.8 -1.6
v 1.6 2 -1.6
v 0.9 1.8 -1.8
v 0.9 2 -1.8
v 1.1 1.8 -1.8
v 1.1 2 -1.8
v 1.3 1.8 -1.8
v 1.3 2 -1.8
v 1.5 1.8 -1.8
v 1.5 2 -1.8
v 0.7 1.8 -1.9
v 0.7 2.1 -1.9
v 0.8 1.1 -1.9
v 0.8 1.8 -1.9
v 0.8 2.1 -1.9
v 1.1 1.8 -1.9
v 1.1 2 -1.9
v 1.3 1.8 -1.9
v 1.3 2 -1.9
v 1.6 1.1 -1.9
v 1.6 1.8 -1.9
v 1.6 2.1 -1.9
v 1.7 1.8 -1.9
v 1.7 2.1 -1.9
v 0.7 1.8 -1.1
v 0.7 2.1 -1.1
v 0.8 1.1 -1.1
v 0.8 1.8 -1.1
v 0.8 2.1 -1.1
v 0.9 1.1 -1.1
v 0.9 1.4 -1.1
v 1.1 1.1 -1.1
v 1.1 1.4 -1.1
v 1.1 1.8 -1.1
v 1.1 2 -1.1
v 1.3 1.1 -1.1
v 1.3 1.4 -1.1
v 1.3 1.8 -1.1
v 1.3 2 -1.1
v 1.5 1.1 -1.1
v 1.5 1.4 -1.1
v 1.6 1.1 -1.1
v 1.6 1.8 -1.1
v 1.6 2.1 -1.1
v 1.7 1.8 -1.1
v 1.7 2.1 -1.1
v 0.9 1.1 -1.2
v 0.9 1.4 -1.2
v 0.9 1.8 -1.2
v 0.9 2 -1.2
v 1.1 1.1 -1.2
v 1.1 1.4 -1.2
v 1.1 1.8 -1.2
v 1.1 2 -1.2
v 1.3 1.1 -1.2
v 1.3 1.4 -1.2
v 1.3 1.8 -1.2
v 1.3 2 -1.2
v 1.5 1.1 -1.2
v 1.5 1.4 -1.2
v 1.5 1.8 -1.2
v 1.5 2 -1.2
v 0.8 1.8 -1.4
v 0.8 2 -1.4
v 0.9 1.8 -1.4
v 0.9 2 -1.4
v 1.5 1.8 -1.4
v 1.5 2 -1.4
v 1.6 1.8 -1.4
v 1.6 2 -1.4
v 0.7 1.8 -1.6
v 0.7 2.1 -1.6
v 0.8 1.8 -1.6
v 0.8 2.1 -1.6
v 1.6 1.8 -1.6
v 1.6 2.1 -1.6
v 1.7 1.8 -1.6
v 1.7 2.1 -1.6
v 0.8 1.8 -1.9
v 0.8 2.1 -1.9
v 1.1 1.8 -1.9
v 1.1 2.1 -1.9
v 1.3 1.8 -1.9
v 1.3 2.1 -1.9
v 1.6 1.8 -1.9
v 1.6 2.1 -1.9
v 0.4 2.1 -2
v 0.4 2.2 -2
v 0.5 2.2 -2
v 0.5 2.3 -2
v 0.6 2.3 -2
v 0.6 2.4 -2
v 0.7 1 -2
v 0.7 2.1 -2
v 0.7 2.4 -2
v 0.7 2.5 -2
v 0.8 1.8 -2
v 0.8 2.1 -2
v 0.8 2.5 -2
v 0.8 2.6 -2
v 0.9 2.6 -2
v 0.9 2.7 -2
v 1 2.7 -2
v 1 2.8 -2
v 1.1 1.8 -2
v 1.1 2.1 -2
v 1.1 2.8 -2
v 1.1 2.9 -2
v 1.3 1.8 -2
v 1.3 2.1 -2
v 1.3 2.8 -2
v 1.3 2.9 -2
v 1.4 2.7 -2
v 1.4 2.8 -2
v 1.5 2.6 -2
v 1.5 2.7 -2
v 1.6 1.8 -2
v 1.6 2.1 -2
v 1.6 2.5 -2
v 1.6 2.6 -2
v 1.7 1 -2
v 1.7 2.1 -2
v 1.7 2.4 -2
v 1.7 2.5 -2
v 1.8 2.3 -2
v 1.8 2.4 -2
v 1.9 2.2 -2
v 1.9 2.3 -2
v 2 2.1 -2
v 2 2.2 -2
v 0.7 1 -1
v 1.7 1 -1
v 0.7 1 -2
v 1.7 1 -2
v 0.9 1.4 -1
v 1.1 1.4 -1
v 1.3 1.4 -1
v 1.5 1.4 -1
v 0.9 1.4 -1.1
v 1.1 1.4 -1.1
v 1.3 1.4 -1.1
v 1.5 1.4 -1.1
v 0.7 1.5 -0.8
v 1.7 1.5 -0.8
v 0.7 1.5 -1
v 1.7 1.5 -1
v 0.8 1.8 -1.1
v 1.1 1.8 -1.1
v 1.3 1.8 -1.1
v 1.6 1.8 -1.1
v 0.9 1.8 -1.2
v 1.1 1.8 -1.2
v 1.3 1.8 -1.2
v 1.5 1.8 -1.2
v 0.8 1.8 -1.4
v 0.9 1.8 -1.4
v 1.5 1.8 -1.4
v 1.6 1.8 -1.4
v 0.8 1.8 -1.6
v 0.9 1.8 -1.6
v 1.5 1.8 -1.6
v 1.6 1.8 -1.6
v 0.9 1.8 -1.8
v 1.1 1.8 -1.8
v 1.3 1.8 -1.8
v 1.5 1.8 -1.8
v 0.8 1.8 -1.9
v 1.1 1.8 -1.9
v 1.3 1.8 -1.9
v 1.6 1.8 -1.9
v 1.1 2 -1.1
v 1.3 2 -1.1
v 0.9 2 -1.2
v 1.1 2 -1.2
v 1.3 2 -1.2
v 1.5 2 -1.2
v 0.8 2 -1.4
v 0.9 2 -1.4
v 1.5 2 -1.4
v 1.6 2 -1.4
v 0.8 2 -1.6
v 0.9 2 -1.6
v 1.5 2 -1.6
v 1.6 2 -1.6
v 0.9 2 -1.8
v 1.1 2 -1.8
v 1.3 2 -1.8
v 1.5 2 -1.8
v 1.1 2 -1.9
v 1.3 2 -1.9
v 0.4 2.1 -1
v 0.7 2.1 -1
v 0.8 2.1 -1
v 1.1 2.1 -1
v 1.3 2.1 -1
v 1.6 2.1 -1
v 1.7 2.1 -1
v 2 2.1 -1
v 0.5 2.1 -1.1
v 0.7 2.1 -1.1
v 0.8 2.1 -1.1
v 1.1 2.1 -1.1
v 1.3 2.1 -1.1
v 1.6 2.1 -1.1
v 1.7 2.1 -1.1
v 1.9 2.1 -1.1
v 0.7 2.1 -1.4
v 0.8 2.1 -1.4
v 1.6 2.1 -1.4
v 1.7 2.1 -1.4
v 0.7 2.1 -1.6
v 0.8 2.1 -1.6
v 1.6 2.1 -1.6
v 1.7 2.1 -1.6
v 0.5 2.1 -1.9
v 0.7 2.1 -1.9
v 0.8 2.1 -1.9
v 1.1 2.1 -1.9
v 1.3 2.1 -1.9
v 1.6 2.1 -1.9
v 1.7 2.1 -1.9
v 1.9 2.1 -1.9
v 0.4 2.1 -2
v 0.7 2.1 -2
v 0.8 2.1 -2
v 1.1 2.1 -2
v 1.3 2.1 -2
v 1.6 2.1 -2
v 1.7 2.1 -2
v 2 2.1 -2
v 1.1 2.7 -1
v 1.3 2.7 -1
v 1.1 2.7 -1.1
v 1.3 2.7 -1.1
v 0.9 1.1 -1
v 1.1 1.1 -1
v 1.3 1.1 -1
v 1.5 1.1 -1
v 0.8 1.1 -1.1
v 0.9 1.1 -1.1
v 1.1 1.1 -1.1
v 1.3 1.1 -1.1
v 1.5 1.1 -1.1
v 1.6 1.1 -1.1
v 0.9 1.1 -1.2
v 1.1 1.1 -1.2
v 1.3 1.1 -1.2
v 1.5 1.1 -1.2
v 0.8 1.1 -1.9
v 1.6 1.1 -1.9
v 0.9 1.4 -1.1
v 1.1 1.4 -1.1
v 1.3 1.4 -1.1
v 1.5 1.4 -1.1
v 0.9 1.4 -1.2
v 1.1 1.4 -1.2
v 1.3 1.4 -1.2
v 1.5 1.4 -1.2
v 0.7 1.6 -0.8
v 1.7 1.6 -0.8
v 0.7 1.6 -1
v 1.7 1.6 -1
v 0.8 1.8 -1
v 1.1 1.8 -1
v 1.3 1.8 -1
v 1.6 1.8 -1
v 0.7 1.8 -1.1
v 0.8 1.8 -1.1
v 1.1 1.8 -1.1
v 1.3 1.8 -1.1
v 1.6 1.8 -1.1
v 1.7 1.8 -1.1
v 0.7 1.8 -1.4
v 0.8 1.8 -1.4
v 1.6 1.8 -1.4
v 1.7 1.8 -1.4
v 0.7 1.8 -1.6
v 0.8 1.8 -1.6
v 1.6 1.8 -1.6
v 1.7 1.8 -1.6
v 0.7 1.8 -1.9
v 0.8 1.8 -1.9
v 1.1 1.8 -1.9
v 1.3 1.8 -1.9
v 1.6 1.8 -1.9
v 1.7 1.8 -1.9
v 0.8 1.8 -2
v 1.1 1.8 -2
v 1.3 1.8 -2
v 1.6 1.8 -2
v 0.4 2.2 -1
v 2 2.2 -1
v 0.5 2.2 -1.1
v 1.9 2.2 -1.1
v 0.4 2.2 -2
v 0.5 2.2 -2
v 1.9 2.2 -2
v 2 2.2 -2
v 0.5 2.3 -1.1
v 0.6 2.3 -1.1
v 1.8 2.3 -1.1
v 1.9 2.3 -1.1
v 0.5 2.3 -2
v 0.6 2.3 -2
v 1.8 2.3 -2
v 1.9 2.3 -2
v 0.6 2.4 -1.1
v 0.7 2.4 -1.1
v 1.7 2.4 -1.1
v 1.8 2.4 -1.1
v 0.6 2.4 -2
v 0.7 2.4 -2
v 1.7 2.4 -2
v 1.8 2.4 -2
v 0.7 2.5 -1.1
v 0.8 2.5 -1.1
v 1.6 2.5 -1.1
v 1.7 2.5 -1.1
v 0.7 2.5 -2
v 0.8 2.5 -2
v 1.6 2.5 -2
v 1.7 2.5 -2
v 0.8 2.6 -1.1
v 0.9 2.6 -1.1
v 1.5 2.6 -1.1
v 1.6 2.6 -1.1
v 0.8 2.6 -2
v 0.9 2.6 -2
v 1.5 2.6 -2
v 1.6 2.6 -2
v 0.9 2.7 -1.1
v 1 2.7 -1.1
v 1.4 2.7 -1.1
v 1.5 2.7 -1.1
v 0.9 2.7 -2
v 1 2.7 -2
v 1.4 2.7 -2
v 1.5 2.7 -2
v 1 2.8 -1.1
v 1.1 2.8 -1.1
v 1.3 2.8 -1.1
v 1.4 2.8 -1.1
v 1 2.8 -2
v 1.1 2.8 -2
v 1.3 2.8 -2
v 1.4 2.8 -2
v 1.1 2.9 -1
v 1.3 2.9 -1
v 1.1 2.9 -2
v 1.3 2.9 -2

# faces
f 3/5/1 2/5/1 1/5/1
f 4/5/1 2/5/1 3/5/1
f 7/5/1 6/5/1 5/5/1
f 8/5/1 6/5/1 7/5/1
f 11/5/1 10/5/1 9/5/1
f 12/5/1 10/5/1 11/5/1
f 16/4/1 14/4/1 13/4/1
f 17/3/1 16/3/1 15/3/1
f 18/4/1 14/4/1 16/4/1
f 18/3/1 16/3/1 17/3/1
f 19/4/1 14/4/1 18/4/1
f 20/4/1 14/4/1 19/4/1
f 21/4/1 14/4/1 20/4/1
f 22/4/1 14/4/1 21/4/1
f 23/4/1 19/4/1 18/4/1
f 24/4/1 19/4/1 23/4/1
f 25/4/1 21/4/1 20/4/1
f 26/4/1 21/4/1 25/4/1
f 27/4/1 14/4/1 22/4/1
f 28/4/1 14/4/1 27/4/1
f 31/5/1 30/5/1 29/5/1
f 32/5/1 30/5/1 31/5/1
f 37/2/1 34/2/1 33/2/1
f 38/2/1 34/2/1 37/2/1
f 39/2/1 36/2/1 35/2/1
f 40/2/1 36/2/1 39/2/1
f 43/5/1 42/5/1 41/5/1
f 44/5/1 42/5/1 43/5/1
f 47/1/1 46/1/1 45/1/1
f 48/1/1 46/1/1 47/1/1
f 51/5/1 50/5/1 49/5/1
f 52/5/1 50/5/1 51/5/1
f 55/5/1 54/5/1 53/5/1
f 56/5/1 54/5/1 55/5/1
f 59/4/1 58/4/1 57/4/1
f 60/4/1 58/4/1 59/4/1
f 65/4/1 62/4/1 61/4/1
f 66/4/1 62/4/1 65/4/1
f 67/4/1 64/4/1 63/4/1
f 68/4/1 64/4/1 67/4/1
f 71/5/1 70/5/1 69/5/1
f 73/5/1 71/5/1 69/5/1
f 73/5/1 72/5/1 71/5/1
f 74/5/1 72/5/1 73/5/1
f 77/1/1 76/1/1 75/1/1
f 78/1/1 76/1/1 77/1/1
f 83/2/1 80/2/1 79/2/1
f 84/2/1 80/2/1 83/2/1
f 85/2/1 82/2/1 81/2/1
f 86/2/1 82/2/1 85/2/1
f 89/4/1 88/4/1 87/4/1
f 90/4/1 88/4/1 89/4/1
f 95/2/1 92/2/1 91/2/1
f 96/2/1 92/2/1 95/2/1
f 97/2/1 94/2/1 93/2/1
f 98/2/1 94/2/1 97/2/1
f 102/4/1 100/4/1 99/4/1
f 103/4/1 100/4/1 102/4/1
f 104/4/1 100/4/1 103/4/1
f 105/4/1 100/4/1 104/4/1
f 107/4/1 104/4/1 103/4/1
f 108/4/1 104/4/1 107/4/1
f 109/4/1 102/4/1 101/4/1
f 110/4/1 102/4/1 109/4/1
f 111/4/1 106/4/1 105/4/1
f 112/4/1 106/4/1 111/4/1
f 113/4/2 114/4/2 116/4/2
f 116/4/2 114/4/2 117/4/2
f 117/4/2 114/4/2 118/4/2
f 118/4/2 114/4/2 119/4/2
f 117/4/2 118/4/2 121/4/2
f 121/4/2 118/4/2 122/4/2
f 115/4/2 116/4/2 123/4/2
f 123/4/2 116/4/2 124/4/2
f 119/4/2 120/4/2 125/4/2
f 125/4/2 120/4/2 126/4/2
f 127/4/2 128/4/2 129/4/2
f 129/4/2 128/4/2 130/4/2
f 131/2/2 132/2/2 135/2/2
f 135/2/2 132/2/2 136/2/2
f 133/2/2 134/2/2 137/2/2
f 137/2/2 134/2/2 138/2/2
f 139/1/2 140/1/2 141/1/2
f 141/1/2 140/1/2 142/1/2
f 143/2/2 144/2/2 147/2/2
f 147/2/2 144/2/2 148/2/2
f 145/2/2 146/2/2 149/2/2
f 149/2/2 146/2/2 150/2/2
f 151/4/2 152/4/2 153/4/2
f 153/4/2 152/4/2 154/4/2
f 155/4/2 156/4/2 159/4/2
f 159/4/2 156/4/2 160/4/2
f 157/4/2 158/4/2 161/4/2
f 161/4/2 158/4/2 162/4/2
f 163/5/2 164/5/2 165/5/2
f 163/5/2 165/5/2 167/5/2
f 165/5/2 166/5/2 167/5/2
f 167/5/2 166/5/2 168/5/2
f 169/5/2 170/5/2 171/5/2
f 171/5/2 170/5/2 172/5/2
f 173/1/2 174/1/2 175/1/2
f 175/1/2 174/1/2 176/1/2
f 177/5/2 178/5/2 179/5/2
f 179/5/2 178/5/2 180/5/2
f 181/2/2 182/2/2 185/2/2
f 185/2/2 182/2/2 186/2/2
f 183/2/2 184/2/2 187/2/2
f 187/2/2 184/2/2 188/2/2
f 189/5/2 190/5/2 191/5/2
f 191/5/2 190/5/2 192/5/2
f 193/4/2 194/4/2 196/4/2
f 195/3/2 196/3/2 197/3/2
f 196/4/2 194/4/2 198/4/2
f 197/3/2 196/3/2 198/3/2
f 198/4/2 194/4/2 199/4/2
f 199/4/2 194/4/2 200/4/2
f 200/4/2 194/4/2 201/4/2
f 201/4/2 194/4/2 202/4/2
f 198/4/2 199/4/2 203/4/2
f 203/4/2 199/4/2 204/4/2
f 200/4/2 201/4/2 205/4/2
f 205/4/2 201/4/2 206/4/2
f 202/4/2 194/4/2 207/4/2
f 207/4/2 194/4/2 208/4/2
f 209/5/2 210/5/2 211/5/2
f 211/5/2 210/5/2 212/5/2
f 213/5/2 214/5/2 215/5/2
f 215/5/2 214/5/2 216/5/2
f 217/5/2 218/5/2 219/5/2
f 219/5/2 218/5/2 220/5/2
f 221/5/2 222/5/2 223/5/2
f 223/5/2 222/5/2 224/5/2
f 227/3/3 226/3/3 225/3/3
f 228/3/3 226/3/3 227/3/3
f 234/5/3 230/5/3 229/5/3
f 235/4/3 234/4/3 233/4/3
f 236/5/3 230/5/3 234/5/3
f 236/4/3 234/4/3 235/4/3
f 237/4/3 232/4/3 231/4/3
f 238/4/3 232/4/3 237/4/3
f 239/4/3 237/4/3 231/4/3
f 240/4/3 232/4/3 238/4/3
f 241/4/3 235/4/3 233/4/3
f 242/5/3 230/5/3 236/5/3
f 245/4/3 240/4/3 239/4/3
f 245/4/3 239/4/3 231/4/3
f 246/4/3 232/4/3 240/4/3
f 246/4/3 240/4/3 245/4/3
f 247/4/3 241/4/3 233/4/3
f 247/4/3 242/4/3 241/4/3
f 248/5/3 230/5/3 242/5/3
f 248/4/3 242/4/3 247/4/3
f 249/5/3 244/5/3 243/5/3
f 250/5/3 244/5/3 249/5/3
f 251/4/3 245/4/3 231/4/3
f 252/4/3 232/4/3 246/4/3
f 253/4/3 247/4/3 233/4/3
f 254/5/3 230/5/3 248/5/3
f 255/4/3 251/4/3 231/4/3
f 255/4/3 252/4/3 251/4/3
f 256/4/3 232/4/3 252/4/3
f 256/4/3 252/4/3 255/4/3
f 257/4/3 254/4/3 253/4/3
f 257/4/3 253/4/3 233/4/3
f 258/5/3 230/5/3 254/5/3
f 258/4/3 254/4/3 257/4/3
f 259/5/3 230/5/3 258/5/3
f 260/5/3 230/5/3 259/5/3
f 263/5/3 262/5/3 261/5/3
f 265/5/3 264/5/3 263/5/3
f 269/5/3 266/5/3 265/5/3
f 273/5/3 270/5/3 269/5/3
f 275/5/3 274/5/3 273/5/3
f 277/1/3 272/1/3 271/1/3
f 278/1/3 272/1/3 277/1/3
f 279/2/3 268/2/3 267/2/3
f 280/2/3 268/2/3 279/2/3
f 281/5/3 276/5/3 275/5/3
f 281/5/3 275/5/3 273/5/3
f 282/5/3 276/5/3 281/5/3
f 287/5/3 281/5/3 273/5/3
f 289/5/3 287/5/3 273/5/3
f 289/5/3 288/5/3 287/5/3
f 290/5/3 288/5/3 289/5/3
f 291/1/3 284/1/3 283/1/3
f 292/1/3 284/1/3 291/1/3
f 293/5/3 273/5/3 269/5/3
f 293/5/3 289/5/3 273/5/3
f 294/5/3 289/5/3 293/5/3
f 295/2/3 286/2/3 285/2/3
f 296/2/3 286/2/3 295/2/3
f 297/5/3 269/5/3 265/5/3
f 297/5/3 293/5/3 269/5/3
f 298/5/3 293/5/3 297/5/3
f 299/5/3 265/5/3 263/5/3
f 299/5/3 297/5/3 265/5/3
f 300/5/3 297/5/3 299/5/3
f 301/5/3 263/5/3 261/5/3
f 301/5/3 299/5/3 263/5/3
f 302/5/3 299/5/3 301/5/3
f 303/5/3 301/5/3 261/5/3
f 304/5/3 301/5/3 303/5/3
f 307/4/3 306/4/3 305/4/3
f 308/4/3 306/4/3 307/4/3
f 311/4/3 310/4/3 309/4/3
f 312/4/3 310/4/3 311/4/3
f 315/2/3 314/2/3 313/2/3
f 316/2/3 314/2/3 315/2/3
f 319/2/3 318/2/3 317/2/3
f 320/2/3 318/2/3 319/2/3
f 323/2/3 322/2/3 321/2/3
f 324/2/3 322/2/3 323/2/3
f 327/2/3 326/2/3 325/2/3
f 328/2/3 326/2/3 327/2/3
f 332/4/3 330/4/3 329/4/3
f 333/4/3 330/4/3 332/4/3
f 334/4/3 332/4/3 331/4/3
f 336/4/3 334/4/3 331/4/3
f 336/4/3 335/4/3 334/4/3
f 337/4/3 335/4/3 336/4/3
f 338/4/3 336/4/3 331/4/3
f 339/4/3 336/4/3 338/4/3
f 341/4/3 340/4/3 339/4/3
f 342/4/3 340/4/3 341/4/3
f 343/4/4 344/4/4 346/4/4
f 346/4/4 344/4/4 347/4/4
f 345/4/4 346/4/4 348/4/4
f 348/4/4 346/4/4 349/4/4
f 349/4/4 346/4/4 351/4/4
f 351/4/4 346/4/4 352/4/4
f 350/4/4 351/4/4 354/4/4
f 352/4/4 353/4/4 354/4/4
f 351/4/4 352/4/4 354/4/4
f 354/4/4 353/4/4 355/4/4
f 355/4/4 353/4/4 356/4/4
f 356/4/4 353/4/4 357/4/4
f 355/4/4 356/4/4 359/4/4
f 358/4/4 359/4/4 360/4/4
f 359/4/4 356/4/4 361/4/4
f 360/4/4 359/4/4 361/4/4
f 361/4/4 362/4/4 363/4/4
f 363/4/4 362/4/4 364/4/4
f 365/1/4 366/1/4 369/1/4
f 369/1/4 366/1/4 370/1/4
f 367/2/4 368/2/4 371/2/4
f 371/2/4 368/2/4 372/2/4
f 373/1/4 374/1/4 377/1/4
f 377/1/4 374/1/4 378/1/4
f 375/2/4 376/2/4 379/2/4
f 379/2/4 376/2/4 380/2/4
f 381/2/4 382/2/4 383/2/4
f 383/2/4 382/2/4 384/2/4
f 385/2/4 386/2/4 387/2/4
f 387/2/4 386/2/4 388/2/4
f 389/4/4 390/4/4 391/4/4
f 391/4/4 390/4/4 392/4/4
f 393/4/4 394/4/4 395/4/4
f 395/4/4 394/4/4 396/4/4
f 397/2/4 398/2/4 399/2/4
f 399/2/4 398/2/4 400/2/4
f 401/2/4 402/2/4 403/2/4
f 403/2/4 402/2/4 404/2/4
f 405/5/4 406/5/4 407/5/4
f 407/5/4 408/5/4 409/5/4
f 405/5/4 407/5/4 412/5/4
f 409/5/4 410/5/4 412/5/4
f 407/5/4 409/5/4 412/5/4
f 412/5/4 410/5/4 413/5/4
f 411/4/4 412/4/4 415/4/4
f 413/5/4 414/5/4 416/5/4
f 415/4/4 412/4/4 416/4/4
f 412/5/4 413/5/4 416/5/4
f 416/5/4 414/5/4 417/5/4
f 417/5/4 418/5/4 419/5/4
f 416/5/4 417/5/4 419/5/4
f 419/5/4 420/5/4 421/5/4
f 411/4/4 415/4/4 423/4/4
f 421/5/4 422/5/4 424/5/4
f 416/5/4 419/5/4 424/5/4
f 419/5/4 421/5/4 424/5/4
f 424/5/4 422/5/4 425/5/4
f 411/4/4 423/4/4 427/4/4
f 423/4/4 424/4/4 427/4/4
f 425/5/4 426/5/4 428/5/4
f 427/4/4 424/4/4 428/4/4
f 424/5/4 425/5/4 428/5/4
f 428/5/4 426/5/4 429/5/4
f 429/5/4 426/5/4 430/5/4
f 428/5/4 429/5/4 431/5/4
f 431/5/4 429/5/4 432/5/4
f 428/5/4 431/5/4 433/5/4
f 433/5/4 431/5/4 434/5/4
f 411/4/4 427/4/4 435/4/4
f 428/5/4 433/5/4 436/5/4
f 436/5/4 433/5/4 437/5/4
f 437/5/4 433/5/4 438/5/4
f 411/4/4 435/4/4 439/4/4
f 435/4/4 436/4/4 439/4/4
f 436/5/4 437/5/4 440/5/4
f 439/4/4 436/4/4 440/4/4
f 440/5/4 437/5/4 441/5/4
f 441/5/4 437/5/4 442/5/4
f 440/5/4 441/5/4 443/5/4
f 443/5/4 441/5/4 444/5/4
f 440/5/4 443/5/4 445/5/4
f 445/5/4 443/5/4 446/5/4
f 440/5/4 445/5/4 447/5/4
f 447/5/4 445/5/4 448/5/4
f 451/4/5 450/4/5 449/4/5
f 452/4/5 450/4/5 451/4/5
f 457/4/5 454/4/5 453/4/5
f 458/4/5 454/4/5 457/4/5
f 459/4/5 456/4/5 455/4/5
f 460/4/5 456/4/5 459/4/5
f 463/3/5 462/3/5 461/3/5
f 464/3/5 462/3/5 463/3/5
f 469/2/5 466/2/5 465/2/5
f 470/2/5 466/2/5 469/2/5
f 471/2/5 468/2/5 467/2/5
f 472/2/5 468/2/5 471/2/5
f 473/2/5 469/2/5 465/2/5
f 474/2/5 469/2/5 473/2/5
f 475/2/5 468/2/5 472/2/5
f 476/2/5 468/2/5 475/2/5
f 481/2/5 478/2/5 477/2/5
f 484/2/5 480/2/5 479/2/5
f 485/2/5 482/2/5 481/2/5
f 485/2/5 481/2/5 477/2/5
f 486/2/5 482/2/5 485/2/5
f 487/2/5 484/2/5 483/2/5
f 488/2/5 480/2/5 484/2/5
f 488/2/5 484/2/5 487/2/5
f 492/6/5 490/6/5 489/6/5
f 493/6/5 490/6/5 492/6/5
f 496/6/5 492/6/5 491/6/5
f 496/6/5 494/6/5 493/6/5
f 496/6/5 493/6/5 492/6/5
f 497/6/5 494/6/5 496/6/5
f 499/6/5 496/6/5 495/6/5
f 499/6/5 498/6/5 497/6/5
f 499/6/5 497/6/5 496/6/5
f 500/6/5 498/6/5 499/6/5
f 501/6/5 498/6/5 500/6/5
f 502/6/5 498/6/5 501/6/5
f 503/6/5 501/6/5 500/6/5
f 504/6/5 501/6/5 503/6/5
f 505/6/5 501/6/5 504/6/5
f 506/6/5 501/6/5 505/6/5
f 507/6/5 505/6/5 504/6/5
f 508/6/5 505/6/5 507/6/5
f 517/5/5 510/5/5 509/5/5
f 518/5/5 510/5/5 517/5/5
f 519/5/5 512/5/5 511/5/5
f 520/5/5 512/5/5 519/5/5
f 521/5/5 514/5/5 513/5/5
f 522/5/5 514/5/5 521/5/5
f 523/5/5 516/5/5 515/5/5
f 524/5/5 516/5/5 523/5/5
f 525/6/5 518/6/5 517/6/5
f 525/6/5 519/6/5 518/6/5
f 526/6/5 519/6/5 525/6/5
f 527/6/5 524/6/5 523/6/5
f 527/6/5 523/6/5 522/6/5
f 528/6/5 524/6/5 527/6/5
f 529/6/5 525/6/5 517/6/5
f 532/6/5 524/6/5 528/6/5
f 533/6/5 530/6/5 529/6/5
f 533/5/5 517/5/5 509/5/5
f 533/6/5 529/6/5 517/6/5
f 534/6/5 530/6/5 533/6/5
f 535/6/5 530/6/5 534/6/5
f 538/6/5 532/6/5 531/6/5
f 539/6/5 524/6/5 532/6/5
f 539/6/5 532/6/5 538/6/5
f 540/5/5 516/5/5 524/5/5
f 540/6/5 524/6/5 539/6/5
f 541/5/5 533/5/5 509/5/5
f 541/5/5 534/5/5 533/5/5
f 542/5/5 534/5/5 541/5/5
f 543/5/5 536/5/5 535/5/5
f 544/5/5 536/5/5 543/5/5
f 545/5/5 538/5/5 537/5/5
f 546/5/5 538/5/5 545/5/5
f 547/5/5 540/5/5 539/5/5
f 548/5/5 516/5/5 540/5/5
f 548/5/5 540/5/5 547/5/5
f 551/5/5 550/5/5 549/5/5
f 552/5/5 550/5/5 551/5/5
f 553/4/6 554/4/6 558/4/6
f 558/4/6 554/4/6 559/4/6
f 555/4/6 556/4/6 560/4/6
f 560/4/6 556/4/6 561/4/6
f 557/4/6 558/4/6 563/4/6
f 559/4/6 560/4/6 564/4/6
f 564/4/6 560/4/6 565/4/6
f 561/4/6 562/4/6 566/4/6
f 564/4/6 565/4/6 567/4/6
f 565/4/6 566/4/6 567/4/6
f 557/4/6 563/4/6 567/4/6
f 563/4/6 564/4/6 567/4/6
f 566/4/6 562/4/6 568/4/6
f 567/4/6 566/4/6 568/4/6
f 569/1/6 570/1/6 573/1/6
f 573/1/6 570/1/6 574/1/6
f 571/1/6 572/1/6 575/1/6
f 575/1/6 572/1/6 576/1/6
f 577/3/6 578/3/6 579/3/6
f 579/3/6 578/3/6 580/3/6
f 581/4/6 582/4/6 586/4/6
f 586/4/6 582/4/6 587/4/6
f 583/4/6 584/4/6 588/4/6
f 588/4/6 584/4/6 589/4/6
f 585/4/6 586/4/6 591/4/6
f 591/4/6 586/4/6 592/4/6
f 589/4/6 590/4/6 593/4/6
f 593/4/6 590/4/6 594/4/6
f 595/4/6 596/4/6 599/4/6
f 599/4/6 596/4/6 600/4/6
f 597/4/6 598/4/6 603/4/6
f 603/4/6 598/4/6 604/4/6
f 600/4/6 601/4/6 605/4/6
f 605/4/6 601/4/6 606/4/6
f 602/4/6 603/4/6 607/4/6
f 607/4/6 603/4/6 608/4/6
f 609/5/6 610/5/6 611/5/6
f 611/5/6 610/5/6 612/5/6
f 609/5/6 611/5/6 613/5/6
f 613/5/6 611/5/6 614/5/6
f 612/5/6 610/5/6 615/5/6
f 615/5/6 610/5/6 616/5/6
f 617/5/6 618/5/6 621/5/6
f 621/5/6 618/5/6 622/5/6
f 619/5/6 620/5/6 623/5/6
f 623/5/6 620/5/6 624/5/6
f 625/5/6 626/5/6 629/5/6
f 629/5/6 626/5/6 630/5/6
f 627/5/6 628/5/6 631/5/6
f 631/5/6 628/5/6 632/5/6
f 633/5/6 634/5/6 637/5/6
f 637/5/6 634/5/6 638/5/6
f 635/5/6 636/5/6 639/5/6
f 639/5/6 636/5/6 640/5/6
f 641/5/6 642/5/6 645/5/6
f 645/5/6 642/5/6 646/5/6
f 643/5/6 644/5/6 647/5/6
f 647/5/6 644/5/6 648/5/6
f 649/5/6 650/5/6 653/5/6
f 653/5/6 650/5/6 654/5/6
f 651/5/6 652/5/6 655/5/6
f 655/5/6 652/5/6 656/5/6
f 657/5/6 658/5/6 661/5/6
f 661/5/6 658/5/6 662/5/6
f 659/5/6 660/5/6 663/5/6
f 663/5/6 660/5/6 664/5/6
f 665/5/6 666/5/6 667/5/6
f 667/5/6 666/5/6 668/5/6
