# MagicaVoxel @ Ephtracy

# group
o 

# material
mtllib Right_Arm.mtl
usemtl palette

# normals
vn -1 0 0
vn 1 0 0
vn 0 0 1
vn 0 0 -1
vn 0 -1 0
vn 0 1 0

# texcoords
vt 0.0332031 0.5
vt 0.841797 0.5
vt 0.955078 0.5

# verts
v 0.4 2.7 1.7
v 0.4 2.7 1.1
v 0.4 3.3 1.7
v 0.4 3.3 1.1
v 1.7 2.6 1.7
v 1.7 2.6 1.1
v 1.7 2.7 1.8
v 1.7 2.7 1.7
v 1.7 2.7 1.1
v 1.7 2.7 1
v 1.7 3.3 1.8
v 1.7 3.3 1.7
v 1.7 3.3 1.1
v 1.7 3.3 1
v 1.7 3.4 1.7
v 1.7 3.4 1.1
v 1.9 2.6 1.7
v 1.9 2.6 1.1
v 1.9 2.7 1.8
v 1.9 2.7 1.7
v 1.9 2.7 1.1
v 1.9 2.7 1
v 1.9 3.3 1.8
v 1.9 3.3 1.7
v 1.9 3.3 1.1
v 1.9 3.3 1
v 1.9 3.4 1.7
v 1.9 3.4 1.1
v 2.1 2.7 1.7
v 2.1 2.7 1.1
v 2.1 3.3 1.7
v 2.1 3.3 1.1
v 1.7 2.7 1.8
v 1.7 3.3 1.8
v 1.9 2.7 1.8
v 1.9 3.3 1.8
v 0.4 2.7 1.7
v 0.4 3.3 1.7
v 1.7 2.6 1.7
v 1.7 2.7 1.7
v 1.7 3.3 1.7
v 1.7 3.4 1.7
v 1.9 2.6 1.7
v 1.9 2.7 1.7
v 1.9 3.3 1.7
v 1.9 3.4 1.7
v 2.1 2.7 1.7
v 2.1 3.3 1.7
v 0.4 2.7 1.1
v 0.4 3.3 1.1
v 1.7 2.6 1.1
v 1.7 2.7 1.1
v 1.7 3.3 1.1
v 1.7 3.4 1.1
v 1.9 2.6 1.1
v 1.9 2.7 1.1
v 1.9 3.3 1.1
v 1.9 3.4 1.1
v 2.1 2.7 1.1
v 2.1 3.3 1.1
v 1.7 2.7 1
v 1.7 3.3 1
v 1.9 2.7 1
v 1.9 3.3 1
v 1.7 2.6 1.7
v 1.9 2.6 1.7
v 1.7 2.6 1.1
v 1.9 2.6 1.1
v 1.7 2.7 1.8
v 1.9 2.7 1.8
v 0.4 2.7 1.7
v 1.7 2.7 1.7
v 1.9 2.7 1.7
v 2.1 2.7 1.7
v 0.4 2.7 1.1
v 1.7 2.7 1.1
v 1.9 2.7 1.1
v 2.1 2.7 1.1
v 1.7 2.7 1
v 1.9 2.7 1
v 1.7 3.3 1.8
v 1.9 3.3 1.8
v 0.4 3.3 1.7
v 1.7 3.3 1.7
v 1.9 3.3 1.7
v 2.1 3.3 1.7
v 0.4 3.3 1.1
v 1.7 3.3 1.1
v 1.9 3.3 1.1
v 2.1 3.3 1.1
v 1.7 3.3 1
v 1.9 3.3 1
v 1.7 3.4 1.7
v 1.9 3.4 1.7
v 1.7 3.4 1.1
v 1.9 3.4 1.1

# faces
f 3/3/1 2/3/1 1/3/1
f 4/3/1 2/3/1 3/3/1
f 8/2/1 6/2/1 5/2/1
f 9/2/1 6/2/1 8/2/1
f 11/2/1 8/2/1 7/2/1
f 12/2/1 8/2/1 11/2/1
f 13/2/1 10/2/1 9/2/1
f 14/2/1 10/2/1 13/2/1
f 15/2/1 13/2/1 12/2/1
f 16/2/1 13/2/1 15/2/1
f 17/2/2 18/2/2 20/2/2
f 20/2/2 18/2/2 21/2/2
f 19/2/2 20/2/2 23/2/2
f 23/2/2 20/2/2 24/2/2
f 21/2/2 22/2/2 25/2/2
f 25/2/2 22/2/2 26/2/2
f 24/2/2 25/2/2 27/2/2
f 27/2/2 25/2/2 28/2/2
f 29/1/2 30/1/2 31/1/2
f 31/1/2 30/1/2 32/1/2
f 35/2/3 34/2/3 33/2/3
f 36/2/3 34/2/3 35/2/3
f 40/3/3 38/3/3 37/3/3
f 41/3/3 38/3/3 40/3/3
f 43/2/3 40/2/3 39/2/3
f 44/2/3 40/2/3 43/2/3
f 45/2/3 42/2/3 41/2/3
f 46/2/3 42/2/3 45/2/3
f 47/1/3 45/1/3 44/1/3
f 48/1/3 45/1/3 47/1/3
f 49/3/4 50/3/4 52/3/4
f 52/3/4 50/3/4 53/3/4
f 51/2/4 52/2/4 55/2/4
f 55/2/4 52/2/4 56/2/4
f 53/2/4 54/2/4 57/2/4
f 57/2/4 54/2/4 58/2/4
f 56/1/4 57/1/4 59/1/4
f 59/1/4 57/1/4 60/1/4
f 61/2/4 62/2/4 63/2/4
f 63/2/4 62/2/4 64/2/4
f 67/2/5 66/2/5 65/2/5
f 68/2/5 66/2/5 67/2/5
f 72/2/5 70/2/5 69/2/5
f 73/2/5 70/2/5 72/2/5
f 75/3/5 72/3/5 71/3/5
f 76/3/5 72/3/5 75/3/5
f 77/1/5 74/1/5 73/1/5
f 78/1/5 74/1/5 77/1/5
f 79/2/5 77/2/5 76/2/5
f 80/2/5 77/2/5 79/2/5
f 81/2/6 82/2/6 84/2/6
f 84/2/6 82/2/6 85/2/6
f 83/3/6 84/3/6 87/3/6
f 87/3/6 84/3/6 88/3/6
f 85/1/6 86/1/6 89/1/6
f 89/1/6 86/1/6 90/1/6
f 88/2/6 89/2/6 91/2/6
f 91/2/6 89/2/6 92/2/6
f 93/2/6 94/2/6 95/2/6
f 95/2/6 94/2/6 96/2/6
